<?xml version="1.0" encoding="UTF-8" standalone="no"?>
<svg
   xmlns:dc="http://purl.org/dc/elements/1.1/"
   xmlns:cc="http://creativecommons.org/ns#"
   xmlns:rdf="http://www.w3.org/1999/02/22-rdf-syntax-ns#"
   xmlns:svg="http://www.w3.org/2000/svg"
   xmlns="http://www.w3.org/2000/svg"
   xmlns:sodipodi="http://sodipodi.sourceforge.net/DTD/sodipodi-0.dtd"
   xmlns:inkscape="http://www.inkscape.org/namespaces/inkscape"
   version="1.1"
   id="svg2"
   xml:space="preserve"
   width="4266.6665"
   height="2666.6667"
   viewBox="0 0 4266.6665 2666.6667"
   sodipodi:docname="10142.eps"><metadata
     id="metadata8"><rdf:RDF><cc:Work
         rdf:about=""><dc:format>image/svg+xml</dc:format><dc:type
           rdf:resource="http://purl.org/dc/dcmitype/StillImage" /></cc:Work></rdf:RDF></metadata><defs
     id="defs6"><clipPath
       clipPathUnits="userSpaceOnUse"
       id="clipPath144"><path
         d="m 19836,6588.3 c -7.1,0 -14.5,0.2 -21.9,0.5 -218.2,10.3 -187.5,344.3 -187.5,344.3 h 456.7 c 6.6,-207.4 -47.2,-344.8 -247.3,-344.8"
         id="path142" /></clipPath></defs><sodipodi:namedview
     pagecolor="#ffffff"
     bordercolor="#666666"
     borderopacity="1"
     objecttolerance="10"
     gridtolerance="10"
     guidetolerance="10"
     inkscape:pageopacity="0"
     inkscape:pageshadow="2"
     inkscape:window-width="640"
     inkscape:window-height="480"
     id="namedview4" /><g
     id="g10"
     inkscape:groupmode="layer"
     inkscape:label="ink_ext_XXXXXX"
     transform="matrix(1.3333333,0,0,-1.3333333,0,2666.6667)"><g
       id="g12"
       transform="scale(0.1)"><path
         d="M 0,0 H 32000 V 20000 H 0 Z"
         style="fill:#f8fcff;fill-opacity:1;fill-rule:nonzero;stroke:none"
         id="path14" /><path
         d="m 2691.91,4751.5 c 0,0 -2472.269,2956.7 -160.64,5240.3 1450.22,1432.7 1937.87,416.7 2807.68,2669 1163.57,3012.9 5595.95,4600.7 9099.65,1377.1 2324.1,-2138.4 3074.6,-2677.3 4215.3,-2179.5 1308.3,570.8 1883,2288.9 3930.8,1925.6 2366.8,-419.9 2049.9,-2965.7 3793.9,-2522.4 3363.3,854.9 5855.1,-4029 3530.3,-6543.7 l -27216.99,33.6"
         style="fill:#e9f3fe;fill-opacity:1;fill-rule:nonzero;stroke:none"
         id="path16" /><path
         d="m 21571.3,9721.5 c 0,-305.8 -27.6,-605.2 -80.6,-895.8 -421.7,-2318.8 -2451.5,-4076.8 -4892,-4076.8 -2029.8,0 -3775.4,1216 -4548.2,2959.3 -101.9,229.8 -186.8,468.7 -253.3,715.2 -111.7,413.8 -171.2,849 -171.2,1298.1 0,367.3 39.9,725.2 115.4,1069.7 206.6,942.5 680.5,1784.7 1338.3,2443.5 186.5,187 388,359.2 602.4,514.7 819.3,594.4 1827,944.8 2916.6,944.8 126.5,0 251.9,-4.7 375.9,-14.1 174.9,-13.1 347.3,-35.2 516.8,-65.9 1157.5,-209.8 2175.6,-820.3 2905.2,-1682.7 147.2,-173.9 282.5,-358 404.9,-551.2 487.5,-769 769.8,-1681 769.8,-2658.8"
         style="fill:#cae2ff;fill-opacity:1;fill-rule:nonzero;stroke:none"
         id="path18" /><path
         d="m 21571.3,9721.5 c 0,-305.8 -27.6,-605.2 -80.5,-895.8 -202.5,29.3 -466,58 -628.7,38.8 -293.2,-34.5 -586.3,-638 -1189.8,-661.7 -603.5,-23.7 -1345,437.6 -2138.2,127.2 -793.1,-310.4 -1207,17.2 -1344.9,241.4 -138,224.1 344.8,741.4 301.1,965.6 -43.8,224.2 61,982.9 733.5,982.9 672.5,0 982.8,344.8 1069,500 86.3,155.2 603.5,34.5 879.4,327.6 275.9,293.2 -206.9,810.5 0,1155.3 207,344.9 1224.4,428.7 1224.4,428.7 732.8,-866.2 1174.7,-1986.5 1174.7,-3210"
         style="fill:#afcdfb;fill-opacity:1;fill-rule:nonzero;stroke:none"
         id="path20" /><path
         d="m 14240.7,10566.7 c -241.4,-340 86.2,-1046.9 -120.7,-1409 -206.9,-362.2 -603.5,-293.2 -896.7,-465.6 -254.5,-149.7 -356.5,-767.2 -1172.7,-983.9 -273,615.4 -424.6,1296.7 -424.6,2013.3 0,367.3 39.9,725.2 115.4,1069.7 166.5,168.2 394.8,319.2 706,401.2 982.9,258.6 1227.4,318.2 1619.3,254.6 296.3,-48 415.4,-540.3 174,-880.3"
         style="fill:#afcdfb;fill-opacity:1;fill-rule:nonzero;stroke:none"
         id="path22" /><path
         d="m 17948,12442.5 c 0,0 -603.5,120.7 -931.2,-86.2 -327.6,-206.9 -991.4,-577.7 -905.2,-793.2 86.2,-215.6 715.6,-379.4 974.2,-370.7 258.7,8.6 1017.4,396.5 1336.4,370.7 319,-25.9 137.1,859.2 -474.2,879.4"
         style="fill:#afcdfb;fill-opacity:1;fill-rule:nonzero;stroke:none"
         id="path24" /><path
         d="m 15076.1,6525.6 c -263.8,-192.4 -326.7,-783.8 -495.5,-865.7 -84.7,-41.1 -214.9,-189.1 -323.7,-326.2 -685.1,366.3 -1274.5,888.6 -1720.4,1519.3 298.5,207.2 858.2,557.1 1246.4,566.6 0,0 194.1,2.3 337.9,396.5 56.7,155.4 117.5,293.2 187.8,397 108.3,159.5 239.1,238.4 412.7,176.2 74.4,-26.7 121.2,-68.3 156.3,-120.8 100.4,-149.6 106.7,-387.1 389.6,-616.1 382.1,-309.4 72.8,-934.4 -191.1,-1126.8"
         style="fill:#afcdfb;fill-opacity:1;fill-rule:nonzero;stroke:none"
         id="path26" /><path
         d="m 12142.9,4769.4 h -96.9 v 2068.9 h 96.9 V 4769.4"
         style="fill:#1c468a;fill-opacity:1;fill-rule:nonzero;stroke:none"
         id="path28" /><path
         d="m 12004.8,6910.4 c 0,52.6 40.1,95.2 89.6,95.2 49.5,0 89.7,-42.6 89.7,-95.2 0,-52.6 -40.2,-95.2 -89.7,-95.2 -49.5,0 -89.6,42.6 -89.6,95.2"
         style="fill:#1c468a;fill-opacity:1;fill-rule:nonzero;stroke:none"
         id="path30" /><path
         d="m 12179.2,4748.8 h -174.4 v 48.9 h 174.4 v -48.9"
         style="fill:#1c468a;fill-opacity:1;fill-rule:nonzero;stroke:none"
         id="path32" /><path
         d="m 12168.3,6815.2 h -146.5 v 39.6 h 146.5 v -39.6"
         style="fill:#1c468a;fill-opacity:1;fill-rule:nonzero;stroke:none"
         id="path34" /><path
         d="m 7785.13,6273.8 c -552.47,0 -1144.64,14.4 -1776.01,48 -1619.71,86 -2743.34,259.3 -2754.5,261.1 l 16.57,119.8 c 11.11,-1.8 1130.46,-174.4 2745.06,-260.1 1489.38,-79 3716.72,-98 5870.05,260 l 17.6,-119.6 C 10988.2,6430.7 9602.83,6273.8 7785.13,6273.8"
         style="fill:#739af0;fill-opacity:1;fill-rule:nonzero;stroke:none"
         id="path36" /><path
         d="m 16745.5,6273.8 c -552.5,0 -1144.7,14.4 -1776.1,48 -1619.7,86 -2743.3,259.3 -2754.4,261.1 l 16.5,119.8 c 11.1,-1.8 1130.5,-174.4 2745.1,-260.1 1489.4,-79 3716.7,-98 5870,260 l 17.7,-119.6 c -915.8,-152.3 -2301.1,-309.2 -4118.8,-309.2"
         style="fill:#739af0;fill-opacity:1;fill-rule:nonzero;stroke:none"
         id="path38" /><path
         d="m 25700.7,6273.8 c -552.4,0 -1144.6,14.4 -1776,48 -1619.7,86 -2743.3,259.3 -2754.5,261.1 l 16.6,119.8 c 11.1,-1.8 1130.5,-174.4 2745.1,-260.1 1489.4,-79 3716.7,-98 5870,260 l 17.7,-119.6 c -915.8,-152.3 -2301.2,-309.2 -4118.9,-309.2"
         style="fill:#739af0;fill-opacity:1;fill-rule:nonzero;stroke:none"
         id="path40" /><path
         d="m 3190.25,4769.4 h -96.92 v 2068.9 h 96.92 V 4769.4"
         style="fill:#1c468a;fill-opacity:1;fill-rule:nonzero;stroke:none"
         id="path42" /><path
         d="m 3052.14,6910.4 c 0,52.6 40.14,95.2 89.65,95.2 49.51,0 89.65,-42.6 89.65,-95.2 0,-52.6 -40.14,-95.2 -89.65,-95.2 -49.51,0 -89.65,42.6 -89.65,95.2"
         style="fill:#1c468a;fill-opacity:1;fill-rule:nonzero;stroke:none"
         id="path44" /><path
         d="m 3226.6,4748.8 h -174.46 v 48.9 h 174.46 v -48.9"
         style="fill:#1c468a;fill-opacity:1;fill-rule:nonzero;stroke:none"
         id="path46" /><path
         d="m 3215.69,6815.2 h -146.55 v 39.6 h 146.55 v -39.6"
         style="fill:#1c468a;fill-opacity:1;fill-rule:nonzero;stroke:none"
         id="path48" /><path
         d="m 3467.65,6685.2 -23.02,-142.8 -205.09,35.6 25.48,139.1 202.63,-31.9"
         style="fill:#1c468a;fill-opacity:1;fill-rule:nonzero;stroke:none"
         id="path50" /><path
         d="m 3355.39,6631.8 c -3.51,-24 -24.49,-40.4 -47.1,-36.8 l -50.74,8.4 -12.94,2.2 -31.65,5 c -8.92,1.6 -16.71,5.9 -22.74,12.3 -9.16,9.4 -13.94,23.3 -11.93,37.8 1.51,9.4 5.53,18.1 11.93,24.5 1.51,1.5 2.9,2.9 4.53,4.2 9.04,7 19.97,9.8 30.65,8 l 34.91,-5.7 h 0.13 l 9.04,-1.6 51.37,-8.3 c 10.93,-1.6 20.47,-7.9 27.01,-17.4 6.52,-9.5 9.17,-21 7.53,-32.6 z m 2.64,40.6 c -7.54,10.8 -18.09,18.3 -30.14,21.7 l -1.39,0.4 h -0.25 -0.12 c -1.26,0.3 -2.26,0.6 -3.4,0.8 l -59.91,9.6 -35.29,5.8 c -13.19,2.2 -26.12,-0.7 -37.31,-8.3 -1,-0.6 -2,-1.4 -3.01,-2.2 -11.68,-9.1 -19.21,-22.4 -21.35,-37.5 -3.39,-23.2 6.78,-45.3 24.36,-57.1 6.16,-4.2 13.07,-7.2 20.86,-8.4 l 31.15,-5.1 13.43,-2.1 50.62,-8.2 c 2.77,-0.5 5.53,-0.8 8.29,-0.8 26.13,0 49.23,20.4 53.38,48.8 2.14,15 -1.38,30.3 -9.92,42.6"
         style="fill:#1c468a;fill-opacity:1;fill-rule:nonzero;stroke:none"
         id="path52" /><path
         d="m 11790.1,6553.4 -17.8,143.6 205.9,30.4 14.3,-140.8 -202.4,-33.2"
         style="fill:#1c468a;fill-opacity:1;fill-rule:nonzero;stroke:none"
         id="path54" /><path
         d="m 12052,6635.1 c -1.8,-2.5 -3.9,-4.8 -6,-6.8 -5.8,-5.6 -13.2,-9.3 -21.1,-10.5 l -35,-5.6 -60.4,-9.6 c -10.4,-1.7 -21.1,1.1 -29.6,7.6 l -1,0.8 c -9.1,6.9 -14.7,17.1 -16.5,28.7 -1.7,12.4 1.7,24.2 8.3,33.2 v 0.1 c 6.3,8.7 15.6,14.9 26.6,16.6 l 63.7,10.2 31.7,4.9 c 12.5,2 24.6,-2.3 33.3,-10.7 7.1,-6.4 12.1,-15.7 13.7,-26.4 1.6,-11.4 -1.2,-23 -7.7,-32.5 z m 20.1,34.5 c -2.4,18 -12.4,32.8 -26.1,41.1 -10.3,6.5 -22.5,9.3 -35.2,7.3 l -31.2,-5 -64.1,-10 c -2.8,-0.5 -5.6,-1.2 -8.2,-2 -7.2,-2.3 -13.6,-6.2 -19.1,-11.3 -13.7,-12.4 -21.2,-31.7 -18.3,-52 2.1,-15.2 9.8,-28.5 21.4,-37.6 3.4,-2.9 7.1,-5.2 11.1,-6.7 l 0.1,-0.1 c 8.9,-4 18.9,-5.5 28.8,-3.9 l 60,9.5 35.3,5.6 c 6.9,1.1 13.5,3.3 19.4,7.1 6.2,3.9 11.8,9.1 16.2,15.5 8.5,12.3 12.1,27.5 9.9,42.5"
         style="fill:#1c468a;fill-opacity:1;fill-rule:nonzero;stroke:none"
         id="path56" /><path
         d="m 21103.2,4769.4 h -96.9 v 2068.9 h 96.9 V 4769.4"
         style="fill:#1c468a;fill-opacity:1;fill-rule:nonzero;stroke:none"
         id="path58" /><path
         d="m 20965.1,6910.4 c 0,52.6 40.1,95.2 89.6,95.2 49.6,0 89.7,-42.6 89.7,-95.2 0,-52.6 -40.1,-95.2 -89.7,-95.2 -49.5,0 -89.6,42.6 -89.6,95.2"
         style="fill:#1c468a;fill-opacity:1;fill-rule:nonzero;stroke:none"
         id="path60" /><path
         d="m 21139.6,4748.8 h -174.5 v 48.9 h 174.5 v -48.9"
         style="fill:#1c468a;fill-opacity:1;fill-rule:nonzero;stroke:none"
         id="path62" /><path
         d="m 21128.7,6815.2 h -146.6 v 39.6 h 146.6 v -39.6"
         style="fill:#1c468a;fill-opacity:1;fill-rule:nonzero;stroke:none"
         id="path64" /><path
         d="m 12428,6685.2 -23,-142.8 -205.1,35.6 25.5,139.1 202.6,-31.9"
         style="fill:#1c468a;fill-opacity:1;fill-rule:nonzero;stroke:none"
         id="path66" /><path
         d="m 12315.7,6631.8 c -3.5,-24 -24.5,-40.4 -47.1,-36.8 l -50.7,8.4 -13,2.2 -31.6,5 c -8.9,1.6 -16.7,5.9 -22.7,12.3 -9.2,9.4 -14,23.3 -12,37.8 1.5,9.4 5.6,18.1 12,24.5 1.5,1.5 2.8,2.9 4.5,4.2 9,7 19.9,9.8 30.6,8 l 34.9,-5.7 h 0.2 l 9,-1.6 51.4,-8.3 c 10.9,-1.6 20.5,-7.9 27,-17.4 6.5,-9.5 9.2,-21 7.5,-32.6 z m 2.7,40.6 c -7.6,10.8 -18.1,18.3 -30.2,21.7 l -1.4,0.4 h -0.2 -0.1 c -1.3,0.3 -2.3,0.6 -3.4,0.8 l -59.9,9.6 -35.3,5.8 c -13.2,2.2 -26.2,-0.7 -37.3,-8.3 -1,-0.6 -2.1,-1.4 -3.1,-2.2 -11.6,-9.1 -19.2,-22.4 -21.3,-37.5 -3.4,-23.2 6.8,-45.3 24.4,-57.1 6.1,-4.2 13,-7.2 20.8,-8.4 l 31.2,-5.1 13.4,-2.1 50.6,-8.2 c 2.8,-0.5 5.5,-0.8 8.3,-0.8 26.1,0 49.2,20.4 53.4,48.8 2.1,15 -1.4,30.3 -9.9,42.6"
         style="fill:#1c468a;fill-opacity:1;fill-rule:nonzero;stroke:none"
         id="path68" /><path
         d="m 20750.4,6553.4 -17.7,143.6 205.8,30.4 14.4,-140.8 -202.5,-33.2"
         style="fill:#1c468a;fill-opacity:1;fill-rule:nonzero;stroke:none"
         id="path70" /><path
         d="m 21012.3,6635.1 c -1.7,-2.5 -3.9,-4.8 -6,-6.8 -5.8,-5.6 -13.2,-9.3 -21.1,-10.5 l -34.9,-5.6 -60.4,-9.6 c -10.5,-1.7 -21.1,1.1 -29.7,7.6 l -1,0.8 c -9,6.9 -14.7,17.1 -16.4,28.7 -1.8,12.4 1.6,24.2 8.3,33.2 v 0.1 c 6.2,8.7 15.5,14.9 26.6,16.6 l 63.7,10.2 31.6,4.9 c 12.6,2 24.6,-2.3 33.3,-10.7 7.1,-6.4 12.2,-15.7 13.7,-26.4 1.6,-11.4 -1.2,-23 -7.7,-32.5 z m 20.1,34.5 c -2.4,18 -12.4,32.8 -26.1,41.1 -10.3,6.5 -22.5,9.3 -35.2,7.3 l -31.1,-5 -64.2,-10 c -2.8,-0.5 -5.5,-1.2 -8.2,-2 -7.1,-2.3 -13.5,-6.2 -19.1,-11.3 -13.7,-12.4 -21.2,-31.7 -18.3,-52 2.1,-15.2 9.8,-28.5 21.5,-37.6 3.4,-2.9 7,-5.2 11,-6.7 l 0.2,-0.1 c 8.9,-4 18.8,-5.5 28.7,-3.9 l 60.1,9.5 35.3,5.6 c 6.9,1.1 13.4,3.3 19.3,7.1 6.3,3.9 11.8,9.1 16.2,15.5 8.5,12.3 12.2,27.5 9.9,42.5"
         style="fill:#1c468a;fill-opacity:1;fill-rule:nonzero;stroke:none"
         id="path72" /><path
         d="m 30058.5,4769.4 h -96.9 v 2068.9 h 96.9 V 4769.4"
         style="fill:#1c468a;fill-opacity:1;fill-rule:nonzero;stroke:none"
         id="path74" /><path
         d="m 29920.4,6910.4 c 0,52.6 40.1,95.2 89.6,95.2 49.6,0 89.7,-42.6 89.7,-95.2 0,-52.6 -40.1,-95.2 -89.7,-95.2 -49.5,0 -89.6,42.6 -89.6,95.2"
         style="fill:#1c468a;fill-opacity:1;fill-rule:nonzero;stroke:none"
         id="path76" /><path
         d="m 30094.8,4748.8 h -174.4 v 48.9 h 174.4 v -48.9"
         style="fill:#1c468a;fill-opacity:1;fill-rule:nonzero;stroke:none"
         id="path78" /><path
         d="m 30083.9,6815.2 h -146.5 v 39.6 h 146.5 v -39.6"
         style="fill:#1c468a;fill-opacity:1;fill-rule:nonzero;stroke:none"
         id="path80" /><path
         d="m 21383.3,6685.2 -23.1,-142.8 -205,35.6 25.4,139.1 202.7,-31.9"
         style="fill:#1c468a;fill-opacity:1;fill-rule:nonzero;stroke:none"
         id="path82" /><path
         d="m 21271,6631.8 c -3.5,-24 -24.5,-40.4 -47.1,-36.8 l -50.7,8.4 -13,2.2 -31.6,5 c -8.9,1.6 -16.7,5.9 -22.8,12.3 -9.1,9.4 -13.9,23.3 -11.9,37.8 1.5,9.4 5.5,18.1 11.9,24.5 1.6,1.5 2.9,2.9 4.6,4.2 9,7 19.9,9.8 30.6,8 l 34.9,-5.7 h 0.2 l 9,-1.6 51.4,-8.3 c 10.9,-1.6 20.4,-7.9 27,-17.4 6.5,-9.5 9.1,-21 7.5,-32.6 z m 2.7,40.6 c -7.6,10.8 -18.1,18.3 -30.2,21.7 l -1.4,0.4 h -0.2 -0.2 c -1.2,0.3 -2.2,0.6 -3.4,0.8 l -59.9,9.6 -35.2,5.8 c -13.2,2.2 -26.2,-0.7 -37.4,-8.3 -1,-0.6 -2,-1.4 -3,-2.2 -11.6,-9.1 -19.2,-22.4 -21.3,-37.5 -3.4,-23.2 6.8,-45.3 24.3,-57.1 6.2,-4.2 13.1,-7.2 20.9,-8.4 l 31.1,-5.1 13.5,-2.1 50.6,-8.2 c 2.8,-0.5 5.5,-0.8 8.3,-0.8 26.1,0 49.2,20.4 53.4,48.8 2.1,15 -1.4,30.3 -9.9,42.6"
         style="fill:#1c468a;fill-opacity:1;fill-rule:nonzero;stroke:none"
         id="path84" /><path
         d="m 29705.7,6553.4 -17.7,143.6 205.8,30.4 14.4,-140.8 -202.5,-33.2"
         style="fill:#1c468a;fill-opacity:1;fill-rule:nonzero;stroke:none"
         id="path86" /><path
         d="m 29967.6,6635.1 c -1.8,-2.5 -3.9,-4.8 -6,-6.8 -5.8,-5.6 -13.2,-9.3 -21.1,-10.5 l -34.9,-5.6 -60.4,-9.6 c -10.5,-1.7 -21.1,1.1 -29.7,7.6 l -1,0.8 c -9,6.9 -14.7,17.1 -16.5,28.7 -1.7,12.4 1.7,24.2 8.3,33.2 v 0.1 c 6.3,8.7 15.6,14.9 26.7,16.6 l 63.7,10.2 31.6,4.9 c 12.6,2 24.6,-2.3 33.3,-10.7 7.1,-6.4 12.2,-15.7 13.7,-26.4 1.6,-11.4 -1.2,-23 -7.7,-32.5 z m 20.1,34.5 c -2.4,18 -12.4,32.8 -26.1,41.1 -10.3,6.5 -22.5,9.3 -35.2,7.3 l -31.1,-5 -64.2,-10 c -2.8,-0.5 -5.5,-1.2 -8.2,-2 -7.1,-2.3 -13.5,-6.2 -19.1,-11.3 -13.7,-12.4 -21.2,-31.7 -18.3,-52 2.1,-15.2 9.8,-28.5 21.5,-37.6 3.4,-2.9 7,-5.2 11,-6.7 l 0.1,-0.1 c 9,-4 18.9,-5.5 28.8,-3.9 l 60.1,9.5 35.2,5.6 c 7,1.1 13.5,3.3 19.4,7.1 6.3,3.9 11.8,9.1 16.2,15.5 8.5,12.3 12.2,27.5 9.9,42.5"
         style="fill:#1c468a;fill-opacity:1;fill-rule:nonzero;stroke:none"
         id="path88" /><path
         d="m 11040.3,12974.1 c 0,0 -560.4,269.3 -1284.48,121.4 0,0 828.18,56.6 1319.28,-469.1 0,0 343.5,526.7 911.2,647.4 0,0 -423.1,50.4 -946,-299.7"
         style="fill:#9fc1f4;fill-opacity:1;fill-rule:nonzero;stroke:none"
         id="path90" /><path
         d="m 9460.95,13227.8 c 0,0 -432.22,210.8 -992.88,99.7 0,0 640.79,40 1018.23,-368.8 0,0 267.99,405.8 707.6,496.6 0,0 -326.95,40.9 -732.95,-227.5"
         style="fill:#9fc1f4;fill-opacity:1;fill-rule:nonzero;stroke:none"
         id="path92" /><path
         d="m 8066.78,13420 c 0,0 -401.26,175.1 -906.96,52.4 0,0 581.33,61.1 940.39,-296.2 0,0 228.12,379.4 624.5,479 0,0 -298.97,24.6 -657.93,-235.2"
         style="fill:#9fc1f4;fill-opacity:1;fill-rule:nonzero;stroke:none"
         id="path94" /><path
         d="m 7285.23,13823.2 c 0,0 -281.63,92.7 -614.89,-21.9 0,0 388.15,77.9 652.8,-140.4 0,0 129.91,270.2 390.91,362.4 0,0 -203.16,-2.3 -428.82,-200.1"
         style="fill:#9fc1f4;fill-opacity:1;fill-rule:nonzero;stroke:none"
         id="path96" /><path
         d="m 10083.2,14814.7 c 0,0 -276.46,107.3 -615.24,10.2 0,0 391.68,57.5 644.64,-174.3 0,0 143.8,263.1 409.2,341.5 0,0 -203,8.3 -438.6,-177.4"
         style="fill:#9fc1f4;fill-opacity:1;fill-rule:nonzero;stroke:none"
         id="path98" /><path
         d="m 11445.5,13859.6 c 0,0 -385.7,194.5 -890.6,101.4 0,0 576,28.3 910.2,-343.4 0,0 245.5,361.3 641.5,437.6 0,0 -293.2,40.7 -661.1,-195.6"
         style="fill:#9fc1f4;fill-opacity:1;fill-rule:nonzero;stroke:none"
         id="path100" /><path
         d="m 10907.8,14463.1 c 0,0 -363.1,166.3 -826.3,62.7 0,0 531.2,46.2 852.8,-285.5 0,0 214.3,342.3 577.4,426.6 0,0 -272.2,27.3 -603.9,-203.8"
         style="fill:#9fc1f4;fill-opacity:1;fill-rule:nonzero;stroke:none"
         id="path102" /><path
         d="m 19359,13366.1 c -285,0 -514.9,229.8 -514.9,514.8 0,283.7 229.9,514.9 514.9,514.9 283.6,0 514.8,-231.2 514.8,-514.9 0,-285 -231.2,-514.8 -514.8,-514.8 z m 0,1399.4 c -482.6,0 -873.8,-420.8 -873.8,-939.7 0,-518.9 873.8,-1348.3 873.8,-1348.3 0,0 873.8,829.4 873.8,1348.3 0,518.9 -391.2,939.7 -873.8,939.7"
         style="fill:#f78e48;fill-opacity:1;fill-rule:nonzero;stroke:none"
         id="path104" /><path
         d="m 19366.7,4981.3 c 0,0 -23.1,-222.3 27.3,-246.2 50.4,-23.9 646.1,-3.1 646.1,-3.1 0,0 -1.6,74.8 -104.5,89.3 -102.9,14.5 -284.3,71.7 -317.6,206.8 -33.3,135.2 -251.3,-46.8 -251.3,-46.8"
         style="fill:#182c4c;fill-opacity:1;fill-rule:nonzero;stroke:none"
         id="path106" /><path
         d="m 19225.5,10632.4 c 0,0 390.2,-152.7 431.2,-65 5.9,35.3 10.7,67.6 14.4,96.4 13.5,104.1 14,163.3 14,163.3 l -257.5,207.6 -57.7,46.5 c 1.6,-49.2 -1.4,-94.9 -7.9,-136.9 -0.5,-3.3 -1,-6.7 -1.5,-9.9 -41.9,-249.8 -135,-302 -135,-302"
         style="fill:#ffb27d;fill-opacity:1;fill-rule:nonzero;stroke:none"
         id="path108" /><path
         d="m 19358.4,10938.2 c 0,0 0.7,-1.3 2.1,-3.8 16.2,-29.1 127.2,-216.8 310.6,-270.6 13.5,104.1 14,163.3 14,163.3 l -257.5,207.6 c -33.9,-39.9 -57.1,-76.4 -65.6,-90.4 -2.4,-4 -3.6,-6.1 -3.6,-6.1"
         style="fill:#e8945b;fill-opacity:1;fill-rule:nonzero;stroke:none"
         id="path110" /><path
         d="m 19759.4,10832.9 c 0,0 -401.1,-66.6 -438.7,183.8 -37.7,250.4 -114.8,410.4 139.7,463.5 254.4,53.2 318.7,-34.9 351.6,-115.4 32.9,-80.5 50.7,-508.1 -52.6,-531.9"
         style="fill:#ffb27d;fill-opacity:1;fill-rule:nonzero;stroke:none"
         id="path112" /><path
         d="m 19394.1,11081.2 c 0,0 -53.3,53.8 -22.6,87.7 30.7,33.9 48.4,-17.7 72.6,-16.1 24.2,1.6 67.8,72.6 71,137.1 3.3,64.6 236.2,-33.9 329.8,-3.3 93.6,30.7 175.6,155.8 29.3,223.3 -86,39.6 -515.8,243.7 -679,36.6 -207.9,-264 69.8,-540.6 106.9,-582.5 37.1,-42 58.4,-29.6 58.4,-29.6 0,0 65.4,88.6 33.6,146.8"
         style="fill:#2c3a64;fill-opacity:1;fill-rule:nonzero;stroke:none"
         id="path114" /><path
         d="m 19186.5,11522.3 c 1.2,19.4 5.4,70.5 22.6,101.7 0,0 -1.1,-52.7 6.4,-79.6 7.5,-26.9 -29,-22.1 -29,-22.1"
         style="fill:#2c3a64;fill-opacity:1;fill-rule:nonzero;stroke:none"
         id="path116" /><path
         d="m 19144,11565.3 c 0,0 50.6,-5.4 53.8,-45.2 l -18.4,-23.7 c 0,0 3.3,50.6 -35.4,68.9"
         style="fill:#2c3a64;fill-opacity:1;fill-rule:nonzero;stroke:none"
         id="path118" /><path
         d="m 18773.4,4981.3 c 0,0 -23.8,-227.8 26.3,-252.2 21.2,-10.4 671.5,-3.7 671.5,-3.7 0,0 -26,81.4 -128.9,95.9 -102.9,14.5 -284.3,71.7 -317.6,206.8 -33.3,135.2 -251.3,-46.8 -251.3,-46.8"
         style="fill:#233862;fill-opacity:1;fill-rule:nonzero;stroke:none"
         id="path120" /><path
         d="m 19081.9,8393.5 c 0,0 0.5,-24.4 1.4,-68.3 6.1,-283.1 30.3,-1377.7 53.3,-1987.9 1,-22.2 1.8,-43.7 2.6,-64.6 0.4,-11 0.9,-22.1 1.3,-33.1 13.8,-295 53.8,-583.9 94.2,-814.9 51.6,-294.7 103.9,-495.3 103.9,-495.3 196.6,-39.8 324,34.9 324,34.9 0,0 53,457.3 73.1,734.1 6.7,89.8 39,396.2 79.6,768.9 31.5,288.3 67.9,616.2 101.3,914.5 1.8,15.8 3.5,31.7 5.3,47.4 53.9,482.2 98.6,875 98.6,875 l -347.6,33 -591,56.3"
         style="fill:#2b478b;fill-opacity:1;fill-rule:nonzero;stroke:none"
         id="path122" /><path
         d="m 19234.7,5424.7 580.6,1042.6 c 31.5,288.3 67.9,616.2 101.3,914.5 1.8,15.8 3.5,31.7 5.3,47.4 53.9,482.2 98.6,875 98.6,875 l -347.6,33 -589.6,-12 151.4,-2900.5"
         style="fill:#233862;fill-opacity:1;fill-rule:nonzero;stroke:none"
         id="path124" /><path
         d="m 19956.2,8301.5 c 0,0 -324.8,-1605.8 -589.5,-2380.8 -264.7,-775.1 -268,-990.4 -268,-990.4 0,0 -242.9,-52.6 -349.9,8.5 0,0 -61.2,1469.2 99,1859.5 105.9,258.1 187,807.4 159.4,1005.2 -27.5,197.8 -53.2,594.6 -53.2,594.6 l 1002.2,-96.6"
         style="fill:#2b478b;fill-opacity:1;fill-rule:nonzero;stroke:none"
         id="path126" /><path
         d="m 19040.4,8215.7 c 76.8,-54.4 197.8,-74 331,-72 155.7,2.5 327.9,34.7 465.6,75.9 74.1,22.1 138.1,46.8 184.3,70.9 205.7,107.3 43.7,1716.3 -229.6,2153.2 -125.2,200.2 -504.8,261.9 -504.8,261.9 -61.4,-29.4 -229.1,-349.3 -239.4,-570.4 -11.5,-245.5 10.8,-555.2 10.8,-837.5 0,-233.5 -44.1,-439.9 -76.2,-611 -41.5,-222.3 -62.9,-385.1 58.3,-471"
         style="fill:#b64c41;fill-opacity:1;fill-rule:nonzero;stroke:none"
         id="path128" /><path
         d="m 19371.4,8143.7 c 155.7,2.5 327.9,34.7 465.6,75.9 58,138.7 83.4,370.2 29.8,752.5 -40.8,291.4 -338.3,1463.6 -338.3,1463.6 -240.2,31.3 -727.2,-1646.3 -157.1,-2292"
         style="fill:#963333;fill-opacity:1;fill-rule:nonzero;stroke:none"
         id="path130" /><path
         d="m 19304.4,7565.5 c -1.5,59.9 28.2,115.6 78.4,148.3 81.4,53.1 220.2,115.8 411,103.6 322.1,-20.4 393.6,-199.3 403.9,-337.4 10.2,-138 117.5,-337.3 143.1,-490.7 25.6,-153.4 68.3,-543.5 -159.9,-574.1 -228.1,-30.7 -992.6,0 -992.6,0 0,0 -178.2,208.8 0,609.9 105.6,237.9 118.9,435.9 116.1,540.4"
         style="fill:#d37129;fill-opacity:1;fill-rule:nonzero;stroke:none"
         id="path132" /><path
         d="m 19403.2,7771.8 61.1,10.5 c 0,0.1 -2.5,55.5 19.1,97.1 16.6,32 44.1,49.9 81.8,52.9 35.7,2.9 64.1,-10.3 82.4,-39.5 25.8,-41.1 26.4,-103.7 26.4,-104.3 l 61.4,-0.4 c 0,4.3 -0.1,106.2 -44.9,178.7 -30.9,50.1 -74.1,71.5 -128.2,69 -55.5,-4.6 -97.9,-34.8 -125.9,-89.8 -38.7,-75.9 -33.4,-170.3 -33.2,-174.2"
         style="fill:#d37129;fill-opacity:1;fill-rule:nonzero;stroke:none"
         id="path134" /><path
         d="m 19032.5,6415.5 c 0,0 764.7,-31.1 992.9,0 228.2,30.2 185.7,420.4 159.5,574.1 -25.3,153 -132.5,352.6 -143.1,490.8 -1.7,26.2 -5.7,54.8 -13.9,82.6 -32.7,117.8 -130.1,238 -389.4,254.4 -191.4,12.3 -329.6,-50.7 -411.4,-103.9 -49.9,-32.7 -80.1,-88.3 -78.5,-148 0,-12.3 0.8,-27 0.8,-41.7 -1.6,-112.1 -23.7,-290.4 -116.9,-499 -178.4,-400.7 0,-609.3 0,-609.3"
         style="fill:#f1a34f;fill-opacity:1;fill-rule:nonzero;stroke:none"
         id="path136" /><g
         id="g138"><g
           id="g140"
           clip-path="url(#clipPath144)"><path
             d="m 19595.9,6588.3 h 494 v 344.801 h -494 z"
             style="fill:#e78b37;fill-opacity:1;fill-rule:nonzero;stroke:none"
             id="path146" /></g></g><path
         d="m 20083.3,6933.1 c 0,0 -78.4,-119.3 -221.5,-115.9 -143.2,3.4 -235.2,115.9 -235.2,115.9 h 456.7"
         style="fill:#d37129;fill-opacity:1;fill-rule:nonzero;stroke:none"
         id="path148" /><path
         d="m 19286.6,6588.3 c -7.1,0 -14.4,0.2 -21.9,0.5 -218.1,10.3 -187.5,344.3 -187.5,344.3 h 456.7 c 6.6,-207.4 -47.2,-344.8 -247.3,-344.8"
         style="fill:#e78b37;fill-opacity:1;fill-rule:nonzero;stroke:none"
         id="path150" /><path
         d="m 19533.9,6933.1 c 0,0 -78.4,-119.3 -221.5,-115.9 -143.1,3.4 -235.2,115.9 -235.2,115.9 h 456.7"
         style="fill:#d37129;fill-opacity:1;fill-rule:nonzero;stroke:none"
         id="path152" /><path
         d="m 19554.7,7297.8 c -185,0 -323.1,123.1 -405.3,226 v 0 0 c 0,14.7 -0.8,29.4 -0.8,41.7 -0.1,1.6 -0.1,3.2 -0.1,4.9 0.1,57.8 30.1,111.3 78.6,143.1 74.8,48.6 196.8,105.4 363.4,105.4 15.6,0 31.6,-0.5 48,-1.5 259.3,-16.4 356.7,-136.6 389.4,-254.4 0,0 -131.7,-255.2 -458.9,-265 -4.8,-0.2 -9.5,-0.2 -14.3,-0.2"
         style="fill:#e78b37;fill-opacity:1;fill-rule:nonzero;stroke:none"
         id="path154" /><path
         d="m 19579.4,7231.3 v 0 c 20.7,0 37.5,16.9 37.5,37.5 v 34.1 c 0,20.6 -16.8,37.5 -37.5,37.5 -20.6,0 -37.4,-16.9 -37.4,-37.5 v -34.1 c 0,-20.6 16.8,-37.5 37.4,-37.5"
         style="fill:#d86713;fill-opacity:1;fill-rule:nonzero;stroke:none"
         id="path156" /><path
         d="m 19624.3,8137.9 c 0,0 99.3,-191.5 49.6,-265.9 -49.6,-74.5 -226.9,21.2 -241.1,63.8 -14.2,42.5 0,248.2 0,248.2 l 191.5,-46.1"
         style="fill:#da935b;fill-opacity:1;fill-rule:nonzero;stroke:none"
         id="path158" /><path
         d="m 19640.2,8143.6 c 0,0 44.7,-42 47.6,-73.7 3,-31.8 38.1,-101.5 29,-107.9 -29.4,-20.6 -76.6,64.5 -76.6,64.5 l -16.6,93.9 16.6,23.2"
         style="fill:#da935b;fill-opacity:1;fill-rule:nonzero;stroke:none"
         id="path160" /><path
         d="m 19116.3,10058.7 c 0,0 46.8,-666.7 46.2,-942.6 -0.6,-275.8 218.9,-1009.5 218.9,-1009.5 0,0 145.2,-11.6 202.2,-4.3 65.7,8.5 104.8,38.6 104.8,38.6 0,0 -48.2,866.9 43.8,1199.1 92,332.3 96.8,999.6 96.8,999.6 0,0 -51.1,144 -356.9,98.6 -362.9,-54 -355.8,-379.5 -355.8,-379.5"
         style="fill:#b64c41;fill-opacity:1;fill-rule:nonzero;stroke:none"
         id="path162" /><path
         d="m 10124.6,10844.8 c 0,0 -283.53,149.3 -689.86,179.1 -217.94,16 -419.24,-118.4 -487.59,-325.9 -3.95,-12 -7.72,-24.4 -11.3,-37.3 -95.45,-343.3 -43.38,-1382.6 277.67,-1653.7 321.06,-271.1 911.08,-156.7 911.08,-156.7 v 1994.5"
         style="fill:#233862;fill-opacity:1;fill-rule:nonzero;stroke:none"
         id="path164" /><path
         d="m 11009.8,8422.7 c 0,0 -34.4,-429.6 -74.9,-946 -55,-701.5 -264.4,-2449.4 -264.4,-2449.4 0,0 44.4,-69.7 -171,-24.3 0,0 -264,595.4 -318.9,1280.2 -0.8,11.2 -1.7,22.5 -2.5,33.9 -51,697.1 -130.4,2165.1 -130.4,2165.1 l 962.1,-59.5"
         style="fill:#2b478b;fill-opacity:1;fill-rule:nonzero;stroke:none"
         id="path166" /><path
         d="m 11021.6,8571.1 c 0,0 -46.2,-578 -86.7,-1094.4 l -754.3,-1193.5 c -0.8,11.2 -1.7,22.5 -2.5,33.9 -51,697.1 -130.4,2165.1 -130.4,2165.1 l 973.9,88.9"
         style="fill:#233862;fill-opacity:1;fill-rule:nonzero;stroke:none"
         id="path168" /><path
         d="M 10853.3,8679.9 9556.84,4949.7 c 0,0 -135.57,25.5 -165.99,85.5 0,0 -37.28,1577.5 182.34,1958.1 124.1,215.1 187.29,817.9 195.92,1022 25.63,606.5 89.98,770.8 89.98,770.8 l 994.21,-106.2"
         style="fill:#2b478b;fill-opacity:1;fill-rule:nonzero;stroke:none"
         id="path170" /><path
         d="m 10468.6,4721.8 h 105.5 c 35.4,5.6 61.5,15.8 97.8,20.5 55,7.3 80.4,-15.3 85.4,-20.5 l 1,-1 h 448.4 c 11.3,16.1 0.4,53.4 -10.2,80.8 -7.1,18.7 -22.7,32.8 -41.9,38.4 -47.6,13.8 -141.3,26 -227.2,103.7 -48.3,43.7 -233.2,160.5 -233.2,160.5 l -1,0.2 c -4,0 -23.4,-6 -107.5,-77 -43.5,-36.6 -117.6,51.8 -117.6,51.8 0,0 -13.9,-11.5 -24.3,-33 -8.3,-16.9 -14.4,-40.2 -9.6,-68.8 6.7,-40.4 -14.9,-115.5 -32.1,-166.3 -10.5,-30.8 -19.3,-52.6 -19.3,-52.6 0,0 -5,-25.3 85.8,-36.7"
         style="fill:#233862;fill-opacity:1;fill-rule:nonzero;stroke:none"
         id="path172" /><path
         d="m 10468.8,4720.3 h 105.1 c 35.3,5.6 61.7,17.3 98,22 55,7.3 80.4,-15.3 85.4,-20.5 l 1,-1 h 448.4 c 11.3,16.1 0.4,53.4 -10.2,80.8 -13.6,12.1 -17.4,-52.6 -24.9,-62.9 -7.6,-10.3 -365.8,-3.7 -386.5,11.3 -20.7,15.1 -82.8,41.4 -169.3,20.7 -75.3,-18 -186.3,28.1 -213.7,40.4 -10.5,-30.8 -19.3,-52.6 -19.3,-52.6 0,0 -4.8,-26.8 86,-38.2"
         style="fill:#233862;fill-opacity:1;fill-rule:nonzero;stroke:none"
         id="path174" /><path
         d="m 9390.77,4721.8 h 105.55 c 35.36,5.6 61.47,15.8 97.73,20.5 55.07,7.3 80.42,-15.3 85.47,-20.5 l 0.97,-1 h 448.41 c 11.3,16.1 0.4,53.4 -10.2,80.8 -7.1,18.7 -22.7,32.8 -42,38.4 -47.5,13.8 -141.24,26 -227.08,103.7 -48.3,43.7 -233.22,160.5 -233.22,160.5 l -0.98,0.2 c -4.06,0 -23.4,-6 -107.51,-77 -43.49,-36.6 -117.59,51.8 -117.59,51.8 0,0 -13.92,-11.5 -24.3,-33 -8.35,-16.9 -14.45,-40.2 -9.63,-68.8 6.7,-40.4 -14.9,-115.5 -32.12,-166.3 -10.46,-30.8 -19.27,-52.6 -19.27,-52.6 0,0 -5.03,-25.3 85.77,-36.7"
         style="fill:#233862;fill-opacity:1;fill-rule:nonzero;stroke:none"
         id="path176" /><path
         d="m 9390.96,4720.3 h 105.11 c 35.36,5.6 61.72,17.3 97.98,22 55.07,7.3 80.42,-15.3 85.47,-20.5 l 0.97,-1 h 448.41 c 11.3,16.1 0.4,53.4 -10.2,80.8 -13.6,12.1 -17.4,-52.6 -24.9,-62.9 -7.6,-10.3 -365.84,-3.7 -386.52,11.3 -20.69,15.1 -82.76,41.4 -169.28,20.7 -75.3,-18 -186.28,28.1 -213.73,40.4 -10.46,-30.8 -19.27,-52.6 -19.27,-52.6 0,0 -4.84,-26.8 85.96,-38.2"
         style="fill:#233862;fill-opacity:1;fill-rule:nonzero;stroke:none"
         id="path178" /><path
         d="m 10056.5,10904.6 c 0,0 420.1,-206.8 662.9,-130.1 0,0 -59.7,76.3 -163.9,133.6 5.9,35.4 10.7,67.7 14.4,96.5 13.5,104 14,163.3 14,163.3 l -257.5,207.5 -57.7,46.6 c 1.6,-49.3 -1.4,-94.9 -7.9,-136.9 -0.5,-3.4 -1,-6.7 -1.5,-9.9 -41.9,-249.8 -202.8,-370.6 -202.8,-370.6"
         style="fill:#ffb27d;fill-opacity:1;fill-rule:nonzero;stroke:none"
         id="path180" /><path
         d="m 9816.73,8705.1 c -1.24,-26.8 53.88,-56.2 77.81,-66.9 106.26,-47.6 208.16,-86.7 312.76,-114.4 72.9,-19.5 147.2,-33.4 225.1,-40.9 224.9,-23 490.8,27.6 582,26.4 9.7,0 18.2,3.7 25.5,9.7 6.1,4.9 10.9,279.7 6.1,626.2 0,13.3 0,28 -1.2,41.4 v 4.8 c -1.2,135 -6.1,277.2 -12.2,418.3 -13.4,311.2 -37.6,611.6 -79.1,778.2 -48.6,195.7 -232.5,440.8 -354.6,507.9 -103.4,56.8 -443.2,116.3 -460.2,104.2 -199.38,-149 -309.31,-589.7 -307.45,-1090.1 0.07,-15.8 0.21,-31.7 0.42,-47.6 0.9,-51.7 2.77,-104 5.74,-156.5 21.72,-369.2 -0.55,-689.3 -13.28,-875.4 -3.66,-53.5 -6.57,-96 -7.4,-125.3"
         style="fill:#f99746;fill-opacity:1;fill-rule:nonzero;stroke:none"
         id="path182" /><path
         d="m 10257.2,11279 c 0,0 0.7,-1.3 2.1,-3.8 16.2,-29.2 127.2,-216.8 310.6,-270.6 13.5,104 14,163.3 14,163.3 l -257.5,207.5 c -33.9,-39.8 -57.1,-76.3 -65.6,-90.3 -2.4,-4 -3.6,-6.1 -3.6,-6.1"
         style="fill:#e8945b;fill-opacity:1;fill-rule:nonzero;stroke:none"
         id="path184" /><path
         d="m 10658.2,11173.7 c 0,0 -401.1,-66.6 -438.7,183.7 -37.7,250.5 -114.8,410.5 139.7,463.6 254.5,53.1 318.7,-34.9 351.6,-115.4 32.9,-80.5 50.7,-508.1 -52.6,-531.9"
         style="fill:#ffb27d;fill-opacity:1;fill-rule:nonzero;stroke:none"
         id="path186" /><path
         d="m 10292.9,11422 c 0,0 -53.2,53.8 -22.6,87.7 30.7,33.9 48.4,-17.8 72.6,-16.2 24.2,1.7 67.8,72.7 71.1,137.2 3.2,64.6 236.1,-33.9 329.7,-3.3 93.6,30.7 175.6,155.8 29.3,223.2 -86,39.7 -515.8,243.8 -679,36.7 -207.93,-264 69.8,-540.6 106.9,-582.6 37.2,-41.9 58.4,-29.5 58.4,-29.5 0,0 65.5,88.6 33.6,146.8"
         style="fill:#2c3a64;fill-opacity:1;fill-rule:nonzero;stroke:none"
         id="path188" /><path
         d="m 10085.3,11863.1 c 1.2,19.3 5.4,70.5 22.6,101.7 0,0 -1.1,-52.8 6.4,-79.7 7.6,-26.9 -29,-22 -29,-22"
         style="fill:#2c3a64;fill-opacity:1;fill-rule:nonzero;stroke:none"
         id="path190" /><path
         d="m 10042.8,11906.1 c 0,0 50.6,-5.5 53.8,-45.3 l -18.3,-23.6 c 0,0 3.2,50.5 -35.5,68.9"
         style="fill:#2c3a64;fill-opacity:1;fill-rule:nonzero;stroke:none"
         id="path192" /><path
         d="m 9822.92,9636.6 -12.42,76.5 c 185.9,30.2 336.3,119.5 447.1,265.5 83.6,110.2 142.4,254.6 161.5,396.1 36.8,274.2 -35.3,430.3 -220.7,477.2 -166,42 -357.84,-87.7 -359.75,-89 l -43.91,63.8 c 8.99,6.2 222.36,151 422.66,100.3 156.2,-39.5 331.3,-169.2 278.4,-562.6 -12.2,-90.7 -51.3,-267.6 -176.5,-432.6 -123.2,-162.4 -290.2,-261.7 -496.38,-295.2"
         style="fill:#233862;fill-opacity:1;fill-rule:nonzero;stroke:none"
         id="path194" /><path
         d="m 10554.5,9180 c 0,0 53,26.9 81.9,39.9 28.9,13 85.3,47.7 89.6,23.1 4.3,-24.6 27.4,-72.2 -26,-80.9 -53.5,-8.7 -145.5,17.9 -145.5,17.9"
         style="fill:#ffb27d;fill-opacity:1;fill-rule:nonzero;stroke:none"
         id="path196" /><path
         d="m 10866.5,9368.1 36.6,-10.9 c 18.3,-5.4 37.7,5.1 43.1,23.4 l 6.9,23.1 c 5.4,18.3 -5.1,37.6 -23.4,43.1 l -36.6,10.8 c -18.3,5.5 -37.7,-5 -43.1,-23.3 l -6.9,-23.1 c -5.4,-18.3 5.1,-37.7 23.4,-43.1"
         style="fill:#415da5;fill-opacity:1;fill-rule:nonzero;stroke:none"
         id="path198" /><path
         d="m 10744.1,9389.6 -129.7,-436.9 c -8.8,-29.6 8.2,-61 37.8,-69.7 l 165.7,-49.3 c 29.6,-8.8 61,8.3 69.8,37.8 l 129.7,436.9 c 8.8,29.6 -8.2,61 -37.8,69.8 l -165.8,49.2 c -29.5,8.8 -60.9,-8.2 -69.7,-37.8"
         style="fill:#cadeff;fill-opacity:1;fill-rule:nonzero;stroke:none"
         id="path200" /><path
         d="m 10738.8,9371.9 -124.4,-419.2 c -8.8,-29.6 8.2,-61 37.8,-69.7 l 165.7,-49.3 c 29.6,-8.8 61,8.3 69.8,37.8 l 121.9,410.6 c -24.4,8.3 -80.8,25.2 -121.3,22.4 -39.6,-2.8 -113.9,43.5 -149.5,67.4"
         style="fill:#86b1fc;fill-opacity:1;fill-rule:nonzero;stroke:none"
         id="path202" /><path
         d="m 10645.7,9058.9 273.5,-81.3 81.3,274 -273.4,81.2 -81.4,-273.9"
         style="fill:#415da5;fill-opacity:1;fill-rule:nonzero;stroke:none"
         id="path204" /><path
         d="m 10799.5,9190.5 c -74.4,18.7 -141.4,-26.9 -245,-10.5 0,0 -513,359.8 -602.92,449.7 -65.06,65.1 196.02,358.6 332.02,586.5 -7,1 -14,3.4 -20.6,7.3 -104,61.6 -312.9,173.5 -485.38,191.2 -6.58,0.6 -12.71,2.4 -18.26,5 -110.48,-238.6 -224.15,-547 -258.72,-859.7 -4.39,-39.7 11.29,-78.9 41.48,-105 126.49,-109.3 473.28,-302.9 890.18,-422.9 0,0 93.3,-62.8 182.1,-79.4 89.3,-16.7 126.3,32.9 256.1,-41.8 59.8,-34.4 78.6,38.9 71.2,76.9 -9.9,51.3 -59.2,182 -142.2,202.7"
         style="fill:#ffb27d;fill-opacity:1;fill-rule:nonzero;stroke:none"
         id="path206" /><path
         d="m 9998.14,10838.3 c 0,0 -212.21,-207.4 -312.38,-500.2 0,0 198.95,-173.3 571.44,-208 0,0 152.9,281.3 41.1,423.8 -111.7,142.5 -300.16,284.4 -300.16,284.4"
         style="fill:#f99746;fill-opacity:1;fill-rule:nonzero;stroke:none"
         id="path208" /><path
         d="m 7267.83,9702.5 c 0,0 -11.49,-543.9 15.18,-702.5 26.67,-158.7 -34.94,-896.7 -34.94,-896.7 l -127.32,15.9 c 0,0 -318.75,1205.6 -286.19,1360.3 32.56,154.8 433.27,223 433.27,223"
         style="fill:#ffb27d;fill-opacity:1;fill-rule:nonzero;stroke:none"
         id="path210" /><path
         d="m 7248.07,8103.3 c 0,0 49.16,-165.1 37.43,-196.7 -11.73,-31.5 -74.36,-97.4 -125.99,-137.6 -51.64,-40.1 -6.15,105.7 3.67,153 9.82,47.3 -66.23,50.6 -54.33,123.9 11.9,73.3 11.9,73.3 11.9,73.3 l 127.32,-15.9"
         style="fill:#ffb27d;fill-opacity:1;fill-rule:nonzero;stroke:none"
         id="path212" /><path
         d="m 7108.85,8045.9 c 0,0 0.32,-136.6 -1.13,-163.6 -1.45,-27 26.88,-2.4 30.83,21.4 3.96,23.8 28.35,63.4 40.42,66.8 12.07,3.3 -70.12,75.4 -70.12,75.4"
         style="fill:#ffb27d;fill-opacity:1;fill-rule:nonzero;stroke:none"
         id="path214" /><path
         d="m 6328.7,6006.7 c 45.78,-461 211.32,-1169.3 211.32,-1169.3 l 128.58,92.7 c 0,0 226.46,1589.5 263.42,1718.7 256.86,898.3 286.16,1780.7 286.16,1780.7 l -751.57,221.8 c -76.64,-128.8 -136.09,-340.7 -117.98,-580.4 79,-1045.9 -74.77,-1512.1 -19.93,-2064.2"
         style="fill:#233862;fill-opacity:1;fill-rule:nonzero;stroke:none"
         id="path216" /><path
         d="m 5569.29,8080.5 c 0,0 -2.56,-51.4 -41.57,-101.2 -8.83,-11.3 -34.68,-41.1 -44.31,-30.5 -9.63,10.6 26.97,90.7 5.3,139.9 -7.76,17.7 80.58,-8.2 80.58,-8.2"
         style="fill:#ffb27d;fill-opacity:1;fill-rule:nonzero;stroke:none"
         id="path218" /><path
         d="m 7090.06,4791.5 c -5.77,15.1 -18.35,26.5 -33.91,31 -38.42,11.1 -114.15,21.1 -183.49,83.8 -39.03,35.3 -188.42,129.7 -188.42,129.7 l -0.79,0.2 c -3.28,-0.1 -18.9,-4.9 -86.85,-62.3 -35.14,-29.6 -95,41.8 -95,41.8 0,0 -11.25,-9.3 -19.63,-26.6 -6.75,-13.7 -11.67,-32.4 -7.78,-55.6 5.4,-32.6 -12.04,-93.3 -25.96,-134.3 -8.44,-24.9 -15.55,-42.5 -15.55,-42.5 0,0 -4.08,-20.5 69.28,-29.7 h 85.28 c 28.56,4.5 49.65,12.8 78.95,16.6 44.49,5.9 64.97,-12.4 69.04,-16.6 l 0.8,-0.8 h 362.24 c 9.11,13 0.36,43.1 -8.21,65.3"
         style="fill:#37598c;fill-opacity:1;fill-rule:nonzero;stroke:none"
         id="path220" /><path
         d="m 5907.15,6041.1 c 45.78,-460.9 201.37,-1184.3 201.37,-1184.3 l 113.65,-36.7 c 0,0 251.35,1733.9 288.3,1863.2 256.86,898.2 296.61,1964.7 296.61,1964.7 l -762.03,37.8 c -76.63,-128.9 -136.08,-340.7 -117.97,-580.4 79,-1045.9 -74.77,-1512.1 -19.93,-2064.3"
         style="fill:#2b478b;fill-opacity:1;fill-rule:nonzero;stroke:none"
         id="path222" /><path
         d="m 6660.63,4791.5 c -5.78,15.1 -18.36,26.5 -33.92,31 -38.41,11.1 -114.15,21.1 -183.49,83.8 -39.03,35.3 -188.42,129.7 -188.42,129.7 l -0.79,0.2 c -3.28,-0.1 -18.9,-4.9 -86.85,-62.3 -35.13,-29.6 -91.9,43.7 -91.9,43.7 0,0 -14.35,-11.2 -22.73,-28.5 -6.75,-13.7 -11.67,-32.4 -7.78,-55.6 5.41,-32.6 -12.04,-93.3 -25.96,-134.3 -8.44,-24.9 -15.56,-42.5 -15.56,-42.5 0,0 -4.06,-20.5 69.29,-29.7 h 85.28 c 28.56,4.5 49.65,12.8 78.95,16.6 44.49,5.9 64.97,-12.4 69.05,-16.6 l 0.79,-0.8 h 362.24 c 9.11,13 0.36,43.1 -8.2,65.3"
         style="fill:#466aa5;fill-opacity:1;fill-rule:nonzero;stroke:none"
         id="path224" /><path
         d="m 4172.69,4906.6 c 28.95,-65.7 -2.43,-141.8 -70.09,-169.9 -67.66,-28.2 -145.98,2.3 -174.93,68 -28.95,65.8 2.43,141.8 70.09,170 67.66,28.1 145.97,-2.4 174.93,-68.1"
         style="fill:#1c468a;fill-opacity:1;fill-rule:nonzero;stroke:none"
         id="path226" /><path
         d="m 5128.58,4906.7 c 28.95,-65.7 -2.43,-141.8 -70.08,-169.9 -67.67,-28.1 -145.98,2.3 -174.94,68.1 -28.95,65.7 2.43,141.8 70.09,169.9 67.66,28.1 145.98,-2.4 174.93,-68.1"
         style="fill:#1c468a;fill-opacity:1;fill-rule:nonzero;stroke:none"
         id="path228" /><path
         d="m 3897.12,4922.6 189.49,-66.1 c 19.17,-6.7 39.4,-10 59.76,-9.8 l 1075.19,10.7 117.39,189.1 -1441.83,-123.9"
         style="fill:#dd772a;fill-opacity:1;fill-rule:nonzero;stroke:none"
         id="path230" /><path
         d="m 4507.76,7010.8 300.34,725.2 0.37,1.4 c 1.82,6.5 48.58,162.3 319.22,197.1 l 1.25,0.2 222.59,40.8 c 28.77,7.3 111.86,19.7 149.93,-11.5 16.87,-13.9 23.71,-35.5 20.89,-66.2 -5.59,-60.9 -205.47,-531.1 -338.45,-832.4 l 42.57,-17.7 c 34.17,77.3 333.99,758.5 342.02,846 4.21,45.9 -8.32,81.1 -37.24,104.8 -62.2,50.8 -178.4,23.7 -190.74,20.7 l -219.53,-40.1 C 4829.55,7941.3 4770,7770 4764.08,7750.4 l -299.3,-722.9 42.98,-16.7"
         style="fill:#dd772a;fill-opacity:1;fill-rule:nonzero;stroke:none"
         id="path232" /><path
         d="m 5084.06,7225.5 580.23,-112.7 c 0,0 169.19,-66.8 135.64,-354.9 -29.53,-253.4 -159.02,-1675.4 -159.02,-1675.4 0,0 -27.02,-295.9 -677.64,-210.1 l 120.79,2353.1"
         style="fill:#dd772a;fill-opacity:1;fill-rule:nonzero;stroke:none"
         id="path234" /><path
         d="M 5405.73,6834.3 5249.68,5241.8 c -6.35,-64.4 -29.87,-123.6 -66.02,-173.3 -66.89,-92.1 -176.99,-151.7 -300.46,-152.5 l -538.14,-3.2 -13.31,-0.1 -337.02,-2.1 c -33.92,-0.2 -66.64,4 -97.65,12 -7.28,1.9 -14.43,3.9 -21.5,6.2 -116.66,37.6 -206.43,129.8 -239.68,243.3 -14.15,48.3 -18.11,100.4 -9.54,153.8 l 244.38,1523.7 c 26.1,162.5 162.29,287.2 330.8,302.8 l 95.06,8.9 22.66,2 0.05,0.1 19.05,1.7 317.74,29.5 38.99,3.6 306.62,28.5 c 48.12,4.4 94.66,-0.2 138,-12.3 2.83,-0.8 5.68,-1.6 8.51,-2.5 l 17.72,-5.9 c 151.23,-54.7 256.31,-203 239.79,-371.7"
         style="fill:#f99746;fill-opacity:1;fill-rule:nonzero;stroke:none"
         id="path236" /><path
         d="M 5183.66,5068.5 C 5116.77,4976.4 5006.67,4916.8 4883.2,4916 l -538.14,-3.2 -13.31,-0.1 -337.02,-2.1 c -33.92,-0.2 -66.64,4 -97.65,12 -7.28,1.9 -14.43,3.9 -21.5,6.2 -116.66,37.6 -251.17,174.8 -253.08,320.4 0,0 1138.37,14.4 1376.3,-21.3 122.74,-18.4 159.47,-101.7 184.86,-159.4"
         style="fill:#ef8a3f;fill-opacity:1;fill-rule:nonzero;stroke:none"
         id="path238" /><path
         d="m 4338.36,7165.1 c -2.36,-1.4 -251.95,-149.1 -284.77,-278.9 -33.72,-133.5 -259.06,-1688.4 -261.31,-1704.1 -0.18,-1.2 -6.37,-151.5 121.9,-263.5 l -17.1,4 c -7.28,1.9 -14.43,3.9 -21.5,6.2 -120.48,116.2 -104.27,250.1 -103.43,256 9.27,64.2 227.8,1571.7 261.71,1706 29.76,117.7 205.72,235.1 262.74,270.5 l 22.66,2 0.05,0.1 19.05,1.7"
         style="fill:#dd772a;fill-opacity:1;fill-rule:nonzero;stroke:none"
         id="path240" /><path
         d="m 4695.09,7198.2 c -35.94,-23.5 -172.96,-124.7 -202.21,-311.5 -34.29,-219.1 -168.26,-1810.5 -169.6,-1826.6 l -0.1,-1.1 -0.36,-1.1 c -0.25,-0.8 -19.38,-86.7 35.75,-145 l -13.51,-0.1 -13.31,-0.1 c -52.78,62.5 -31.9,139.3 -28.64,150.1 4.17,49.2 135.68,1609.5 169.71,1826.8 25.22,161 127.23,261 183.28,305 l 38.99,3.6"
         style="fill:#dd772a;fill-opacity:1;fill-rule:nonzero;stroke:none"
         id="path242" /><path
         d="m 5165.93,7205.9 c -1.06,-0.6 -52.89,-29 -97.57,-78.3 -44.65,-49.3 -93.23,-125.1 -109.95,-232.1 -34.29,-218.9 -140.51,-1805 -141.59,-1821 l -0.06,-1.2 -0.39,-1.2 c -0.25,-0.8 -4.94,-97.8 50.19,-156.2 l -33.9,-0.2 c -42.14,53.3 -39.53,149.8 -36.01,161.2 3.4,50.7 107.65,1604.3 141.68,1821.6 32,204.4 171.66,298.1 201.38,315.9 2.83,-0.8 5.68,-1.6 8.51,-2.5 l 17.71,-6"
         style="fill:#dd772a;fill-opacity:1;fill-rule:nonzero;stroke:none"
         id="path244" /><path
         d="m 7228.61,8275.7 c -66.34,-77.5 -645.63,-62.6 -776.12,-33.6 -89.46,19.9 -158.58,114.3 -208.05,282.6 -16.3,-117.6 -53.05,-255.5 -135.23,-264 -134.65,-14 -190.36,9.2 -206.54,60.3 -2.67,8.3 24.73,363.8 48.42,721.2 16.41,246.5 31.09,494 33.06,629.3 0.23,17 0.23,32.1 0.11,45.4 -213.24,11.9 -297.16,2.4 -297.16,2.4 0,0 101.25,329 334.73,595.7 215.79,246.6 730.13,173.4 938.52,111.8 131.42,-38.8 255.44,-180 191.29,-478.7 -37.68,-175.8 16.07,-458 37.56,-873.8 20.69,-399.7 53.75,-781.9 39.41,-798.6"
         style="fill:#739af0;fill-opacity:1;fill-rule:nonzero;stroke:none"
         id="path246" /><path
         d="m 7068.58,10367.8 c 0,0 161.08,-131.3 253.54,-724.6 0,0 -52.01,-71.7 -206.12,-52.5 -154.11,19.3 -47.42,777.1 -47.42,777.1"
         style="fill:#739af0;fill-opacity:1;fill-rule:nonzero;stroke:none"
         id="path248" /><path
         d="m 6889.66,11400.9 c 0,0 -373.61,424.3 -557.24,141 0,0 -141.12,-63.2 -185.98,-307.7 -45.77,-249.4 124.38,-433.3 208.34,-384.3 53.84,31.4 97.9,-63.1 97.9,-63.1 l 436.98,614.1"
         style="fill:#233862;fill-opacity:1;fill-rule:nonzero;stroke:none"
         id="path250" /><path
         d="m 6370.68,11587.1 c 0,0 -54.02,193 -337.88,124.3 0,0 136.22,21 175.15,-30.6 0,0 -109.73,46.6 -176.41,3.2 -66.69,-43.4 -73.93,-183.4 -62.61,-225.7 11.31,-42.2 89.77,-166.7 139.39,-165.3 49.62,1.4 107.13,46.5 107.13,46.5 l 155.23,247.6"
         style="fill:#233862;fill-opacity:1;fill-rule:nonzero;stroke:none"
         id="path252" /><path
         d="m 6425.52,10491.5 c -7.67,42.2 34.47,116.3 27.07,351.4 l 18.28,-3 307.51,-52.1 c 0,0 7.18,-250 9.51,-340.7 1.9,-75.5 -368.21,-22.7 -362.37,44.4"
         style="fill:#ffb27d;fill-opacity:1;fill-rule:nonzero;stroke:none"
         id="path254" /><path
         d="m 6778.38,10787.8 c 0,0 2.73,-90.6 5.06,-181.3 -171.27,0.1 -273.08,147.9 -312.57,233.4 l 307.51,-52.1"
         style="fill:#e8945b;fill-opacity:1;fill-rule:nonzero;stroke:none"
         id="path256" /><path
         d="m 6438.36,10872.3 c 0,0 -93.63,139.2 -118.54,259.7 -17.78,86.1 17.33,408 340.84,370.8 0,0 93.84,-6.6 183.47,-63.6 71.27,-45.3 175.08,-144.5 70,-427.4 l -26.69,-95.4 -449.08,-44.1"
         style="fill:#233862;fill-opacity:1;fill-rule:nonzero;stroke:none"
         id="path258" /><path
         d="m 6837.92,10703.6 c 0,0 -404.7,-18 -412.01,234.2 -7.32,252.2 -64.48,419.7 193.6,441.9 258.09,22.1 311.11,-72.7 334.02,-156.3 22.92,-83.5 -10.52,-508.6 -115.61,-519.8"
         style="fill:#ffb27d;fill-opacity:1;fill-rule:nonzero;stroke:none"
         id="path260" /><path
         d="m 6803.75,11391 c 0,0 -102.61,-299 -271.51,-347.5 -168.91,-48.5 -243.98,-5 -243.98,-5 0,0 127.6,107.4 149.64,289.1 0,0 278.3,201.9 365.85,63.4"
         style="fill:#233862;fill-opacity:1;fill-rule:nonzero;stroke:none"
         id="path262" /><path
         d="m 6776.94,11366.2 c 0,0 84.64,-63.7 106.61,-127.4 21.98,-63.7 34.75,-195.6 73.15,-190 0,0 77.91,203.4 -19.12,314.5 -102.9,117.9 -160.64,2.9 -160.64,2.9"
         style="fill:#233862;fill-opacity:1;fill-rule:nonzero;stroke:none"
         id="path264" /><path
         d="m 6792.6,11356.6 c 0,0 -70.33,-312 -282.24,-417.2 0,0 209.36,196.3 221.88,401.4 12.52,205 60.36,15.8 60.36,15.8"
         style="fill:#233862;fill-opacity:1;fill-rule:nonzero;stroke:none"
         id="path266" /><path
         d="m 5475.27,8293.8 c 0,0 -101.19,-117.9 -112.14,-179.1 -10.95,-61.3 -5.2,-224.9 25.89,-230.7 33.23,-6.3 52.87,107.2 63.57,129.5 36.12,75.2 107.22,40 116.7,67 9.47,26.9 18.93,156.5 18.93,156.5 l -112.95,56.8"
         style="fill:#ffb27d;fill-opacity:1;fill-rule:nonzero;stroke:none"
         id="path268" /><path
         d="m 5817.55,9911.6 c 0,0 -273.46,-533.1 -288.87,-756.4 -15.41,-223.3 -53.41,-861.4 -53.41,-861.4 l 112.95,-56.8 c 0,0 234.37,841.2 248.68,968.4 15.95,142 479.69,612.6 479.69,612.6 l -499.04,93.6"
         style="fill:#ffb27d;fill-opacity:1;fill-rule:nonzero;stroke:none"
         id="path270" /><path
         d="m 6304.01,10116.6 h -408.36 l -208.57,-397.2 c 0,0 332.65,-275.3 663.98,-163.6 331.33,111.8 -47.05,560.8 -47.05,560.8"
         style="fill:#739af0;fill-opacity:1;fill-rule:nonzero;stroke:none"
         id="path272" /><path
         d="m 26744.4,5700.8 h 378.6 c 0,0 83.1,-13.6 117.3,-265.6 34.1,-252.1 133.7,-701.1 133.7,-701.1 h -502.1 l -127.5,966.7"
         style="fill:#163560;fill-opacity:1;fill-rule:nonzero;stroke:none"
         id="path274" /><path
         d="m 27000.4,4734.1 c -43.8,5.1 -2040.1,0 -2040.1,0 0,0 -80.8,11.4 -9,353.9 3.6,17.3 5.9,35.6 7.1,54.7 6.4,93.3 -10.2,204.6 -4.4,294.1 0,0 -25.6,286.8 356.9,263 382.5,-23.8 1079.9,-26.1 1342.8,1.2 263,27.3 322.8,-177.2 310.8,-305.6 -1.9,-20.6 -1.2,-51.7 1.2,-89.5 12.8,-197.5 71.5,-575.9 34.7,-571.8"
         style="fill:#1c468a;fill-opacity:1;fill-rule:nonzero;stroke:none"
         id="path276" /><path
         d="m 26408.3,5582.9 c -1.2,2.1 -132.2,213.5 -349.2,226.5 -219.3,13.2 -438.3,-202.2 -440.5,-204.3 l -47,47.1 c 9.7,9.7 241.9,238.6 491.5,223.6 252.4,-15.1 396.2,-248.6 402.2,-258.5 l -57,-34.4"
         style="fill:#1c468a;fill-opacity:1;fill-rule:nonzero;stroke:none"
         id="path278" /><path
         d="m 24675.4,6114 c -1.8,71.6 33.7,138.2 93.7,177.3 97.3,63.4 263.1,138.3 491.1,123.8 384.8,-24.4 470.3,-238.2 482.5,-403.1 12.3,-165 140.5,-403.2 171.1,-586.4 30.5,-183.3 81.6,-649.5 -191,-686 -272.6,-36.7 -1186.2,0 -1186.2,0 0,0 -212.8,249.4 0,728.7 126.3,284.3 142.1,520.9 138.8,645.7"
         style="fill:#5d8fe8;fill-opacity:1;fill-rule:nonzero;stroke:none"
         id="path280" /><path
         d="m 24489.5,6114 c -1.8,71.6 33.7,138.2 93.7,177.3 97.3,63.4 263.1,138.3 491.1,123.8 384.8,-24.4 470.3,-238.2 482.5,-403.1 12.3,-165 140.5,-403.2 171.1,-586.4 30.5,-183.3 81.5,-649.5 -191,-686 -272.6,-36.7 -1186.2,0 -1186.2,0 0,0 -212.8,249.4 0,728.7 126.3,284.3 142.1,520.9 138.8,645.7"
         style="fill:#739af0;fill-opacity:1;fill-rule:nonzero;stroke:none"
         id="path282" /><path
         d="m 25589.4,5358.4 h -545.7 c 0,0 -36.6,-399.1 224,-411.3 260.6,-12.2 329.9,154.7 321.7,411.3"
         style="fill:#5d8fe8;fill-opacity:1;fill-rule:nonzero;stroke:none"
         id="path284" /><path
         d="m 25589.4,5358.4 c 0,0 -93.6,-142.6 -264.7,-138.5 -171,4.1 -281,138.5 -281,138.5 h 545.7"
         style="fill:#739af0;fill-opacity:1;fill-rule:nonzero;stroke:none"
         id="path286" /><path
         d="m 24933,5358.4 h -545.7 c 0,0 -36.6,-399.1 224,-411.3 260.6,-12.2 329.8,154.7 321.7,411.3"
         style="fill:#5d8fe8;fill-opacity:1;fill-rule:nonzero;stroke:none"
         id="path288" /><path
         d="m 24933,5358.4 c 0,0 -93.7,-142.6 -264.7,-138.5 -171,4.1 -281,138.5 -281,138.5 h 545.7"
         style="fill:#739af0;fill-opacity:1;fill-rule:nonzero;stroke:none"
         id="path290" /><path
         d="m 24851.3,5666.8 h 290.2 c 134.4,0 244.3,110 244.3,244.4 0,134.4 -109.9,244.3 -244.3,244.3 h -290.2 c -134.3,0 -244.3,-109.9 -244.3,-244.3 0,-134.4 110,-244.4 244.3,-244.4"
         style="fill:#5d8fe8;fill-opacity:1;fill-rule:nonzero;stroke:none"
         id="path292" /><path
         d="m 25363.4,6175.4 c 0,0 -129.8,-197.5 -366.9,-191.9 -237.1,5.6 -389.5,191.9 -389.5,191.9 h 756.4"
         style="fill:#739af0;fill-opacity:1;fill-rule:nonzero;stroke:none"
         id="path294" /><path
         d="m 24793.5,6360.5 72.9,7.5 c 0,0.1 -2.9,39.3 22.8,68.8 19.9,22.6 52.8,35.3 97.9,37.4 42.6,2.1 76.5,-7.3 98.3,-28 30.9,-29.1 31.6,-73.4 31.6,-73.8 l 73.3,-0.3 c 0,3 0,75.2 -53.6,126.5 -36.8,35.5 -88.5,50.7 -153.2,48.9 -66.3,-3.3 -116.9,-24.6 -150.4,-63.6 -46.2,-53.7 -39.9,-120.6 -39.6,-123.4"
         style="fill:#739af0;fill-opacity:1;fill-rule:nonzero;stroke:none"
         id="path296" /><path
         d="m 23412.4,5023.4 c 0,0 17.6,-284.7 72.7,-288.8 7.3,-0.5 279.4,-0.5 279.4,-0.5 l 347.3,2 c 0,0 -2.3,83.7 -103.8,101.4 -101.5,17.7 -271.5,89 -333,223.2 -64.6,141.1 -262.6,-37.3 -262.6,-37.3"
         style="fill:#163560;fill-opacity:1;fill-rule:nonzero;stroke:none"
         id="path298" /><path
         d="m 23392.3,5003.7 c 0,0 105.6,-35.3 188,-35.3 92,0 175.5,25 175.5,25 0,0 19.9,192.2 129.3,615.7 57.3,222 139.2,507.4 255.7,862.1 322.2,980.2 420.1,1553.6 429.1,1607.9 0.5,2.9 0.6,4.3 0.6,4.3 l -1,0.5 -990.4,434.8 c 0,0 122.4,-1350.9 -33.7,-1869.5 -21.9,-72.4 -40.6,-156.9 -56.7,-248.4 -98.6,-563.2 -96.4,-1397.1 -96.4,-1397.1"
         style="fill:#f99746;fill-opacity:1;fill-rule:nonzero;stroke:none"
         id="path300" /><path
         d="m 23488.7,6400.8 396.4,-791.7 c 57.3,222 139.2,507.4 255.7,862.1 322.2,980.2 420.1,1553.6 429.1,1607.9 -0.1,1.6 -0.2,3.1 -0.4,4.8 l -990.4,434.8 c 0,0 122.4,-1350.9 -33.7,-1869.5 -21.9,-72.4 -40.6,-156.9 -56.7,-248.4"
         style="fill:#e58638;fill-opacity:1;fill-rule:nonzero;stroke:none"
         id="path302" /><path
         d="m 24185.9,5023.4 c 0,0 17.6,-284.7 72.7,-288.8 7.3,-0.5 279.4,-0.5 279.4,-0.5 l 347.3,2 c 0,0 -2.3,83.7 -103.8,101.4 -101.5,17.7 -271.4,89 -332.9,223.2 -64.7,141.1 -262.7,-37.3 -262.7,-37.3"
         style="fill:#163560;fill-opacity:1;fill-rule:nonzero;stroke:none"
         id="path304" /><path
         d="m 24747.4,8486.9 c 0,0 12.8,-875.4 -138.6,-1950.3 -151.5,-1074.8 -100.1,-1531.1 -100.1,-1531.1 0,0 -104.1,-33.7 -146.1,-37.1 -107,-8.8 -216.7,25 -216.7,25 0,0 -216.8,1075.3 -154.6,1613.3 62.1,538 -296.9,1846 -296.9,1846 l 1053,34.2"
         style="fill:#f99746;fill-opacity:1;fill-rule:nonzero;stroke:none"
         id="path306" /><path
         d="m 23947.2,10562.7 c 0,0 -501.9,-512.2 -526.8,-714.2 -24.9,-201.9 246.8,-517.8 246.8,-517.8 l 280,1232"
         style="fill:#5d8fe8;fill-opacity:1;fill-rule:nonzero;stroke:none"
         id="path308" /><path
         d="m 24045.1,10535.4 193.3,-126.7 279.3,52.1 c -3.8,22.5 -22.3,116 -39.1,200.6 -1,5 -2,10 -2.9,14.9 -14.4,72 -26.8,133.9 -26.8,133.9 l -260.9,115.1 -97.3,42.9 c 0.2,-1.5 7.5,-79.9 8.5,-91.4 18.3,-203.3 -54.1,-341.4 -54.1,-341.4"
         style="fill:#ffb27d;fill-opacity:1;fill-rule:nonzero;stroke:none"
         id="path310" /><path
         d="m 24446.2,10599.4 c -5.4,2.3 -316.1,115.8 -352.1,103.9 -35.9,-11.9 -105.3,-108.3 -105.3,-108.3 l 569.2,-111.4 c 0,0 -42.6,86.7 -111.8,115.8"
         style="fill:#5d8fe8;fill-opacity:1;fill-rule:nonzero;stroke:none"
         id="path312" /><path
         d="m 23555,8378.8 c 56.1,-255.9 989.7,-286.3 1230.4,-54 27.4,26.5 28.7,149.7 18.4,315.8 -20.2,324.5 -85.1,812.7 -87.6,1062.1 -1.2,120.4 -17.8,243.6 -39.8,355.5 -46.9,238.4 -118.4,425.5 -118.4,425.5 0,0 -456,147.4 -541.4,122.3 -411,-120.8 -517.7,-1971.3 -461.6,-2227.2"
         style="fill:#739af0;fill-opacity:1;fill-rule:nonzero;stroke:none"
         id="path314" /><path
         d="m 24803.8,8640.6 c -20.2,324.5 -85.1,812.7 -87.6,1062.1 -1.2,120.4 -17.8,243.6 -39.8,355.5 l -274.3,48.4 c 0,0 -268.2,-1095.5 401.7,-1466"
         style="fill:#5d8fe8;fill-opacity:1;fill-rule:nonzero;stroke:none"
         id="path316" /><path
         d="m 24118.8,10873.3 c 57.3,-97.1 270.8,-181 359.8,-211.9 -1,5 -2,10 -2.9,14.9 -14.4,72 -26.8,133.9 -26.8,133.9 l -260.9,115.1 c -57.7,0.8 -92.8,-12.1 -69.2,-52"
         style="fill:#fca56b;fill-opacity:1;fill-rule:nonzero;stroke:none"
         id="path318" /><path
         d="m 24547.2,10826.1 c 0,0 -420.2,-131.1 -497.9,131.8 -77.6,263 -184.1,423.2 81,518 265,94.8 347,9.9 394.2,-71.5 47.3,-81.5 130,-537.5 22.7,-578.3"
         style="fill:#ffb27d;fill-opacity:1;fill-rule:nonzero;stroke:none"
         id="path320" /><path
         d="m 24508,11429.7 c 0,0 -26.8,-306 -90.1,-292.7 -63.2,13.3 -120.6,23.1 -111.4,-69.1 9.3,-92.3 -0.1,-222.2 -195.1,-238.5 -195.1,-16.3 -378.3,510 -324.7,605.3 154.6,274.7 944.8,330.2 721.3,-5"
         style="fill:#163560;fill-opacity:1;fill-rule:nonzero;stroke:none"
         id="path322" /><path
         d="m 24679.5,9133.8 c 0,0 36.4,-79.7 68.9,-96.4 41.8,-21.4 69.7,-53.4 73.2,-67.4 11.7,-45.9 6.8,-131.5 -29.2,-177.3 -24.1,-30.5 1.5,106.4 -128,137.5 -41.8,10.1 -101.7,41.6 -102.1,100.1 -0.6,69.3 7.6,121.4 7.6,121.4 l 109.6,-17.9"
         style="fill:#ffb27d;fill-opacity:1;fill-rule:nonzero;stroke:none"
         id="path324" /><path
         d="m 24570.8,8994.1 c 0,0 64.6,-148.3 82.3,-142.6 44.5,14.4 -4.6,66.4 -1,108.3 2.4,28.1 -81.3,34.3 -81.3,34.3"
         style="fill:#ffb27d;fill-opacity:1;fill-rule:nonzero;stroke:none"
         id="path326" /><path
         d="m 24348.5,10549.3 c 0,0 267.5,-50 480.7,-364.2 213.2,-314.1 353.4,-547.7 314.1,-660.9 -39.2,-113.2 -302.7,-505.9 -364.4,-505.9 -61.7,0 -225.2,41.4 -230.8,142.4 0,0 176.4,391.2 150.6,461.9 -27.8,76 -306,248.4 -349.7,136.2 -72.2,-185.7 -0.5,790.5 -0.5,790.5"
         style="fill:#739af0;fill-opacity:1;fill-rule:nonzero;stroke:none"
         id="path328" /><path
         d="M 30821.5,4691.8 H 1400.86 c -15.69,0 -28.53,12.8 -28.53,28.5 0,15.7 12.84,28.5 28.53,28.5 H 30821.5 c 15.7,0 28.5,-12.8 28.5,-28.5 0,-15.7 -12.8,-28.5 -28.5,-28.5"
         style="fill:#2e3552;fill-opacity:1;fill-rule:nonzero;stroke:none"
         id="path330" /><path
         d="m 14946.5,8631.4 c 0,0 23.3,-27 36.7,-43.4 13.5,-16.3 29.9,-78.9 21.2,-89.5 -8.6,-10.6 -63.5,-26 -65.5,6.7 -1.9,32.8 7.6,126.2 7.6,126.2"
         style="fill:#ffb27d;fill-opacity:1;fill-rule:nonzero;stroke:none"
         id="path332" /><path
         d="m 16983.6,8888.9 c 0,0 50.3,-113.5 146.4,-136.5 117.4,-28 168.7,-175.5 168.7,-209.4 0,-33.8 -150.1,76.2 -209.4,78.3 -59.2,2.1 -90.9,-28.1 -131.1,50.4 -40.2,78.6 -91,154.8 -91,154.8 l 116.4,62.4"
         style="fill:#ffb27d;fill-opacity:1;fill-rule:nonzero;stroke:none"
         id="path334" /><path
         d="m 15483.6,8842.1 c 53.2,0 100.3,10.7 141.1,31.1 507.9,252.1 36.4,1984.2 36.4,1984.2 0,0 -20.8,86.1 -116.3,119.9 -35.2,12.5 -113.5,11 -206.8,17.8 -303.7,22.1 -318.8,-155.4 -329.4,-217.5 -11.6,-63.1 -253.1,-1932 475,-1935.5"
         style="fill:#2b478b;fill-opacity:1;fill-rule:nonzero;stroke:none"
         id="path336" /><path
         d="m 15624.7,8873.2 c 507.9,252.1 36.4,1984.2 36.4,1984.2 0,0 -23.9,78.2 -116.3,119.9 -196.2,-51.5 -237,-144.7 -247.7,-199.7 -9.7,-58.7 -217.5,-1663 327.6,-1904.4"
         style="fill:#233862;fill-opacity:1;fill-rule:nonzero;stroke:none"
         id="path338" /><path
         d="m 15999.2,5003.2 c 0,0 -28.2,-225.7 22.6,-251.1 50.8,-25.4 657.5,-17 657.5,-17 0,0 0,76.2 -104.4,93.2 -104.4,16.9 -287.8,79 -318.9,217.3 -31,138.3 -256.8,-42.4 -256.8,-42.4"
         style="fill:#233862;fill-opacity:1;fill-rule:nonzero;stroke:none"
         id="path340" /><path
         d="m 16548.1,8450.9 c 0,0 -34.3,-427.9 -74.6,-942.1 -54.8,-698.6 -120.7,-1556.7 -127.2,-1719.2 -11.3,-282.3 -56.5,-733.8 -56.5,-733.8 0,0 -107.2,-107.3 -321.7,-62.1 0,0 -191.2,644.6 -245.8,1326.5 -0.8,11.2 -1.7,22.5 -2.5,33.7 -50.8,694.3 -129.8,2156.2 -129.8,2156.2 l 958.1,-59.2"
         style="fill:#2b478b;fill-opacity:1;fill-rule:nonzero;stroke:none"
         id="path342" /><path
         d="m 16548.1,8450.9 c 0,0 -34.3,-427.9 -74.6,-942.1 l -751.2,-1188.6 c -0.8,11.2 -1.7,22.5 -2.5,33.7 -50.8,694.3 -129.8,2156.2 -129.8,2156.2 l 958.1,-59.2"
         style="fill:#233862;fill-opacity:1;fill-rule:nonzero;stroke:none"
         id="path344" /><path
         d="m 16391.5,8400.1 c 0,0 -618.1,-1549.4 -1024.5,-2277.6 -406.4,-728.1 -533.4,-931.3 -533.4,-931.3 0,0 -232.8,93.2 -254,156.7 0,0 155.4,1405.6 427.6,1748.3 153.8,193.6 334.4,774.7 342.9,977.9 8.4,203.2 55,605.4 55,605.4 l 986.4,-279.4"
         style="fill:#2b478b;fill-opacity:1;fill-rule:nonzero;stroke:none"
         id="path346" /><path
         d="m 16237.6,10666.4 c -241.6,-76.2 -659.4,129.6 -659.4,129.6 0,0 156.1,117.1 200.2,359.2 v 0.1 c 8.4,46.9 12.7,98.7 10.9,155.2 l 225.9,-182.1 87.7,-70.6 c 0,0 -0.3,-24 -4,-68 -3.6,-44.4 -10.6,-109.1 -24.4,-190.4 103.7,-57 163.1,-133 163.1,-133"
         style="fill:#ffb27d;fill-opacity:1;fill-rule:nonzero;stroke:none"
         id="path348" /><path
         d="m 16986.4,8749.9 c 53.8,44.3 64.7,78.5 64.7,78.5 0,0 -436.8,598.3 -473.6,656.7 -36.9,58.4 -312.2,995.2 -312.2,995.2 l -696.1,141 c 0,0 581.1,-1198.8 677.3,-1345 159.1,-241.4 658.8,-570.7 658.8,-570.7 0,0 41.5,11.7 81.1,44.3"
         style="fill:#ed7d2b;fill-opacity:1;fill-rule:nonzero;stroke:none"
         id="path350" /><path
         d="m 15358.4,8607.7 c -0.9,-14.2 15.1,-30.2 33.7,-42.6 15.1,-10.7 32.9,-18.7 43.5,-24 53.3,-24 105.7,-45.3 157.2,-63.9 123.4,-46.2 245,-77.2 377.3,-89.7 141.2,-14.2 298.3,0 418.2,11.5 67.4,8.1 122.5,14.3 156.2,14.3 h 4.5 c 9.7,0 18.6,3.5 25.7,9.7 5.3,3.6 9.8,214.9 7.1,499 0,40 -0.9,80.8 -0.9,123.4 0,13.3 0,28.4 -1.7,41.7 v 4.5 c -0.9,133.2 -5.4,274.3 -11.6,413.7 v 2.7 c -13.3,309.8 -37.3,608.1 -79,774.1 -37.8,153.3 -189.4,325.6 -301.5,438.2 -51.1,51.3 -113.8,89.2 -182.9,110.7 -119.6,37.4 -304.5,87.4 -343.1,54 -29.3,-23.1 -55.9,-52.4 -79.9,-87 -1.7,-0.9 -1.7,-0.9 -1.7,-1.8 h -0.9 c -19.6,-28.4 -38.2,-60.3 -55.1,-95.9 -27.5,-55.9 -50.6,-120.7 -71,-192.6 -54.2,-194.5 -80.8,-439.5 -79.9,-701.4 0,-66.6 1.8,-134.1 6.2,-202.4 0.9,-19.6 1.8,-38.2 2.7,-56.9 7.9,-169.6 7.1,-326.7 2.6,-464.3 v -4.4 c -4.4,-139.4 -12.4,-257.5 -18.6,-345.4 -3.6,-53.3 -6.2,-95.9 -7.1,-125.2"
         style="fill:#f99746;fill-opacity:1;fill-rule:nonzero;stroke:none"
         id="path352" /><path
         d="m 15365.4,8732.7 c 12.6,185.1 34.8,503.4 13.2,870.7 -3.9,68.4 -5.9,136.2 -6.2,203 82.7,200.5 150.2,345.8 150.2,345.8 h 208.2 c 0,0 152.7,-1042.9 -365.4,-1419.5"
         style="fill:#ed7d2b;fill-opacity:1;fill-rule:nonzero;stroke:none"
         id="path354" /><path
         d="m 16102.9,11057.8 c 0,0 -0.3,-24 -4,-68 -179.7,21 -315.9,160.5 -320.5,165.4 l -0.1,0.1 h 0.1 l 236.8,-26.9 87.7,-70.6"
         style="fill:#e8945b;fill-opacity:1;fill-rule:nonzero;stroke:none"
         id="path356" /><path
         d="m 16176.7,11063.6 c 0,0 -399,-66.3 -436.4,182.8 -37.5,249 -114.2,408.2 139,461.1 253.1,52.8 317,-34.8 349.7,-114.9 32.7,-80.1 50.5,-505.4 -52.3,-529"
         style="fill:#ffb27d;fill-opacity:1;fill-rule:nonzero;stroke:none"
         id="path358" /><path
         d="m 15740,11270.3 c 0,0 40.9,6.9 34.3,63.3 -6.6,56.3 -6.5,130 39.3,116.3 45.9,-13.7 48.1,-50.4 67,-29 18.8,21.4 19.2,111.7 155.6,118 136.4,6.3 191.8,-41.2 255.3,-13.3 63.4,27.9 66.8,123.9 66.8,123.9 0,0 -18.1,-34.2 -45.3,-45.1 0,0 105.8,144.7 -16.7,244 -122.6,99.2 -247.5,34.2 -318.4,29.9 -156.2,-9.4 -257.2,-18.8 -308.2,-121.4 -51,-102.7 -30,-387.8 70.3,-486.6"
         style="fill:#2b478b;fill-opacity:1;fill-rule:nonzero;stroke:none"
         id="path360" /><path
         d="m 13630.1,4955.2 c 33.3,-75.4 -2.8,-162.8 -80.4,-195 -77.7,-32.3 -167.6,2.7 -200.8,78.1 -33.2,75.4 2.8,162.7 80.5,195 77.6,32.3 167.5,-2.7 200.7,-78.1"
         style="fill:#1c468a;fill-opacity:1;fill-rule:nonzero;stroke:none"
         id="path362" /><path
         d="m 14727.2,4955.3 c 33.2,-75.4 -2.8,-162.7 -80.4,-195 -77.7,-32.3 -167.6,2.7 -200.8,78.1 -33.2,75.5 2.8,162.8 80.4,195.1 77.7,32.3 167.6,-2.7 200.8,-78.2"
         style="fill:#1c468a;fill-opacity:1;fill-rule:nonzero;stroke:none"
         id="path364" /><path
         d="m 13313.9,4973.6 217.4,-75.9 c 22,-7.6 45.3,-11.5 68.6,-11.2 l 1234,12.2 134.7,217 -1654.7,-142.1"
         style="fill:#dd772a;fill-opacity:1;fill-rule:nonzero;stroke:none"
         id="path366" /><path
         d="m 14014.7,7370.1 344.7,832.5 0.4,1.6 c 2.1,7.4 55.8,186.2 366.4,226.2 l 1.4,0.2 255.5,46.8 c 33,8.4 128.4,22.6 172.1,-13.2 19.3,-15.9 27.2,-40.8 23.9,-76 -6.4,-69.8 -235.8,-609.6 -388.4,-955.3 l 48.9,-20.4 c 39.2,88.8 383.3,870.6 392.5,971.1 4.8,52.6 -9.6,93 -42.7,120.1 -71.4,58.4 -204.8,27.4 -219,23.8 l -251.9,-46 c -334.5,-43.3 -402.8,-239.9 -409.6,-262.5 l -343.5,-829.6 49.3,-19.3"
         style="fill:#dd772a;fill-opacity:1;fill-rule:nonzero;stroke:none"
         id="path368" /><path
         d="m 14676.1,7616.6 665.9,-129.3 c 0,0 194.2,-76.7 155.7,-407.3 -33.9,-290.9 -182.5,-1922.9 -182.5,-1922.9 0,0 -31,-339.7 -777.7,-241.2 l 138.6,2700.7"
         style="fill:#dd772a;fill-opacity:1;fill-rule:nonzero;stroke:none"
         id="path370" /><path
         d="m 15045.3,7167.7 -179.1,-1827.8 c -7.3,-73.9 -34.3,-141.9 -75.8,-198.9 -76.7,-105.6 -203.1,-174.1 -344.8,-175 l -617.6,-3.7 -15.3,-0.1 -386.8,-2.4 c -38.9,-0.2 -76.5,4.6 -112.1,13.8 -8.3,2.1 -16.5,4.5 -24.7,7.1 -133.9,43.1 -236.9,149 -275,279.2 -16.3,55.4 -20.8,115.2 -11,176.5 l 280.5,1748.8 c 29.9,186.5 186.2,329.6 379.6,347.6 l 109.1,10.1 26.1,2.4 v 0 l 21.9,2 364.6,33.9 44.8,4.1 351.9,32.7 c 55.2,5.1 108.6,-0.2 158.4,-14.2 3.2,-0.9 6.5,-1.8 9.7,-2.8 l 20.4,-6.8 c 173.6,-62.7 294.2,-232.9 275.2,-426.5"
         style="fill:#f99746;fill-opacity:1;fill-rule:nonzero;stroke:none"
         id="path372" /><path
         d="m 14790.4,5141 c -76.7,-105.6 -203.1,-174.1 -344.8,-175 l -617.6,-3.7 -15.3,-0.1 -386.8,-2.4 c -38.9,-0.2 -76.5,4.6 -112.1,13.8 -8.3,2.1 -16.5,4.5 -24.7,7.1 -133.9,43.1 -288.2,200.6 -290.4,367.7 0,0 1306.5,16.6 1579.6,-24.4 140.8,-21.1 183,-116.8 212.1,-183"
         style="fill:#ef8a3f;fill-opacity:1;fill-rule:nonzero;stroke:none"
         id="path374" /><path
         d="m 13820.3,7547.3 c -2.7,-1.6 -289.2,-171.2 -326.9,-320.2 -38.7,-153.1 -297.3,-1937.7 -299.9,-1955.7 -0.2,-1.4 -7.3,-173.9 139.9,-302.4 l -19.6,4.6 c -8.3,2.1 -16.5,4.5 -24.7,7.1 -138.2,133.4 -119.6,287.1 -118.7,293.8 10.7,73.7 261.5,1803.8 300.4,1958 34.2,135.1 236.1,269.8 301.5,310.4 l 26.1,2.4 v 0 l 21.9,2"
         style="fill:#dd772a;fill-opacity:1;fill-rule:nonzero;stroke:none"
         id="path376" /><path
         d="m 14229.7,7585.3 c -41.3,-27 -198.5,-143.2 -232.1,-357.6 -39.3,-251.4 -193.1,-2077.9 -194.6,-2096.3 l -0.1,-1.3 -0.5,-1.2 c -0.3,-1 -22.2,-99.5 41.1,-166.5 l -15.5,-0.1 -15.3,-0.1 c -60.6,71.8 -36.6,159.9 -32.9,172.3 4.8,56.5 155.7,1847.2 194.8,2096.6 28.9,184.7 146,299.6 210.3,350.1 l 44.8,4.1"
         style="fill:#dd772a;fill-opacity:1;fill-rule:nonzero;stroke:none"
         id="path378" /><path
         d="m 14770.1,7594.2 c -1.2,-0.7 -60.7,-33.4 -112,-89.9 -51.3,-56.6 -107,-143.6 -126.2,-266.4 -39.4,-251.3 -161.3,-2071.7 -162.5,-2090 l -0.1,-1.4 -0.4,-1.3 c -0.3,-0.9 -5.7,-112.3 57.6,-179.3 l -38.9,-0.2 c -48.4,61.2 -45.4,171.8 -41.3,185 3.9,58.2 123.5,1841.2 162.6,2090.6 36.7,234.6 197,342.2 231.1,362.5 3.2,-0.9 6.5,-1.8 9.7,-2.8 l 20.4,-6.8"
         style="fill:#dd772a;fill-opacity:1;fill-rule:nonzero;stroke:none"
         id="path380" /><path
         d="m 15041.7,8886.3 -86.8,-212.6 c -10.5,-25.6 -10.8,-53.8 -3,-79 17.1,-55.4 28.7,-163.3 -99.4,-239.8 0,0 -77.9,-38.8 -90.2,21.5 -12.3,60.3 1.6,38.4 -17.7,123.2 -16.9,74.2 21.4,119.9 46.5,171.2 12.2,25 16.3,50.5 19,71.1 l 17.6,133.7 214,10.7"
         style="fill:#ffb27d;fill-opacity:1;fill-rule:nonzero;stroke:none"
         id="path382" /><path
         d="m 14855.4,8649.2 c 75,-14.6 156.3,-8.7 156.3,-8.7 0,0 222.6,687.8 251.2,750.6 28.7,62.8 661.4,761.1 661.4,761.1 l -400.8,548.1 c 0,0 -547.1,-986.2 -616.6,-1146.8 -114.8,-265.4 -154.6,-860.5 -154.6,-860.5 0,0 44.2,-32.3 103.1,-43.8"
         style="fill:#f99746;fill-opacity:1;fill-rule:nonzero;stroke:none"
         id="path384" /><path
         d="m 15384.1,9082.7 v -4.4 c 113.7,26.6 210.4,79 293.9,148.2 155.4,127 261,312.6 327.6,507 103,302.7 111,627.7 58.6,787.5 -7.1,20.4 -15.1,39.1 -24,53.2 -21.3,35.6 -45.2,65.8 -72.8,90.6 -87,82.6 -198,114.5 -279.6,126.1 -24,3.5 -45.3,4.4 -63.1,5.3 -24.8,0.9 -40.8,0 -45.2,0 h -0.9 c -51.6,-14.5 -91.4,-50.6 -55.1,-95.9 16,1.8 31.1,1.8 45.3,1.8 63,1.8 117.2,-6.2 162.5,-22.2 78.1,-24.9 133.1,-71.9 171.3,-126.1 110.1,-154.4 86.1,-375.5 86.1,-375.5 -8.8,-116.3 -26.6,-220.2 -49.7,-311.6 -52.4,-209.6 -134.9,-358.7 -220.2,-463.5 -158.9,-197.1 -332.4,-239.9 -332.4,-239.9 0,0 -4.5,-15.2 -5.8,-41.9 -1.2,-24.1 3.5,-38.7 3.5,-38.7"
         style="fill:#233862;fill-opacity:1;fill-rule:nonzero;stroke:none"
         id="path386" /><path
         d="m 16965.9,8657.8 c 0,0 32.2,-49.7 67.1,-63.2 34.9,-13.5 90.2,-59 95.5,-46.8 5.3,12.2 -3.2,33.3 -23.8,48.1 -20.7,14.8 -27,33.3 -21.7,44.4 5.3,11.1 -117.1,17.5 -117.1,17.5"
         style="fill:#ffb27d;fill-opacity:1;fill-rule:nonzero;stroke:none"
         id="path388" /><path
         d="m 13827.6,11726.2 c -305.8,0 -552.4,246.7 -552.4,552.4 0,304.3 246.6,552.3 552.4,552.3 304.3,0 552.3,-248 552.3,-552.3 0,-305.7 -248,-552.4 -552.3,-552.4 z m 0,1501.3 c -517.8,0 -937.4,-451.4 -937.4,-1008 0,-556.7 937.4,-1446.5 937.4,-1446.5 0,0 937.4,889.8 937.4,1446.5 0,556.6 -419.7,1008 -937.4,1008"
         style="fill:#f78e48;fill-opacity:1;fill-rule:nonzero;stroke:none"
         id="path390" /><path
         d="m 14129.1,13336.4 c -1.6,0 -3.2,0.1 -4.8,0.3 -18.9,2.6 -32.2,20.1 -29.6,39.1 0.1,1 3.5,25 10.5,69.3 3,18.9 20.8,31.7 39.7,28.7 18.9,-3 31.8,-20.8 28.8,-39.7 -6.9,-43.3 -10.3,-67.5 -10.3,-67.8 -2.4,-17.3 -17.2,-29.9 -34.3,-29.9"
         style="fill:#f99746;fill-opacity:1;fill-rule:nonzero;stroke:none"
         id="path392" /><path
         d="m 16272.8,16931.7 c -17.6,0 -32.6,13.2 -34.5,31.1 -2,19 11.8,36.1 30.9,38.1 14.6,1.5 29.4,2.8 43.9,3.8 33.4,2.4 67.1,3.7 100.2,3.9 19.3,0.5 34.8,-15.3 34.9,-34.4 0.1,-19.2 -15.3,-34.8 -34.4,-34.9 -31.7,-0.2 -63.9,-1.5 -95.8,-3.8 -13.8,-0.9 -27.7,-2.2 -41.6,-3.6 -1.2,-0.1 -2.4,-0.2 -3.6,-0.2 z m 420.8,-16.9 c -2.1,0 -4.1,0.2 -6.3,0.6 -45,8.2 -90.8,14.4 -136.2,18.4 -19.1,1.6 -33.2,18.4 -31.5,37.5 1.7,19.1 18.4,33.3 37.5,31.5 47.6,-4.1 95.6,-10.6 142.7,-19.2 18.8,-3.4 31.3,-21.5 27.9,-40.3 -3.1,-16.8 -17.7,-28.5 -34.1,-28.5 z m -694.9,-43.3 c -14.5,0 -28,9.1 -32.9,23.5 -6.1,18.1 3.6,37.8 21.7,44 45.6,15.5 92.4,28.5 139,38.8 18.7,4.1 37.2,-7.7 41.3,-26.4 4.1,-18.7 -7.7,-37.2 -26.4,-41.4 -44.1,-9.7 -88.4,-22 -131.6,-36.7 -3.7,-1.2 -7.4,-1.8 -11.1,-1.8 z m 966,-32.1 c -4,0 -8.1,0.7 -12.1,2.2 -43.3,16.3 -87.5,30.7 -131.2,42.9 -18.4,5.1 -29.2,24.2 -24.1,42.7 5.2,18.4 24.3,29.2 42.7,24.1 45.7,-12.7 91.7,-27.8 136.9,-44.8 18,-6.7 27,-26.7 20.3,-44.6 -5.2,-13.9 -18.4,-22.5 -32.5,-22.5 z m -1221,-85.8 c -11.9,0 -23.5,6.1 -29.9,17.1 -9.8,16.5 -4.3,37.7 12.2,47.5 41.8,24.7 84.8,47.2 127.7,67.1 17.4,8.1 38,0.5 46,-16.8 8.1,-17.4 0.5,-38 -16.9,-46.1 -40.8,-18.9 -81.7,-40.4 -121.5,-64 -5.6,-3.2 -11.6,-4.8 -17.6,-4.8 z m 1475.8,-34 c -5.7,0 -11.6,1.5 -17,4.5 -40.6,23 -81.8,44.4 -122.7,63.7 -17.4,8.2 -24.8,28.8 -16.6,46.1 8.1,17.4 28.8,24.8 46.1,16.6 42.5,-20 85.3,-42.2 127.4,-66 16.6,-9.5 22.5,-30.6 13,-47.3 -6.3,-11.3 -18.1,-17.6 -30.2,-17.6 z m -1704.4,-129.9 c -9.8,0 -19.6,4.1 -26.4,12.2 -12.4,14.6 -10.7,36.5 3.9,48.9 37.1,31.5 75.1,61.3 113,88.6 15.6,11.2 37.3,7.7 48.4,-7.9 11.2,-15.5 7.7,-37.2 -7.9,-48.4 -36.4,-26.2 -72.9,-54.9 -108.6,-85.2 -6.5,-5.5 -14.5,-8.2 -22.4,-8.2 z m 1939.5,-25.2 c -7.3,0 -14.6,2.3 -20.8,7 -37.4,28.3 -75.5,55.2 -113.3,80.2 -16,10.6 -20.4,32.1 -9.8,48 10.6,16 32.1,20.4 48.1,9.9 38.9,-25.8 78.2,-53.6 116.7,-82.7 15.3,-11.5 18.4,-33.3 6.8,-48.6 -6.8,-9 -17.2,-13.8 -27.7,-13.8 z m -2140.8,-171.9 c -8.2,0 -16.5,3 -23.1,8.9 -14.3,12.8 -15.5,34.7 -2.7,48.9 32.4,36.1 65.7,71 98.9,103.6 13.6,13.4 35.6,13.2 49,-0.5 13.4,-13.6 13.2,-35.6 -0.5,-49 -32.1,-31.6 -64.4,-65.3 -95.8,-100.3 -6.8,-7.7 -16.3,-11.6 -25.8,-11.6 z m 2356.2,-10.2 c -8.6,0 -17.1,3.1 -23.8,9.4 -34.3,32.3 -69.2,63.5 -103.9,92.8 -14.6,12.4 -16.4,34.3 -4,48.9 12.3,14.6 34.2,16.4 48.8,4 35.6,-30.1 71.4,-62.1 106.6,-95.1 14,-13.1 14.6,-35.1 1.5,-49.1 -6.8,-7.2 -16,-10.9 -25.2,-10.9 z m 196.6,-202.5 c -9.5,0 -19,3.9 -25.9,11.6 -31.3,35.2 -63.3,69.6 -95,102.3 -13.3,13.8 -13,35.7 0.7,49.1 13.8,13.3 35.7,13 49.1,-0.8 32.4,-33.4 65,-68.5 97,-104.5 12.8,-14.3 11.5,-36.2 -2.8,-48.9 -6.6,-5.9 -14.9,-8.8 -23.1,-8.8 z m -2729.3,-7.2 c -7,0 -14.1,2.2 -20.2,6.6 -15.6,11.2 -19.1,32.9 -7.8,48.4 28.2,39.2 57.3,77.4 86.4,113.7 11.9,14.9 33.7,17.3 48.7,5.4 14.9,-12 17.4,-33.8 5.4,-48.8 -28.3,-35.4 -56.7,-72.7 -84.3,-110.9 -6.8,-9.4 -17.4,-14.4 -28.2,-14.4 z m 2908.9,-210.6 c -10.4,0 -20.7,4.7 -27.5,13.6 -28.6,37.4 -57.9,74.3 -87,109.6 -12.2,14.8 -10.1,36.6 4.7,48.8 14.8,12.2 36.6,10.1 48.8,-4.7 29.6,-36 59.4,-73.5 88.5,-111.5 11.7,-15.2 8.8,-37 -6.4,-48.6 -6.3,-4.8 -13.7,-7.2 -21.1,-7.2 z m -3064.1,-24.9 c -6.1,0 -12.2,1.6 -17.8,4.9 -16.4,9.9 -21.7,31.2 -11.8,47.6 24.8,41.2 50.3,81.8 75.8,120.6 10.6,16 32.1,20.4 48.1,9.9 16,-10.5 20.4,-32 9.9,-48 -25,-38 -50.1,-77.8 -74.4,-118.3 -6.5,-10.8 -18,-16.7 -29.8,-16.7 z m 3228.4,-204.7 c -11.2,0 -22.2,5.4 -28.9,15.4 -26.1,39 -52.9,77.8 -79.7,115.3 -11.1,15.5 -7.5,37.2 8.1,48.3 15.5,11.2 37.2,7.6 48.3,-8 27.2,-38.1 54.5,-77.4 81,-117 10.6,-15.9 6.4,-37.4 -9.6,-48.1 -5.9,-4 -12.6,-5.9 -19.2,-5.9 z m -3365.6,-42 c -5.3,0 -10.7,1.3 -15.8,3.9 -17,8.8 -23.7,29.7 -15,46.7 22,42.6 44.6,84.8 67.1,125.4 9.3,16.8 30.4,22.8 47.1,13.5 16.8,-9.3 22.8,-30.4 13.5,-47.2 -22.2,-39.9 -44.4,-81.4 -66,-123.4 -6.2,-12 -18.3,-18.9 -30.9,-18.9 z m 3515.9,-197 c -11.8,0 -23.4,6.1 -29.8,17 -23.9,40.4 -48.5,80.7 -73.1,119.8 -10.2,16.2 -5.3,37.6 10.9,47.8 16.2,10.2 37.6,5.3 47.9,-10.9 24.9,-39.7 49.8,-80.5 74,-121.4 9.7,-16.4 4.2,-37.7 -12.2,-47.5 -5.6,-3.2 -11.7,-4.8 -17.7,-4.8 z m -3637.9,-57.7 c -4.8,0 -9.6,0.9 -14.2,3 -17.4,7.8 -25.3,28.3 -17.5,45.8 19.6,43.7 39.6,87.2 59.7,129.2 8.3,17.2 29,24.5 46.3,16.3 17.3,-8.3 24.6,-29 16.3,-46.3 -19.8,-41.4 -39.7,-84.3 -59,-127.5 -5.7,-12.9 -18.4,-20.5 -31.6,-20.5 z m 3775.4,-189.1 c -12.5,0 -24.6,6.8 -30.8,18.6 -21.7,41.5 -44.2,83.1 -66.7,123.5 -9.3,16.8 -3.3,37.9 13.4,47.2 16.8,9.3 37.9,3.3 47.2,-13.5 22.8,-40.9 45.5,-83 67.5,-125 8.9,-17 2.4,-38 -14.6,-46.8 -5.1,-2.7 -10.6,-4 -16,-4 z m -3884.3,-71.1 c -4.2,0 -8.5,0.8 -12.6,2.4 -17.8,7 -26.6,27.1 -19.6,44.9 17.3,44.2 35.2,88.4 53.1,131.3 7.4,17.7 27.7,26 45.4,18.7 17.6,-7.4 26,-27.7 18.6,-45.4 -17.7,-42.4 -35.4,-86.1 -52.6,-129.9 -5.3,-13.7 -18.4,-22 -32.3,-22 z m 4008.8,-182.5 c -13.2,0 -25.7,7.5 -31.5,20.2 -19.1,41.6 -39.4,84.3 -60.3,126.8 -8.4,17.2 -1.3,38 15.8,46.4 17.3,8.4 38,1.4 46.5,-15.8 21.1,-43.1 41.7,-86.3 61,-128.5 8,-17.4 0.3,-38 -17.1,-46 -4.7,-2.1 -9.6,-3.1 -14.4,-3.1 z m -4106.4,-82.5 c -3.8,0 -7.6,0.6 -11.3,1.9 -18.1,6.3 -27.7,26.1 -21.5,44.2 15.6,45 31.7,89.9 47.8,133.6 6.6,17.9 26.5,27.1 44.5,20.5 17.9,-6.6 27.2,-26.5 20.5,-44.5 -15.9,-43.2 -31.8,-87.8 -47.2,-132.3 -5,-14.4 -18.4,-23.4 -32.8,-23.4 z m -87.6,-268.4 c -3.4,0 -6.8,0.5 -10.2,1.5 -18.3,5.6 -28.6,25 -23,43.3 14,45.4 28.4,90.8 42.8,135.2 6,18.2 25.6,28.2 43.8,22.2 18.2,-5.9 28.1,-25.5 22.2,-43.7 -14.4,-44 -28.7,-89.1 -42.5,-134 -4.6,-15 -18.3,-24.5 -33.1,-24.5 z m -78.6,-271.3 c -3.1,0 -6.1,0.4 -9.2,1.2 -18.5,5 -29.3,24.1 -24.3,42.6 12.5,45.7 25.4,91.6 38.4,136.5 5.3,18.4 24.5,28.9 42.9,23.6 18.4,-5.3 29,-24.5 23.7,-42.9 -12.9,-44.5 -25.7,-90.1 -38.1,-135.5 -4.2,-15.4 -18.2,-25.5 -33.4,-25.5 z m -70.3,-273.7 c -2.7,0 -5.5,0.3 -8.2,1 -18.6,4.5 -30.1,23.2 -25.6,41.8 11.1,45.9 22.6,92.2 34.3,137.6 4.8,18.6 23.7,29.7 42.2,25 18.5,-4.8 29.7,-23.7 25,-42.2 -11.6,-45.1 -23.1,-91.1 -34.1,-136.7 -3.8,-15.8 -18,-26.5 -33.6,-26.5 z m -62.4,-275.7 c -2.4,0 -4.8,0.3 -7.2,0.8 -18.8,3.9 -30.8,22.3 -26.8,41.1 9.7,45.9 19.9,92.5 30.3,138.5 4.3,18.7 22.9,30.4 41.5,26.2 18.7,-4.2 30.4,-22.8 26.2,-41.5 -10.4,-45.7 -20.5,-92 -30.2,-137.6 -3.4,-16.3 -17.8,-27.5 -33.8,-27.5 z m -54.4,-277.6 c -2,0 -4.1,0.2 -6.2,0.5 -18.8,3.4 -31.3,21.5 -28,40.3 8.2,45.6 17.1,92.5 26.3,139.6 3.7,18.8 21.9,31 40.7,27.4 18.8,-3.7 31,-21.9 27.3,-40.8 -9.1,-46.6 -17.9,-93.2 -26,-138.5 -3,-16.7 -17.6,-28.5 -34.1,-28.5"
         style="fill:#f99746;fill-opacity:1;fill-rule:nonzero;stroke:none"
         id="path394" /><path
         d="m 18704.3,14803 c -13.9,0 -27.1,8.5 -32.4,22.4 -0.1,0.2 -8.8,23 -25.6,63.1 -7.5,17.6 0.8,37.9 18.5,45.4 17.6,7.4 37.9,-0.9 45.4,-18.5 17.3,-41.3 26.1,-64.4 26.5,-65.3 6.8,-17.9 -2.1,-38 -20,-44.8 -4.1,-1.5 -8.3,-2.3 -12.4,-2.3"
         style="fill:#f99746;fill-opacity:1;fill-rule:nonzero;stroke:none"
         id="path396" /></g></g></svg>
