<?xml version="1.0" encoding="UTF-8" standalone="no"?>
<svg
   xmlns:dc="http://purl.org/dc/elements/1.1/"
   xmlns:cc="http://creativecommons.org/ns#"
   xmlns:rdf="http://www.w3.org/1999/02/22-rdf-syntax-ns#"
   xmlns:svg="http://www.w3.org/2000/svg"
   xmlns="http://www.w3.org/2000/svg"
   xmlns:sodipodi="http://sodipodi.sourceforge.net/DTD/sodipodi-0.dtd"
   xmlns:inkscape="http://www.inkscape.org/namespaces/inkscape"
   version="1.1"
   id="svg2"
   xml:space="preserve"
   width="6666.6665"
   height="2666.6667"
   viewBox="0 0 6666.6665 2666.6667"
   sodipodi:docname="7437.eps"><metadata
     id="metadata8"><rdf:RDF><cc:Work
         rdf:about=""><dc:format>image/svg+xml</dc:format><dc:type
           rdf:resource="http://purl.org/dc/dcmitype/StillImage" /></cc:Work></rdf:RDF></metadata><defs
     id="defs6" /><sodipodi:namedview
     pagecolor="#ffffff"
     bordercolor="#666666"
     borderopacity="1"
     objecttolerance="10"
     gridtolerance="10"
     guidetolerance="10"
     inkscape:pageopacity="0"
     inkscape:pageshadow="2"
     inkscape:window-width="640"
     inkscape:window-height="480"
     id="namedview4" /><g
     id="g10"
     inkscape:groupmode="layer"
     inkscape:label="ink_ext_XXXXXX"
     transform="matrix(1.3333333,0,0,-1.3333333,0,2666.6667)"><g
       id="g12"
       transform="scale(0.1)"><path
         d="M 50000,0 H 0 V 20000 H 50000 V 0"
         style="fill:#ffffff;fill-opacity:1;fill-rule:nonzero;stroke:none"
         id="path14" /><path
         d="m 44672.2,12064 c -569.4,-356 -1322.2,-182.3 -1678.1,387 -356,569.4 -182.3,1322.2 387,1678.1 569.4,356 1322.2,182.3 1678.1,-387 356,-569.4 182.3,-1322.2 -387,-1678.1"
         style="fill:#f7cc7f;fill-opacity:1;fill-rule:nonzero;stroke:none"
         id="path16" /><path
         d="m 44655.4,12090.9 c -554.6,-346.7 -1287.8,-177.6 -1634.4,376.9 -346.7,554.6 -177.6,1287.8 376.9,1634.4 554.6,346.7 1287.7,177.6 1634.4,-376.9 346.7,-554.6 177.6,-1287.7 -376.9,-1634.4"
         style="fill:#f7cc7f;fill-opacity:1;fill-rule:nonzero;stroke:none"
         id="path18" /><path
         d="m 44850.8,13605.2 c 283.6,-453.5 145.8,-1051.1 -307.8,-1334.6 -453.5,-283.6 -1051.1,-145.8 -1334.6,307.8 -283.6,453.5 -145.8,1051.1 307.8,1334.6 453.6,283.6 1051.1,145.8 1334.6,-307.8"
         style="fill:#ffffff;fill-opacity:1;fill-rule:nonzero;stroke:none"
         id="path20" /><path
         d="m 44513.6,12317.6 c -429.2,-268.3 -996.8,-137.4 -1265.1,291.8 -268.4,429.3 -137.5,996.8 291.8,1265.1 429.2,268.4 996.8,137.5 1265.1,-291.7 268.4,-429.3 137.5,-996.8 -291.8,-1265.2"
         style="fill:#ffffff;fill-opacity:1;fill-rule:nonzero;stroke:none"
         id="path22" /><path
         d="m 43327.3,12716.4 -139.4,-87.1 c -22.9,-14.3 -29.9,-44.6 -15.6,-67.5 14.4,-22.9 44.6,-29.9 67.5,-15.6 l 139.4,87.2 c 22.9,14.3 29.9,44.6 15.6,67.5 -14.3,22.9 -44.6,29.9 -67.5,15.5"
         style="fill:#f7cc7f;fill-opacity:1;fill-rule:nonzero;stroke:none"
         id="path24" /><path
         d="m 44422.1,12463.9 c -22.8,-14.3 -29.8,-44.6 -15.5,-67.5 l 87.1,-139.3 c 14.3,-23 44.6,-29.9 67.5,-15.6 22.9,14.3 29.9,44.6 15.6,67.5 l -87.2,139.4 c -14.3,22.9 -44.5,29.8 -67.5,15.5"
         style="fill:#f7cc7f;fill-opacity:1;fill-rule:nonzero;stroke:none"
         id="path26" /><path
         d="m 44814,13645.9 -139.3,-87.1 c -22.9,-14.3 -29.9,-44.6 -15.6,-67.5 14.3,-22.9 44.6,-29.9 67.5,-15.6 l 139.4,87.2 c 22.9,14.3 29.9,44.5 15.5,67.5 -14.3,22.9 -44.5,29.8 -67.5,15.5"
         style="fill:#f7cc7f;fill-opacity:1;fill-rule:nonzero;stroke:none"
         id="path28" /><path
         d="m 43492.7,13950.7 c -22.9,-14.3 -29.9,-44.6 -15.6,-67.5 l 87.1,-139.4 c 14.4,-22.9 44.6,-29.9 67.5,-15.6 22.9,14.4 29.9,44.6 15.6,67.5 l -87.1,139.4 c -14.3,22.9 -44.6,29.9 -67.5,15.6"
         style="fill:#f7cc7f;fill-opacity:1;fill-rule:nonzero;stroke:none"
         id="path30" /><path
         d="m 43762.4,14412.5 -17.6,191.9 c -1.5,15.8 10.1,29.7 25.9,31.2 l 220.1,20.2 c 15.8,1.5 29.7,-10.1 31.2,-25.9 l 17.6,-191.9 c 1.5,-15.7 -10.1,-29.7 -25.9,-31.2 l -220.1,-20.2 c -15.8,-1.4 -29.7,10.2 -31.2,25.9"
         style="fill:#f7cc7f;fill-opacity:1;fill-rule:nonzero;stroke:none"
         id="path32" /><path
         d="m 42972.2,13912.9 -164.8,99.9 c -13.5,8.2 -31.1,3.9 -39.3,-9.6 l -114.6,-189.1 c -8.2,-13.5 -3.9,-31.1 9.6,-39.3 l 164.8,-100 c 13.6,-8.2 31.2,-3.9 39.4,9.7 l 114.6,189 c 8.2,13.5 3.9,31.2 -9.7,39.4"
         style="fill:#f7cc7f;fill-opacity:1;fill-rule:nonzero;stroke:none"
         id="path34" /><path
         d="m 43154.7,14261.9 c -13,-8.2 -30.3,-4.2 -38.4,8.9 l -73.6,117.6 c -8.1,13 -4.1,30.3 8.9,38.4 l 240.1,150.1 c 13,8.2 30.2,4.2 38.4,-8.9 l 73.5,-117.6 c 8.2,-13 4.2,-30.3 -8.8,-38.4 l -240.1,-150.1"
         style="fill:#f7cc7f;fill-opacity:1;fill-rule:nonzero;stroke:none"
         id="path36" /><path
         d="m 43229.8,14227.4 c -124.1,-30 -258.8,20.4 -330.2,134.6 -89.2,142.7 -45.8,330.8 96.9,420 142.7,89.2 330.8,45.9 420,-96.9 71.4,-114.2 57.9,-257.4 -23.6,-355.8 l 39.9,-63.8 c 114.3,121.7 137.5,309.8 44.9,457.9 -110.2,176.3 -343.2,230 -519.5,119.8 -176.2,-110.2 -230,-343.2 -119.8,-519.5 92.6,-148.1 271.9,-209.6 431.3,-160.2 l -39.9,63.9"
         style="fill:#f7cc7f;fill-opacity:1;fill-rule:nonzero;stroke:none"
         id="path38" /><path
         d="m 43368.3,14149.7 c 28,17.5 56.4,33.7 85.2,48.7 l -106.1,169.8 -132.6,-82.9 104.8,-167.7 c 15.9,11 32.1,21.7 48.7,32.1"
         style="fill:#f7cc7f;fill-opacity:1;fill-rule:nonzero;stroke:none"
         id="path40" /><path
         d="m 44102.3,13145.2 c 26.1,-41.8 13.4,-96.9 -28.4,-123.1 -41.8,-26.1 -96.9,-13.4 -123.1,28.4 -26.1,41.8 -13.4,96.9 28.4,123.1 41.8,26.1 96.9,13.4 123.1,-28.4"
         style="fill:#fae0b2;fill-opacity:1;fill-rule:nonzero;stroke:none"
         id="path42" /><path
         d="m 44002.7,13833.8 55.3,-734.6 c 1.4,-18.5 -12.5,-34.6 -31,-36 -18.5,-1.4 -34.6,12.4 -36,31 -0.2,2.9 -0.6,-30 11.7,739.6"
         style="fill:#fae0b2;fill-opacity:1;fill-rule:nonzero;stroke:none"
         id="path44" /><path
         d="m 44722.1,12843.4 -703,220.2 c -17.7,5.6 -27.6,24.4 -22,42.1 5.5,17.7 24.4,27.6 42.1,22 2.8,-0.8 -27.6,11.6 682.9,-284.3"
         style="fill:#fae0b2;fill-opacity:1;fill-rule:nonzero;stroke:none"
         id="path46" /><path
         d="m 44057.5,13117.2 c 10.7,-17.1 5.5,-39.6 -11.6,-50.3 -17.1,-10.7 -39.6,-5.5 -50.3,11.6 -10.7,17.1 -5.5,39.6 11.6,50.3 17.1,10.7 39.6,5.5 50.3,-11.6"
         style="fill:#fae0b2;fill-opacity:1;fill-rule:nonzero;stroke:none"
         id="path48" /><path
         d="M 33600.4,2531.3 H 33229 v 352.1 h 371.4 v -352.1"
         style="fill:#184655;fill-opacity:1;fill-rule:nonzero;stroke:none"
         id="path50" /><path
         d="m 35087.7,2531.3 h -371.3 v 352.1 h 371.3 v -352.1"
         style="fill:#184655;fill-opacity:1;fill-rule:nonzero;stroke:none"
         id="path52" /><path
         d="m 33405.3,2809.8 h -298.1 v 224.8 h 298.1 v -224.8"
         style="fill:#13375b;fill-opacity:1;fill-rule:nonzero;stroke:none"
         id="path54" /><path
         d="m 33691.1,7854.7 c 0,26.6 19.8,48.3 44.1,48.3 h 757.6 c 24.3,0 44.1,-21.7 44.1,-48.3 V 6517.4 h 134.2 v 1337.3 c 0,107.5 -80,194.9 -178.3,194.9 h -757.6 c -98.3,0 -178.3,-87.4 -178.3,-194.9 V 6517.4 h 134.2 v 1337.3"
         style="fill:#355389;fill-opacity:1;fill-rule:nonzero;stroke:none"
         id="path56" /><path
         d="m 35086.6,2799.6 -1812.9,101.7 c -96.9,0 -175.5,82.5 -175.5,184.2 l -171.9,3225.1 c -5.3,225.6 250.5,261.2 347.4,261.2 h 1972.8 c 96.9,0 175.4,-82.5 175.4,-184.2 V 3085.5 c 0.8,-171.1 -167.6,-283 -335.3,-285.9"
         style="fill:#3c8f7c;fill-opacity:1;fill-rule:nonzero;stroke:none"
         id="path58" /><path
         d="m 35033,2800 h -1890.8 c -119.5,0 -216.4,96.8 -216.4,216.4 V 6254 c 0,119.6 96.9,216.5 216.4,216.5 H 35033 c 119.6,0 216.5,-96.9 216.5,-216.5 V 3016.4 c 0,-119.5 -96.9,-216.4 -216.5,-216.4"
         style="fill:#50bfa5;fill-opacity:1;fill-rule:nonzero;stroke:none"
         id="path60" /><path
         d="M 34818.3,2800 H 33377 v 1884.4 c 0,366 296.8,662.7 662.8,662.7 h 115.8 c 366,0 662.7,-296.7 662.7,-662.7 V 2800"
         style="fill:#3c8f7c;fill-opacity:1;fill-rule:nonzero;stroke:none"
         id="path62" /><path
         d="m 34146.3,6710.3 c 182.6,0 337.3,-81 343.6,-178.2 h 146.4 c -5.4,160 -222.6,288.8 -490,288.8 -267.3,0 -484.5,-128.8 -490,-288.8 h 146.5 c 6.3,97.2 161,178.2 343.5,178.2"
         style="fill:#13375b;fill-opacity:1;fill-rule:nonzero;stroke:none"
         id="path64" /><path
         d="m 34426.3,7892 h -615.7 c -44.2,0 -80.1,35.9 -80.1,80.1 v 26.9 c 0,44.3 35.9,80.1 80.1,80.1 h 615.7 c 44.2,0 80.1,-35.8 80.1,-80.1 v -26.9 c 0,-44.2 -35.9,-80.1 -80.1,-80.1"
         style="fill:#13375b;fill-opacity:1;fill-rule:nonzero;stroke:none"
         id="path66" /><path
         d="m 32001.2,16655.8 c 0,0 39.4,111.4 171.6,151.1 117.8,35.4 227.2,-33.8 260,-142.8 37.9,-126.3 -27.8,-308.9 -276.1,-525.1 -326.4,43.3 -482,159.4 -520,285.6 -32.8,109.1 20.3,227.2 138.1,262.6 132.1,39.7 226.4,-31.4 226.4,-31.4"
         style="fill:#f48c7f;fill-opacity:1;fill-rule:nonzero;stroke:none"
         id="path68" /><path
         d="m 31042.2,16313.1 c 120,15.8 215.7,34.6 308.9,57.6 30.7,7.5 86.2,11.6 101,43.2 7.7,16.4 5.3,33.5 -10.5,44.4 -28.9,19.9 -72.7,-1.5 -103.6,-9.1 -94.4,-23.2 -202.3,-45 -312.6,-60.6 -20.7,-3 -33.6,-26.9 -29.3,-46.2 4.8,-21.9 25.3,-32.1 46.1,-29.3 v 0"
         style="fill:#f48c7f;fill-opacity:1;fill-rule:nonzero;stroke:none"
         id="path70" /><path
         d="m 32677.2,16457.5 c 45.3,10.3 90.4,21.5 135.6,32.5 43.2,10.6 96.1,15.5 133.4,40.2 27.6,18.3 20.6,59.1 -14,62.7 -44.7,4.7 -93.3,-15.1 -136.5,-25.8 -45.2,-11.2 -90.3,-22.3 -135.3,-34.2 -48,-12.6 -31.9,-86.6 16.8,-75.4 v 0"
         style="fill:#f48c7f;fill-opacity:1;fill-rule:nonzero;stroke:none"
         id="path72" /><path
         d="m 31603,15823.2 c 33.6,108.9 95.5,155 139.4,204.3 23.4,26.4 -2.3,64.3 -35.6,50.5 -91,-37.9 -150.8,-142.3 -177.5,-232.5 -14.1,-47.5 59.1,-69.8 73.7,-22.3 v 0"
         style="fill:#f48c7f;fill-opacity:1;fill-rule:nonzero;stroke:none"
         id="path74" /><path
         d="m 32181.7,15711.1 c -13.1,46.3 -17,93.6 -10.4,141.3 4.1,29.2 39.9,116.6 -16.6,117.6 -53.1,1 -60.1,-87.6 -63.6,-125.2 -4.8,-50.4 0.6,-102.1 14.8,-150.6 14.1,-47.7 89.5,-31.3 75.8,16.9 v 0"
         style="fill:#f48c7f;fill-opacity:1;fill-rule:nonzero;stroke:none"
         id="path76" /><path
         d="m 32496,16088.3 c 29.5,-12.1 59.1,-24.3 88.6,-36.4 29.5,-12.1 59.9,-32.8 91.3,-18.1 17.7,8.3 20.5,28.8 14.3,45 -11.3,29.6 -55.7,38 -82.7,48.9 -29.6,12 -59.1,23.9 -88.7,35.9 -19.7,8 -43.3,-7.2 -49,-26.2 -6.7,-22 6.5,-41 26.2,-49.1 v 0"
         style="fill:#f48c7f;fill-opacity:1;fill-rule:nonzero;stroke:none"
         id="path78" /><path
         d="m 31623.4,16857.6 c -151.8,207.7 -150.2,209.3 -174.2,223.6 -24.5,14.7 -57.7,-7.3 -50.8,-36.1 6.8,-28.5 6.2,-23.7 166.7,-241.6 12.7,-17.3 41.7,-15.6 56.2,-2.1 17.3,16 14.9,38.8 2.1,56.2 v 0"
         style="fill:#f48c7f;fill-opacity:1;fill-rule:nonzero;stroke:none"
         id="path80" /><path
         d="m 32035,16959.9 c 5.8,42 7,84.1 3.7,126.3 -3,39.3 -2.4,99.9 -43.9,117.8 -8.9,3.8 -23,0.2 -29.4,-6.8 -26.9,-29.6 -7.7,-79.4 -5.1,-115.7 3,-39.5 1.6,-79.3 -2.2,-118.8 -2,-20.7 17.1,-39.1 37,-39.9 22.5,-0.8 37.1,16.4 39.9,37.1 v 0"
         style="fill:#f48c7f;fill-opacity:1;fill-rule:nonzero;stroke:none"
         id="path82" /><path
         d="m 32626.1,17062.7 c 2.4,19.2 -15.7,32.5 -32.3,34.8 -34.1,4.8 -67.7,-35.3 -90.1,-57.1 -26.1,-25.3 -49.5,-53 -71.2,-82.2 -12.5,-16.9 -4.2,-43.1 12.6,-53.5 19.6,-12.1 40.3,-3.8 53.4,12.6 85.9,107.4 121.4,98 127.6,145.4"
         style="fill:#f48c7f;fill-opacity:1;fill-rule:nonzero;stroke:none"
         id="path84" /><path
         d="m 41089.3,15267.4 c -7.9,112.7 77.2,210.5 189.9,218.3 112.7,7.8 210.4,-77.2 218.3,-190 7.8,-112.7 -77.2,-210.4 -190,-218.2 -112.7,-7.9 -210.4,77.2 -218.2,189.9"
         style="fill:#f7cc7f;fill-opacity:1;fill-rule:nonzero;stroke:none"
         id="path86" /><path
         d="m 41436.2,14689.7 c -12.2,59.3 -19.6,122.8 -39.8,180.1 -17.4,49.1 -94.2,34.1 -90.3,-18.7 4.7,-64.7 25,-130.3 38.5,-193.7 5.5,-25.6 39.5,-37.6 61.9,-29.7 27.5,9.7 35,36.2 29.7,62 v 0"
         style="fill:#f7cc7f;fill-opacity:1;fill-rule:nonzero;stroke:none"
         id="path88" /><path
         d="m 41786.9,14943.1 c -67.9,40 -127,89.6 -189.5,136.8 -48.9,37 -101.6,-26.6 -61.4,-70.5 57.7,-63.1 133.5,-112.3 206.7,-155.5 23.2,-13.6 55.4,-0.3 66.7,22.6 12.7,25.6 0.7,52.9 -22.5,66.6 v 0"
         style="fill:#f7cc7f;fill-opacity:1;fill-rule:nonzero;stroke:none"
         id="path90" /><path
         d="m 41658.4,15309.4 c -15.3,-12.3 -18.4,-30 -8.9,-47.2 22.9,-41.6 81.1,-39.6 122.5,-38.2 43.1,1.5 86.3,10.3 127,24.2 60.3,20.6 27.7,114.2 -32.8,93.5 -118.4,-40.4 -163.2,3.5 -207.8,-32.3"
         style="fill:#f7cc7f;fill-opacity:1;fill-rule:nonzero;stroke:none"
         id="path92" /><path
         d="m 41593.3,15707.2 c -59.6,-87.1 -108.2,-116.5 -100.7,-164.5 4.5,-28 26.6,-41.4 53.7,-35.3 32,7.3 49.4,41.2 68.6,65 18.4,22.8 36.4,45.7 52.8,70 14.9,22.1 17,50.6 -4.8,69.6 -18.3,15.9 -54.5,17.3 -69.6,-4.8 v 0"
         style="fill:#f7cc7f;fill-opacity:1;fill-rule:nonzero;stroke:none"
         id="path94" /><path
         d="m 41361.3,15722.3 c -19.1,52.8 -23.2,72 -47.9,96.5 -21.5,21.4 -66.8,7.8 -69.8,-23.7 -3.5,-36.6 4.2,-50.2 24.2,-105.7 9.1,-25.2 37.8,-39.2 63.2,-30.3 25.2,8.8 39.4,37.9 30.3,63.2 v 0"
         style="fill:#f7cc7f;fill-opacity:1;fill-rule:nonzero;stroke:none"
         id="path96" /><path
         d="m 41110.7,15594.5 c -85.8,65.2 -103.3,83.6 -137,80.1 -19.8,-2.1 -42,-21.1 -37.7,-43.3 8,-41.2 32,-52.4 111,-110 21.1,-15.5 50.2,-16.2 68.5,4.7 16.3,18.8 16.2,52.6 -4.8,68.5 v 0"
         style="fill:#f7cc7f;fill-opacity:1;fill-rule:nonzero;stroke:none"
         id="path98" /><path
         d="m 40765.9,15295.6 c -33.8,-18 -20.2,-76.4 16.4,-81.2 35.1,-4.6 48.7,1 219.1,32.1 26.3,4.8 48,24.1 46,52.9 -1.7,24.5 -26.4,50.8 -52.9,46 -177,-32 -194.7,-31.8 -228.6,-49.8"
         style="fill:#f7cc7f;fill-opacity:1;fill-rule:nonzero;stroke:none"
         id="path100" /><path
         d="m 41032.9,15016.8 c -93.4,-90.4 -107.1,-74.4 -144,-129.7 -16.8,-25.3 11,-65.6 40.3,-60.2 37.7,6.9 47.9,13.3 97,52.2 28.5,22.6 55.8,46.9 82,72.1 19.5,18.8 14.2,53.9 -4.9,70.5 -21.8,19 -51,13.9 -70.4,-4.9 v 0"
         style="fill:#f7cc7f;fill-opacity:1;fill-rule:nonzero;stroke:none"
         id="path102" /><path
         d="m 4755.92,2494.5 v 0 c 0,-35 28.31,-63.3 63.23,-63.3 H 45072 c 34.9,0 63.2,28.3 63.2,63.3 v 0 c 0,34.9 -28.3,63.2 -63.2,63.2 H 4819.15 c -34.92,0 -63.23,-28.3 -63.23,-63.2"
         style="fill:#13375b;fill-opacity:1;fill-rule:nonzero;stroke:none"
         id="path104" /><path
         d="m 27022.9,8157.4 c -0.7,28.8 -245.1,1715.1 -275.4,1764.2 l -187.3,956.7 -594.4,62.3 c 0,0 238.9,-1238.9 262.7,-1301.4 14.6,-38.3 548.3,-1950.1 548.3,-1950.1 0,0 -6.8,-248.6 81,-248.6 87.7,0 397.8,90.7 397.8,90.7 l 38,157.9 -270.7,468.3"
         style="fill:#f48c7f;fill-opacity:1;fill-rule:nonzero;stroke:none"
         id="path106" /><path
         d="m 28523.6,4981.2 h -2423.9 c -220.6,0 -399.3,178.8 -399.3,399.4 v 1515.7 c 0,220.6 178.7,399.3 399.3,399.3 h 2423.9 c 220.6,0 399.4,-178.7 399.4,-399.3 V 5380.6 c 0,-220.6 -178.8,-399.4 -399.4,-399.4"
         style="fill:#f47458;fill-opacity:1;fill-rule:nonzero;stroke:none"
         id="path108" /><path
         d="m 26626.7,7218.2 v 114.1 c 0,109.7 89.2,198.9 198.9,198.9 h 468 c 109.7,0 198.9,-89.2 198.9,-198.9 v -114.1 h 158 v 114.1 c 0,196.8 -160.1,356.8 -356.9,356.8 h -468 c -196.8,0 -356.8,-160 -356.8,-356.8 v -114.1 h 157.9"
         style="fill:#184655;fill-opacity:1;fill-rule:nonzero;stroke:none"
         id="path110" /><path
         d="m 27946.8,4981.2 h -2423.9 c -220.5,0 -399.3,178.8 -399.3,399.4 v 1515.7 c 0,220.6 178.8,399.3 399.3,399.3 h 2423.9 c 220.6,0 399.4,-178.7 399.4,-399.3 V 5380.6 c 0,-220.6 -178.8,-399.4 -399.4,-399.4"
         style="fill:#b75742;fill-opacity:1;fill-rule:nonzero;stroke:none"
         id="path112" /><path
         d="m 26312.1,10944.7 c -56.2,696.8 -131.3,1319.2 -156.3,1398.1 -152.1,479.7 -2242.9,511.6 -2461.7,-284 -31.9,-116.1 -112.1,-500.6 41,-1050.7 l 1226.5,491.5 1350.5,-554.9"
         style="fill:#184655;fill-opacity:1;fill-rule:nonzero;stroke:none"
         id="path114" /><path
         d="m 23938.6,11828 c -85.4,-310.5 229.6,-3441.2 365.7,-3577.3 136,-136 1825.2,-26.3 2070.9,219.4 245.7,245.7 -85.2,3738.5 -219.4,3872.7 -134.3,134.3 -1998.4,280.8 -2217.2,-514.8"
         style="fill:#3c8f7c;fill-opacity:1;fill-rule:nonzero;stroke:none"
         id="path116" /><path
         d="m 25300.4,10005.1 -95.2,-16.3 c -55.9,327.2 -101.5,601.6 -138.8,831.7 -185.5,1146.5 -162.1,1195 -164,1208.3 -1.6,178.3 -109.8,336.9 -275.5,404.4 l -323.5,131.6 c 48.6,16.1 98.9,30.3 150.5,42.9 l 209.4,-85.2 c 350.5,-142.6 335.3,-500 335.7,-500.9 0,-134.1 85.1,-695 164.8,-1191.4 69.6,-433 135.1,-816.8 136.6,-825.1"
         style="fill:#13375b;fill-opacity:1;fill-rule:nonzero;stroke:none"
         id="path118" /><path
         d="m 26168.7,10066.6 c -334.6,1957.2 -300.5,2024.1 -302.8,2040.1 -1.7,178.1 -109.8,336.7 -275.5,404.2 l -437.4,178 36.4,89.4 437.4,-178 c 350.5,-142.6 335.3,-500 335.6,-500.9 0,-251 298.4,-1998.9 301.4,-2016.6 l -95.1,-16.2"
         style="fill:#13375b;fill-opacity:1;fill-rule:nonzero;stroke:none"
         id="path120" /><path
         d="m 24126.2,9199.3 c 4.3,-33.3 8.5,-66.1 12.8,-98.3 474.2,-48.5 1720.4,-136.2 2045.3,102.4 l -57.1,77.8 c -299.6,-220 -1576.5,-126.4 -2001,-81.9"
         style="fill:#184655;fill-opacity:1;fill-rule:nonzero;stroke:none"
         id="path122" /><path
         d="m 23633,3395.1 c 0,0 -125.8,-123.3 -128.6,-168.5 -2.9,-45.2 -11.1,-529.8 40.2,-575.1 51.3,-45.2 202.1,-77.3 153.7,-128.2 -36.7,-38.4 -318.6,-30.2 -505.4,-19.9 -54.6,3 -123,440.1 -144.6,504.4 -31.4,93.3 -144.4,296.3 -115.9,361.4 13.9,31.6 117.2,103.9 210.8,164.6 98.6,64 192.9,206.3 192.9,206.3 l 296.9,-345"
         style="fill:#f7a491;fill-opacity:1;fill-rule:nonzero;stroke:none"
         id="path124" /><path
         d="m 25315.4,3092.3 c 0,0 -97.5,-276.6 -111.1,-315.6 -1,-2.9 -42.9,-180.1 -42.9,-226.1 0,-172.8 775.8,146.6 601.9,223.2 -15.7,7 -65.1,62.3 -70.3,121.1 -7.9,90.6 65.4,204.3 65.4,204.3 l -443,-6.9"
         style="fill:#f7a491;fill-opacity:1;fill-rule:nonzero;stroke:none"
         id="path126" /><path
         d="m 26386,9155.4 280.9,-720.8 c 0,0 183.2,-1720.2 76.5,-2750 -44.6,-430.6 -1010.7,-2736 -1010.7,-2736 l -479.9,67.9 642.7,2730 -236.5,1044 -334.7,2063.7 1061.7,301.2"
         style="fill:#184655;fill-opacity:1;fill-rule:nonzero;stroke:none"
         id="path128" /><path
         d="m 25062.9,9117.9 -241,-802.7 L 24455.4,5892.7 23216,3626.5 c 0,0 186.3,-283.5 386.5,-328.1 l 1759.1,2290.4 953.4,2867.2 -33.4,637.1 -1218.7,24.8"
         style="fill:#355389;fill-opacity:1;fill-rule:nonzero;stroke:none"
         id="path130" /><path
         d="m 26654.3,10537.8 -684,-70.1 c 0,0 -31.3,563.2 -31.3,831.8 0,325.9 60,733.8 98.4,721.9 106.5,-32.9 226.5,-71.5 314.7,-193.2 305.1,-421.1 302.2,-1290.4 302.2,-1290.4"
         style="fill:#fae0b2;fill-opacity:1;fill-rule:nonzero;stroke:none"
         id="path132" /><path
         d="m 23754.6,2576.2 c -45.3,53.1 -196.8,106.8 -226.9,117.3 -113.4,39.6 -378.2,844.5 -378.2,844.5 0,0 -230.1,-67.6 -247.8,-102.9 -17.8,-35.2 142.1,-423 142.1,-423 30.2,-158.6 106.6,-519.8 106.6,-519.8 h 538.3 c 42,0 115.3,26.2 65.9,83.9"
         style="fill:#184655;fill-opacity:1;fill-rule:nonzero;stroke:none"
         id="path134" /><path
         d="m 25117.3,2493.6 87,283 c 0,0 188.4,-80.4 281.7,-67.2 93.3,13.2 275.4,66.1 275.4,66.1 372.4,-123.1 677.4,-182.9 621.9,-281.9 v 0 h -1266"
         style="fill:#184655;fill-opacity:1;fill-rule:nonzero;stroke:none"
         id="path136" /><path
         d="m 25149.9,12060.8 c 0,0 -362.1,-49.9 -457.4,-119.2 -107.3,-78.1 -439.6,-442.4 -439.6,-442.4 0,0 691.7,-1963.5 664.9,-2312.8 -26.8,-349.4 -102.6,-866.8 -102.6,-866.8 0,0 1343.2,-84 1852,115 0,0 -160.7,791.6 -160.7,999.4 0,207.9 -90.2,2285.4 -154.4,2394.2 -64.2,108.8 -193.7,170.7 -439.1,223.8 -245.5,53 -763.1,8.8 -763.1,8.8"
         style="fill:#f7cc7f;fill-opacity:1;fill-rule:nonzero;stroke:none"
         id="path138" /><path
         d="m 25248.7,12621.4 -89.3,-560.5 c 0,0 327,-713.2 522.4,-653.2 163.9,50.4 63,662.9 63,662.9 0,0 -89.3,329 -62.5,493.6 26.8,164.6 -433.6,57.2 -433.6,57.2"
         style="fill:#f7a491;fill-opacity:1;fill-rule:nonzero;stroke:none"
         id="path140" /><path
         d="m 25682.3,12564.2 c 26.8,164.6 -433.6,57.2 -433.6,57.2 l -7.4,-48.2 c 13.5,-32.3 29.9,-59.9 49.9,-81.1 102.9,-108.9 263.6,-174.3 402.6,-179.3 -14,88.8 -22.5,183.9 -11.5,251.4"
         style="fill:#f47458;fill-opacity:1;fill-rule:nonzero;stroke:none"
         id="path142" /><path
         d="m 25173.2,13443.9 c -13,4.7 -104.3,-662.2 68.9,-845.6 173.3,-183.5 510.8,-243.6 631.8,-99.1 133.9,159.9 127.2,876.6 -142.1,1065.3 -269.3,188.8 -558.6,-120.6 -558.6,-120.6"
         style="fill:#f7a491;fill-opacity:1;fill-rule:nonzero;stroke:none"
         id="path144" /><path
         d="m 24881.1,13422.3 c -154.6,-271 -42.7,-560.4 147.2,-704.9 189.9,-144.6 186.5,-310.1 186.5,-310.1 l 30.7,85 c 22.2,65.4 31.2,134.7 23.8,203.3 -4.4,41.2 -13.4,85.7 -30.7,122.3 -45.7,96.5 98.1,160.6 138.4,240.9 31.1,61.9 32.6,203.3 81.5,305.5 l 58.4,78 c 0,0 134.7,103.2 266.6,74.1 131.8,-29.1 -563.7,499.5 -902.4,-94.1"
         style="fill:#f7cc7f;fill-opacity:1;fill-rule:nonzero;stroke:none"
         id="path146" /><path
         d="m 25368.2,12940.2 c 1.4,-81.4 -36.2,-148 -84,-148.8 -47.7,-0.8 -87.5,64.5 -88.8,145.9 -1.4,81.3 36.1,147.9 83.9,148.7 47.7,0.8 87.5,-64.5 88.9,-145.8"
         style="fill:#f7a491;fill-opacity:1;fill-rule:nonzero;stroke:none"
         id="path148" /><path
         d="m 25582.5,13705.5 c -51.1,35.6 -147.1,104.6 -243,156 -127.1,68.1 -282.6,53 -394.6,-37.7 -152.2,-123.3 -335.7,-307.6 -313,-466 0,0 176.4,-368.5 176.4,-456.3 0,-87.7 0,-210.6 0,-210.6 0,0 841.1,419.7 1221.7,922.8 0,0 -263.6,-36.5 -447.5,91.8"
         style="fill:#3c8f7c;fill-opacity:1;fill-rule:nonzero;stroke:none"
         id="path150" /><path
         d="m 25667.7,13658.9 c -282.5,-358.5 -702.6,-582.1 -881.1,-666.1 4.1,-12 7.6,-23.4 10.7,-34 83,38.7 219.7,107.9 370,206.8 164.7,108.5 371.2,269.9 534.7,480.3 -11.5,3.9 -22.9,8.2 -34.3,13"
         style="fill:#50bfa5;fill-opacity:1;fill-rule:nonzero;stroke:none"
         id="path152" /><path
         d="m 24237.1,7076.2 h -115.4 v 427.3 c 0,12.5 -9.3,22.8 -20.7,22.8 h -630.7 c -11.4,0 -20.7,-10.3 -20.7,-22.8 v -427.3 h -115.4 v 427.3 c 0,82.7 61.1,150 136.1,150 h 630.7 c 75.1,0 136.1,-67.3 136.1,-150 v -427.3"
         style="fill:#184655;fill-opacity:1;fill-rule:nonzero;stroke:none"
         id="path154" /><path
         d="M 25512.7,5126 H 22159 c -132.7,0 -240.3,107.6 -240.3,240.4 v 1714 c 0,132.7 107.6,240.3 240.3,240.3 h 3353.7 c 132.8,0 240.4,-107.6 240.4,-240.3 v -1714 c 0,-132.8 -107.6,-240.4 -240.4,-240.4"
         style="fill:#f7cc7f;fill-opacity:1;fill-rule:nonzero;stroke:none"
         id="path156" /><path
         d="m 25546.6,7320.7 h -340.7 c 114,0 206.5,-81.7 206.5,-182.5 V 5308.6 c 0,-100.8 -92.5,-182.6 -206.5,-182.6 h 340.7 c 114,0 206.5,81.8 206.5,182.6 v 1829.6 c 0,100.8 -92.5,182.5 -206.5,182.5"
         style="fill:#fae0b2;fill-opacity:1;fill-rule:nonzero;stroke:none"
         id="path158" /><path
         d="m 23984.4,8000.3 c -25.2,16.5 1.7,429.7 1.7,429.7 0,0 41.8,1189.6 46.3,1253.8 l 534.3,1098.3 -461.9,431.2 c 0,0 -549.9,-1211 -567.8,-1279.6 -17.8,-68.6 109.4,-1685.4 116.1,-1828.1 0,0 -96.7,-215.6 -126.8,-325.1 -30.2,-109.5 22.7,-219.9 18.9,-252.1 -0.6,-4.8 119.5,-74.3 151.4,-65.2 95,27.2 148.3,35 170.6,29.9 132.3,-29.9 88.5,161.2 110.3,160.4 21.7,-0.9 95.9,0 108.9,0 19.7,0 33.6,257.9 -102,346.8"
         style="fill:#f8a492;fill-opacity:1;fill-rule:nonzero;stroke:none"
         id="path160" /><path
         d="m 23803.6,10795.4 605.5,-468.1 c 0,0 267.3,254.1 401.6,535.1 136,284.5 40.9,1126.6 -103.8,1088 -323.6,-86.2 -903.3,-1155 -903.3,-1155"
         style="fill:#fae0b2;fill-opacity:1;fill-rule:nonzero;stroke:none"
         id="path162" /><path
         d="m 25976.2,12278.5 v -188.9 l -14.1,37.5 c 1.7,-3.2 364.5,-405.3 546,-1286.4 l 16.9,-85.8 c 46,-273.2 56.9,-433.9 56.8,-433 27.6,-389.3 15.7,-545.1 -9.7,-870.5 -4.7,-55.5 -80.9,-67.8 -102.9,-16.6 -75.6,176.3 -105.4,358.4 -134.1,534.7 -23,151.5 -41.6,412.1 -41.5,411.2 -4.2,32.6 -20.5,294 -109.9,729.9 -126.2,577.6 -275.9,866.6 -307.6,941.6 -1,1.2 -14.8,17.6 -14,16.7 0,33.8 0,127.2 0,209.6 0,31.5 25.5,57 57,57 31.5,0 57.1,-25.5 57.1,-57"
         style="fill:#184655;fill-opacity:1;fill-rule:nonzero;stroke:none"
         id="path164" /><path
         d="m 25013.1,12237.9 5.2,-155.2 v -31.3 c 224.6,-394.1 545.3,-1290.3 371.8,-2192.9 -64.7,-295.2 -210,-681.4 -483.8,-809.3 -26.8,-16.5 -78,6.9 -94.6,33.7 -16.5,26.8 51.2,106.1 50.8,105.2 142,263.6 205.8,1119.8 195.8,1363.7 -6.2,555.4 -107.3,1102.3 -156,1463.5 l -3.2,217 c -1.5,31.4 22.7,58.2 54.2,59.7 31.4,1.6 58.2,-22.6 59.8,-54.1"
         style="fill:#184655;fill-opacity:1;fill-rule:nonzero;stroke:none"
         id="path166" /><path
         d="m 26840.2,7465.4 c 0,0 -116.2,144.8 -46,195.2 70.2,50.5 360.8,-14.2 381.7,-35.1 20.8,-20.8 103.1,-94.3 103.1,-94.3 l -438.8,-65.8"
         style="fill:#f48c7f;fill-opacity:1;fill-rule:nonzero;stroke:none"
         id="path168" /><path
         d="m 30936,11129.3 -327.2,793.1 c -151.6,367.4 -645.2,688.4 -1005.7,521 l -889.8,1876.5 c -75.7,183.7 -286.1,271.2 -469.8,195.4 v 0 c -183.6,-75.8 -271.1,-286.1 -195.3,-469.8 l 879.3,-1854.6 c -823,-301 -59.4,-1388.2 92.7,-1756.8 0,0 -249.6,-536.1 -120.6,-1028.7 356,-1358.8 1204.2,-1453.3 1841.7,-1190.3 l 387.5,159.9 c 637.4,262.9 621.9,1511.9 287.8,2210.2 -89.7,187.5 -480.6,544.1 -480.6,544.1"
         style="fill:#184655;fill-opacity:1;fill-rule:nonzero;stroke:none"
         id="path170" /><path
         d="m 33300.5,12709.8 c 47.6,216 94.1,433.4 -31.2,670.7 -101.3,192.1 -276.6,302.6 -479.4,326.6 -574.7,68.2 -625.3,-445.4 -1171.2,-670.2 -233.2,-96 -472.4,-68.5 -680.8,-192.6 -376.3,-224.2 -237.7,-495.5 11.9,-1081.2 611,-1434.3 1662.2,-603.7 1847.5,-321.3 137.8,210.1 472.7,1129 503.2,1268"
         style="fill:#13375b;fill-opacity:1;fill-rule:nonzero;stroke:none"
         id="path172" /><path
         d="m 32968.9,11972.8 c -308.3,-96.4 -961.6,-577.3 -1003.4,-567.2 l -760.8,605.5 -468.1,-410.8 c 0,0 1044.3,-773.2 1103.7,-801.6 43.8,-20.9 871.7,682.5 1305.2,894.5 -6.1,141 -107.5,156.1 -176.6,279.6"
         style="fill:#f48c7f;fill-opacity:1;fill-rule:nonzero;stroke:none"
         id="path174" /><path
         d="m 31758.4,11672 -476.7,-617.2 c 0,0 -502.5,386.2 -687.8,594 -224.8,252.1 -470.7,793.4 -434.4,813.2 101.8,55.5 321.5,100.1 473,66.2 524.4,-117.2 1125.9,-856.2 1125.9,-856.2"
         style="fill:#b75742;fill-opacity:1;fill-rule:nonzero;stroke:none"
         id="path176" /><path
         d="m 32949.1,11627.5 -58.7,306.9 c 0,0 173.6,-41.4 284,-213.1 110.5,-171.6 295.5,-751.8 327,-768.9 31.6,-17.2 381.1,521.3 442.2,606.1 75.6,105 103.8,225.5 151.1,317.1 47.4,91.5 214.1,122.7 277.2,111.2 63.1,-11.4 -86.7,-279.2 -86.7,-279.2 0,0 -378.8,-658 -505,-1018.4 -126.2,-360.5 -520.7,-532.2 -583.9,-480.7 -63.1,51.5 -247.2,1419 -247.2,1419"
         style="fill:#f48c7f;fill-opacity:1;fill-rule:nonzero;stroke:none"
         id="path178" /><path
         d="m 33017.6,10706.3 482.4,275.2 c 0,0 -219,923.3 -609.6,952.9 l 127.2,-1228.1"
         style="fill:#f7cc7f;fill-opacity:1;fill-rule:nonzero;stroke:none"
         id="path180" /><path
         d="m 34098.9,11825.2 c 0,0 15.8,69.3 58.3,83.4 42.5,14.2 116.5,1.6 121.2,0 4.8,-1.5 86.6,42.6 86.6,42.6 l -67.7,-126 c 0,0 -132.2,-155.9 -176.3,-97.6 -44.1,58.2 -22.1,97.6 -22.1,97.6"
         style="fill:#f7a491;fill-opacity:1;fill-rule:nonzero;stroke:none"
         id="path182" /><path
         d="m 34388.7,11945.4 c 0,0 47.7,-243 35.7,-294 -12.2,-51 -42.6,-23.6 -48.3,-12.5 -23.5,45.6 -39.9,201.5 -39.9,201.5 l 52.5,105"
         style="fill:#f48c7f;fill-opacity:1;fill-rule:nonzero;stroke:none"
         id="path184" /><path
         d="m 34285.8,11743.3 c 0,0 22.8,-150.7 46.2,-168.5 15.2,-11.5 34.6,-4.7 40.9,25.7 6.3,30.5 -30.4,216.3 -30.4,216.3 l -56.7,-73.5"
         style="fill:#f48c7f;fill-opacity:1;fill-rule:nonzero;stroke:none"
         id="path186" /><path
         d="m 34146.6,11315.6 -79.3,38.7 336.7,690.7 v 0 c 43.8,-21.3 62,-74.1 40.6,-117.9 l -298,-611.5"
         style="fill:#184655;fill-opacity:1;fill-rule:nonzero;stroke:none"
         id="path188" /><path
         d="m 31002.2,3649.8 c 0,0 -40.9,-415.5 -146.1,-491.8 -105.2,-76.2 -245.5,-358.5 -175.3,-511.1 21.9,-47.7 65.7,-75.2 115.6,-90.6 147.8,-45.5 305.1,31.1 368,172.4 35.1,78.9 66,184.2 72.2,316.8 15.8,337.6 121,509.3 121,509.3 l -355.4,95"
         style="fill:#f7a491;fill-opacity:1;fill-rule:nonzero;stroke:none"
         id="path190" /><path
         d="m 32618.8,3479.8 c 0,0 33.2,-419.3 6.3,-555.5 -14.5,-73 -94.7,-223.2 -57.9,-291.8 36.8,-68.7 78.9,-85.9 78.9,-85.9 l 954.3,-15.3 c 51.9,-0.8 17.6,32.5 -24.3,63.3 -68.6,50.3 -124,83.6 -343.1,189.4 -14.3,6.9 -66.3,39.9 -85.1,51.4 -47.6,29 -95.4,74.6 -136.5,120.3 -68.5,76.1 -74.5,445.4 -74.5,445.4 l -318.1,78.7"
         style="fill:#f7a491;fill-opacity:1;fill-rule:nonzero;stroke:none"
         id="path192" /><path
         d="m 33364.7,9052.7 c 0,0 120.1,-680.7 41.2,-1126.9 -78.9,-446.3 -457.6,-4582.9 -457.6,-4582.9 l -420.8,-23.7 c 0,0 -88.2,1727.9 -72.4,1968.2 15.7,240.3 140.6,642.5 140.6,642.5 l -41.9,1395.1 531.1,1832.8 279.8,-105.1"
         style="fill:#b75742;fill-opacity:1;fill-rule:nonzero;stroke:none"
         id="path194" /><path
         d="m 32127.8,9195.9 c 0,0 -331.4,-497.8 -410.3,-909.7 -78.9,-411.9 57.9,-1677.9 -93.8,-2217.8 -82.2,-292.2 -393.6,-743.5 -440.9,-1121.1 -47.4,-377.6 -233.1,-1366.7 -233.1,-1366.7 l 420.7,-83.3 977.6,2470.4 766.8,2232.7 196.5,1150 -1183.5,-154.5"
         style="fill:#f47458;fill-opacity:1;fill-rule:nonzero;stroke:none"
         id="path196" /><path
         d="m 32396,12028 c 0,0 -227.2,-37.5 -396.4,-203.1 -362.9,-355.2 213.3,-1725.1 244.8,-1965.4 31.6,-240.3 -258.6,-800.9 -258.6,-800.9 0,0 1084.3,-200.4 1378.9,-5.9 0,0 34.6,1928.2 3,2099.8 -31.5,171.7 -384.6,701.4 -447.8,770.1 -63.1,68.6 -523.9,105.4 -523.9,105.4"
         style="fill:#fae0b2;fill-opacity:1;fill-rule:nonzero;stroke:none"
         id="path198" /><path
         d="m 31985.7,11663.8 c 28,84.6 123.8,125.3 205.6,90 112,-48.5 266.7,-140.4 342.3,-297.9 126.2,-263.2 568.1,-1167.3 704.8,-1201.6 136.8,-34.3 694.3,938.4 694.3,938.4 0,0 -15.7,171.6 31.6,268.9 47.3,97.3 189.4,200.3 210.4,165.9 21.1,-34.3 -78.9,-120.1 -78.9,-137.3 0,-17.2 42.1,-28.6 100,5.7 57.8,34.4 89.2,103.8 89.2,103.8 0,0 94.9,-172.4 -5.1,-326.9 -99.9,-154.5 -142,-217.4 -142,-217.4 0,0 -647,-1436.2 -883.7,-1453.4 -220.4,-16 -1490,1392.2 -1268.5,2061.8"
         style="fill:#f7a491;fill-opacity:1;fill-rule:nonzero;stroke:none"
         id="path200" /><path
         d="m 32542.1,12613.1 c 0,0 -2.3,-12.9 -6.3,-34.8 -19.6,-105.3 -94.9,-454.5 -145.8,-550.5 -61.5,-116 210.5,-486.1 472.4,-440.9 77.9,13.4 -65.9,340 -59,374.6 13.2,66.2 31.2,156.5 49.5,249.1 10.4,52.3 20.9,105.3 30.7,155 28,141.5 50.9,257.3 50.9,257.3 l -392.4,-9.8"
         style="fill:#f7a491;fill-opacity:1;fill-rule:nonzero;stroke:none"
         id="path202" /><path
         d="m 32535.8,12578.3 c 4,21.9 6.3,34.8 6.3,34.8 l 392.4,9.8 c 0,0 -22.9,-115.8 -50.9,-257.3 -9.8,-49.5 -20.2,-102.1 -30.5,-154.1 -60.6,8.9 -123.9,38.3 -187.3,93.7 -69.2,60.5 -114.6,133.1 -142,210.7 4.9,24.7 8.9,46 12,62.4"
         style="fill:#f47458;fill-opacity:1;fill-rule:nonzero;stroke:none"
         id="path204" /><path
         d="m 32778.1,13545.6 c 0,0 -160,-22.2 -275.9,-171.8 -115.9,-149.6 -240.9,-612.3 47.1,-863.9 287.9,-251.6 572.5,33.2 614.7,335.1 42.2,301.9 33.6,711.5 -385.9,700.6"
         style="fill:#f7a491;fill-opacity:1;fill-rule:nonzero;stroke:none"
         id="path206" /><path
         d="m 33256.1,12948.2 c -34.3,-66.7 -92,-103.6 -128.8,-82.5 -36.8,21.2 -38.8,92.3 -4.4,159 34.3,66.7 92,103.6 128.8,82.5 36.8,-21.1 38.8,-92.3 4.4,-159"
         style="fill:#f7a491;fill-opacity:1;fill-rule:nonzero;stroke:none"
         id="path208" /><path
         d="m 32826.9,13552.6 c 0,0 -247.1,-440 -423.9,-460.3 -176.7,-20.4 -199.9,-254.2 -199.9,-254.2 0,0 63.2,538.8 238.2,642.7 175,103.9 385.6,71.8 385.6,71.8"
         style="fill:#13375b;fill-opacity:1;fill-rule:nonzero;stroke:none"
         id="path210" /><path
         d="m 32460.8,12987.4 c 14.4,-78.1 -14.5,-149.8 -64.5,-160 -50.1,-10.3 -102.3,44.7 -116.7,122.9 -14.3,78.1 14.6,149.8 64.6,160.1 50.1,10.2 102.3,-44.8 116.6,-123"
         style="fill:#f7a491;fill-opacity:1;fill-rule:nonzero;stroke:none"
         id="path212" /><path
         d="m 31193,2803 c -229.2,-41.7 -381.7,92.1 -461.1,192.3 -58.3,-113.5 -94,-255.2 -51.1,-348.4 37.7,-82.1 136.6,-88.7 223.5,-92 91.8,-3.4 181.6,28.8 227.1,108.6 21.3,37.3 43.3,83.7 61.6,139.5"
         style="fill:#3c8f7c;fill-opacity:1;fill-rule:nonzero;stroke:none"
         id="path214" /><path
         d="m 33147.8,2835.4 c -252.4,-64.6 -439,-20.6 -543.3,21.4 -26.9,-76.2 -62.6,-171.7 -43.7,-226.7 23.2,-67.5 56.2,-82.7 85.3,-83.5 230.5,-6 844.4,-14.2 1020.2,-16.5 24.5,-0.3 38.1,28.3 22.3,47.1 -43.6,52 -522,246.8 -540.8,258.2"
         style="fill:#3c8f7c;fill-opacity:1;fill-rule:nonzero;stroke:none"
         id="path216" /><path
         d="m 32339.9,10401.5 568.2,372.9 c 0,0 -236.7,668.8 -497.2,905.5 -260.4,236.7 -383.5,179.3 -437.9,130.2 -150.9,-136.1 -124.3,-467.6 47.3,-876 171.7,-408.3 319.6,-532.6 319.6,-532.6"
         style="fill:#f7cc7f;fill-opacity:1;fill-rule:nonzero;stroke:none"
         id="path218" /><path
         d="m 31447.5,3406.3 c 0,0 -22.2,-391.4 -22.3,-392.2 -8.1,-49.7 -40.2,-172.5 -40.2,-217.7 0,-169.7 755.1,144.1 585.9,219.3 -15.3,6.8 -95.6,58.3 -100.6,116.1 -7.8,89 -27.5,269 -27.5,269 l -395.3,5.5"
         style="fill:#f7a491;fill-opacity:1;fill-rule:nonzero;stroke:none"
         id="path220" /><path
         d="m 31969,3017.3 c 0,0 -177.3,-51.9 -268.1,-64.9 -90.8,-12.9 -219.8,49.1 -284,19.6 -70.7,-32.5 -47.6,-417.3 -47.6,-417.3 0,0 958.8,-24.6 1276.8,-8.1 111.1,5.8 -314.6,349.8 -677.1,470.7"
         style="fill:#f47458;fill-opacity:1;fill-rule:nonzero;stroke:none"
         id="path222" /><path
         d="m 29783.8,3368.8 c 0,0 -22.2,-391.5 -22.3,-392.3 -8.2,-49.7 -40.2,-172.4 -40.2,-217.6 0,-169.7 755.1,144 585.9,219.3 -15.3,6.8 -119.4,96.7 -124.4,154.5 -7.8,89 -3.7,230.6 -3.7,230.6 l -395.3,5.5"
         style="fill:#f7a491;fill-opacity:1;fill-rule:nonzero;stroke:none"
         id="path224" /><path
         d="m 30305.3,2979.8 c 0,0 -177.3,-51.9 -268.1,-64.9 -90.8,-13 -210.5,96.3 -274.7,66.8 -70.7,-32.5 -88.9,-424 -88.9,-424 0,0 1043.2,-46.4 1287.3,-11.6 110.2,15.7 -293.1,312.8 -655.6,433.7"
         style="fill:#f47458;fill-opacity:1;fill-rule:nonzero;stroke:none"
         id="path226" /><path
         d="m 30980.5,9019.3 319.2,-137.7 671.6,-3207.2 -27.2,-2404.3 -538.4,-12.5 c 0,0 -250.4,2103.1 -250.4,2266.1 0,163 -1159.8,2852.3 -1159.8,2852.3 l 985,643.3"
         style="fill:#355389;fill-opacity:1;fill-rule:nonzero;stroke:none"
         id="path228" /><path
         d="m 30734,8842.8 c 0,0 -89.2,-2432.9 -89.2,-2849.4 0,-416.6 -127.1,-2758.3 -127.1,-2758.3 l -749.2,-24.5 c 0,0 -38.9,710.6 -96.8,1756 -9.1,163.7 11.7,494.1 0,663.5 -84,1219.1 -250,2366.7 -170.7,2821.6 12.8,73.2 36.8,264.7 83.5,313 353.4,365.6 1149.5,78.1 1149.5,78.1"
         style="fill:#466eb6;fill-opacity:1;fill-rule:nonzero;stroke:none"
         id="path230" /><path
         d="m 29845.2,12538.2 c 0,0 -372.3,-51.8 -470.4,-123.8 -110.3,-81 -232.8,-262.4 -232.8,-262.4 0,0 457.2,-2161.1 458,-2524.8 0.6,-281.3 -99,-972.1 -99,-972.1 0,0 1381.5,-87.2 1904.8,119.3 0,0 -165.2,821.6 -165.2,1037.3 0,215.8 -197.7,2177.5 -242.7,2314.5 -40.8,124.3 -115.4,347.7 -367.8,402.8 -252.4,55.1 -784.9,9.2 -784.9,9.2"
         style="fill:#f47458;fill-opacity:1;fill-rule:nonzero;stroke:none"
         id="path232" /><path
         d="m 29946.9,13120 -89.1,-583 c 0,0 280,-499.8 481,-437.5 168.6,52.3 118.4,448.9 118.4,448.9 0,0 -91.9,341.4 -64.4,512.3 27.6,170.8 -445.9,59.3 -445.9,59.3"
         style="fill:#f7a491;fill-opacity:1;fill-rule:nonzero;stroke:none"
         id="path234" /><path
         d="m 30392.8,13060.7 c 27.6,170.8 -445.9,59.3 -445.9,59.3 l -7.6,-50.1 c 13.8,-33.4 30.7,-62.1 51.3,-84.1 105.8,-113 271.1,-180.9 414,-186.1 -14.3,92.2 -23.1,190.9 -11.8,261"
         style="fill:#f47458;fill-opacity:1;fill-rule:nonzero;stroke:none"
         id="path236" /><path
         d="m 29869.2,13973.8 c -13.4,4.8 -107.3,-687.4 70.9,-877.8 178.2,-190.4 525.3,-252.8 649.8,-102.8 137.7,165.9 130.8,909.8 -146.2,1105.7 -277,195.9 -574.5,-125.1 -574.5,-125.1"
         style="fill:#f7a491;fill-opacity:1;fill-rule:nonzero;stroke:none"
         id="path238" /><path
         d="m 30338.3,14469.2 c -214.1,-43.4 -352.8,-173.4 -403.8,-228.8 -97.2,-11.4 -229.3,-64.7 -365.8,-289.1 -167.8,-276 -43.8,-581.7 151.5,-731.7 105.5,-81 153,-169.4 174.4,-233.6 7.8,-23.4 41,-23.4 49,0 v 0 c 22.8,67.9 32.1,139.9 24.5,211.1 -4.6,42.7 -13.8,88.9 -31.6,126.9 -47,100.1 100.9,166.7 142.3,250 32,64.2 33.5,211 83.8,317.1 l 60.1,81 c 0,0 138.6,107.1 274.2,76.9 135.6,-30.3 116.1,475.8 -158.6,420.2"
         style="fill:#13375b;fill-opacity:1;fill-rule:nonzero;stroke:none"
         id="path240" /><path
         d="m 30069.7,13450.9 c 1.5,-84.5 -37.2,-153.6 -86.3,-154.5 -49.1,-0.8 -90,67 -91.4,151.4 -1.4,84.5 37.2,153.6 86.3,154.5 49.1,0.8 90,-67 91.4,-151.4"
         style="fill:#f7a491;fill-opacity:1;fill-rule:nonzero;stroke:none"
         id="path242" /><path
         d="m 30794.8,10339.9 8.9,-51.5 c 4.6,-26.5 29.8,-44.3 56.3,-39.7 l 1067.9,184.9 c 26.5,4.6 44.3,29.8 39.7,56.3 l -8.9,51.6 c -4.6,26.5 -29.8,44.3 -56.3,39.7 l -1067.9,-185 c -26.5,-4.6 -44.3,-29.8 -39.7,-56.3"
         style="fill:#13375b;fill-opacity:1;fill-rule:nonzero;stroke:none"
         id="path244" /><path
         d="m 29281,12259.9 c 125.2,3.6 236.1,-822.8 156.6,-904.3 -79.4,-81.5 -94.5,-1099.4 -94.5,-1099.4 l 1181.9,29.4 0.2,-0.4 c 23,15.4 270.6,181.7 306,218.1 37.2,38.1 217.6,19 265.4,-33.4 47.7,-52.4 -92,-34.2 -133.4,-53.9 -46.3,-21.9 16.6,-84.3 16.6,-84.3 0,0 299.6,-43.5 357.9,18.5 58.4,61.9 214.4,166.8 235.6,104.9 11,-32 -69.5,-128.9 -114.8,-169.5 56.6,42.3 124.3,87.3 147.5,79.4 42.5,-14.3 24.8,-68.3 1.8,-84.2 -23,-15.9 -260.8,-197.4 -297.9,-210.1 -36.3,-12.4 -589.4,-26.1 -684.9,-47.3 0,0 -1558.7,-354.9 -1647.3,-332.7 -77.7,19.4 -155.5,518.3 -155.5,900.4 0,382.2 67.3,1657.4 458.8,1668.8"
         style="fill:#f7a491;fill-opacity:1;fill-rule:nonzero;stroke:none"
         id="path246" /><path
         d="m 29443.5,12448.4 c 0,0 -272.4,-63.6 -443.3,-303.3 -178.9,-250.8 -333.9,-1519.1 -333.9,-1519.1 l 707.3,-114.3 56.5,623.5 188.9,285.2 -175.5,1028"
         style="fill:#f47458;fill-opacity:1;fill-rule:nonzero;stroke:none"
         id="path248" /><path
         d="m 32842.1,11959.7 c 0,0 48.9,54.3 141,47.8 92.1,-6.5 212.7,-123.1 229.6,-164.8 8.7,-21.5 -49.2,-191.3 -74.4,-228.6 -14.8,-22.1 -49,-33.1 -61,-21.5 -7.9,7.7 0.4,46.3 2.6,54.6 4.3,16.1 34.8,121.1 34.8,121.1 0,0 -59.5,-105.8 -87.2,-112.2 -27.7,-6.4 -43,16.1 -41.4,24.9 8.4,44.8 54.8,130.8 54.8,130.8 0,0 -69.8,-102.3 -104,-91.6 -34.3,10.8 -20,47.2 -14.9,59.5 5.1,12.4 52.8,83 52.8,83 0,0 -75.6,-104.6 -90.4,-67.2 -9,22.8 40.4,122 40.4,122 l -82.7,42.2"
         style="fill:#f7a491;fill-opacity:1;fill-rule:nonzero;stroke:none"
         id="path250" /><path
         d="m 29405.7,12556.1 1816.4,-1820.4 v -224 l -2079.4,1895.6 263,148.8"
         style="fill:#184655;fill-opacity:1;fill-rule:nonzero;stroke:none"
         id="path252" /><path
         d="m 11081.5,3470.9 c 0,0 125.8,-124.4 128.6,-170 2.9,-45.7 11.2,-534.8 -40.2,-580.4 -51.3,-45.7 -202.1,-78.1 -153.6,-129.4 36.6,-38.8 318.5,-30.5 505.4,-20.1 54.5,3 122.9,444.2 144.6,509 31.3,94.2 144.4,299.1 115.8,364.7 -13.9,32 -117.1,104.9 -210.8,166.2 -98.5,64.5 -192.8,208.2 -192.8,208.2 l -297,-348.2"
         style="fill:#f7a491;fill-opacity:1;fill-rule:nonzero;stroke:none"
         id="path254" /><path
         d="m 9398.94,3165.3 c 0,0 97.49,-279.1 111.12,-318.5 1.01,-2.9 42.89,-181.8 42.89,-228.2 0,-174.4 -775.88,148 -601.99,225.3 15.74,7 65.11,62.9 70.29,122.2 7.98,91.5 -65.36,206.1 -65.36,206.1 l 443.05,-6.9"
         style="fill:#f7a491;fill-opacity:1;fill-rule:nonzero;stroke:none"
         id="path256" /><path
         d="M 8328.2,9284.5 8047.3,8557 c 0,0 -183.27,-1736.1 -76.55,-2775.4 44.63,-434.6 1010.89,-2761.4 1010.89,-2761.4 l 479.91,68.6 -642.81,2755.3 236.54,1053.6 334.73,2082.8 -1061.81,304"
         style="fill:#b75742;fill-opacity:1;fill-rule:nonzero;stroke:none"
         id="path258" /><path
         d="M 9651.5,9246.6 9892.51,8436.5 10259,5991.6 11498.6,3704.5 c 0,0 -186.4,-286.2 -386.5,-331.2 l -1759.39,2311.6 -953.5,2893.8 33.47,642.9 1218.82,25"
         style="fill:#f47458;fill-opacity:1;fill-rule:nonzero;stroke:none"
         id="path260" /><path
         d="m 8511.37,9787.4 c 23.82,63.1 262.7,1313.4 262.7,1313.4 l -594.38,-62.9 -173.39,-1058.5 c -209.67,96.5 -385.33,177.4 -385.33,177.4 0,0 -347.85,157.4 -362.97,181.5 -12.78,20.3 18.22,30.1 -77.03,191.3 -27.49,46.6 -95.88,84.8 -95.88,84.8 0,0 -84.48,46.3 -101.09,30.2 -16.62,-16.2 -13.4,-45 -1.46,-59.2 11.95,-14.2 47.74,-28.7 59.68,-42.9 11.95,-14.2 7.69,-71.9 -1.56,-90.8 -9.21,-19 -253.52,125.5 -253.52,125.5 0,0 -68.05,44.7 -89.48,61.2 -18.28,14.2 -69.69,60.6 -69.69,60.6 0,0 -90.39,69.9 -108.66,45.7 -22.38,-29.7 266.96,-274.9 257.6,-290.6 -11.37,-19 -147.29,57.2 -147.29,57.2 0,0 -55.7,50.2 -86.29,63.8 -29.03,36.5 -103.6,80.6 -123.73,49.7 -3.71,-5.8 75.96,-90.3 75.96,-90.3 0,0 54.29,-46.2 78.8,-69.8 43.23,-41.6 122.46,-81.7 153.9,-107.6 26.15,-21.5 11.03,-22.9 10.89,-26.7 -0.11,-2.9 -38.92,20.4 -92.7,51.4 -27.09,15.6 -60.98,27.4 -89.62,50.4 -26.51,21.2 -67.2,45.3 -92.04,59.2 -70.35,39.3 -82.87,-10.8 -23.32,-57.8 22.69,-18 47.54,-37.3 72.81,-56.8 98.24,-75.7 203.51,-123.9 199.26,-136.3 -5.52,-16 -192.26,83.2 -192.26,83.2 0,0 -116,25.4 -27.96,-43.9 102.17,-80.6 196.28,-121 200.55,-122.5 28.89,-10.4 119.56,-77.2 225.62,-98.1 106.06,-20.9 275.95,-48.7 275.95,-48.7 83.29,-47.2 766.21,-463.2 1178.25,-705.1 l 301.91,367.5 c -34.44,15.4 -100.79,45.7 -184.14,83.8 11.28,15.6 18.17,26.1 19.91,30.7"
         style="fill:#f8a492;fill-opacity:1;fill-rule:nonzero;stroke:none"
         id="path262" /><path
         d="m 8059.9,10679.7 684.04,-70.8 c 0,0 31.37,568.4 31.37,839.5 0,329 -43.65,738.6 -82.84,729.5 -110,-25.6 -242.12,-73.1 -330.32,-195.9 -305.17,-425 -302.25,-1302.3 -302.25,-1302.3"
         style="fill:#3c8f7c;fill-opacity:1;fill-rule:nonzero;stroke:none"
         id="path264" /><path
         d="m 11565.1,3615.1 c 0,0 -264.8,-812.3 -378.3,-852.3 -30.1,-10.6 -199.7,-53.5 -226.9,-118.3 -0.7,-1.7 -1.3,-3.6 -1.7,-5.8 -8.8,-41.1 25.6,-79 67.6,-79 h 538.3 c 0,0 76.4,364.5 106.6,524.7 0,0 160,391.3 142.2,426.9 -17.8,35.6 -247.8,103.8 -247.8,103.8"
         style="fill:#184655;fill-opacity:1;fill-rule:nonzero;stroke:none"
         id="path266" /><path
         d="m 9597.09,2561 -87,285.7 c 0,0 -188.45,-81.2 -281.76,-67.8 -93.29,13.3 -275.45,66.6 -275.45,66.6 -372.4,-124.2 -677.49,-184.5 -622,-284.5 v 0 h 1266.21"
         style="fill:#3c8f7c;fill-opacity:1;fill-rule:nonzero;stroke:none"
         id="path268" /><path
         d="m 9564.47,12216.8 c 0,0 362.08,-50.4 457.33,-120.4 107.4,-78.8 307.6,-393.1 307.6,-393.1 0,0 -559.62,-2035 -532.85,-2387.5 26.78,-352.6 102.65,-874.8 102.65,-874.8 0,0 -1343.39,-84.8 -1852.18,116 0,0 160.67,798.9 160.67,1008.7 0,209.8 90.23,2306.5 154.46,2416.3 64.23,109.8 193.66,172.3 439.13,225.8 245.47,53.6 763.19,9 763.19,9"
         style="fill:#50bfa5;fill-opacity:1;fill-rule:nonzero;stroke:none"
         id="path270" /><path
         d="m 9465.61,12782.5 89.62,-586.8 c 0,0 -313.05,-500.7 -508.44,-440.1 -163.95,50.8 -77.34,471.1 -77.34,471.1 0,0 31.26,116.1 51.26,245.4 13.81,89.3 22.25,184.8 11.3,252.7 -26.8,166.2 433.6,57.7 433.6,57.7"
         style="fill:#f7a491;fill-opacity:1;fill-rule:nonzero;stroke:none"
         id="path272" /><path
         d="m 9032.01,12724.8 c -26.8,166.2 433.6,57.7 433.6,57.7 l 7.43,-48.6 c -13.48,-32.6 -29.94,-60.5 -49.92,-81.8 -102.85,-110 -263.59,-176 -402.57,-181 13.91,89.6 22.45,185.6 11.46,253.7"
         style="fill:#f47458;fill-opacity:1;fill-rule:nonzero;stroke:none"
         id="path274" /><path
         d="m 9541.14,13612.7 c 13.01,4.7 104.3,-668.3 -68.93,-853.5 -173.24,-185.2 -510.77,-245.8 -631.84,-100 -133.91,161.4 -127.18,884.7 142.16,1075.2 269.35,190.5 558.61,-121.7 558.61,-121.7"
         style="fill:#f7a491;fill-opacity:1;fill-rule:nonzero;stroke:none"
         id="path276" /><path
         d="m 9167.07,14030.6 c 208.19,-42.2 533.58,-221.6 666.26,-439.8 163.13,-268.3 42.66,-565.6 -147.25,-711.4 -189.9,-145.9 -187.75,-315.2 -187.75,-315.2 l -29.53,88 c -22.15,66 -31.2,136 -23.79,205.3 4.45,41.5 13.41,86.4 30.72,123.4 45.68,97.4 -98.11,162.1 -138.43,243.1 -31.04,62.4 -32.55,205.2 -81.46,308.3 l -58.41,78.7 c 0,0 -131.62,79.8 -266.6,74.8 -81.46,-3 -30.86,398.9 236.24,344.8"
         style="fill:#f47458;fill-opacity:1;fill-rule:nonzero;stroke:none"
         id="path278" /><path
         d="m 9346.16,13104.2 c -1.37,-82.1 36.2,-149.3 83.93,-150.1 47.73,-0.8 87.53,65.1 88.9,147.2 1.38,82.1 -36.19,149.3 -83.92,150.1 -47.73,0.9 -87.54,-65 -88.91,-147.2"
         style="fill:#f7a491;fill-opacity:1;fill-rule:nonzero;stroke:none"
         id="path280" /><path
         d="m 10124.1,2553.7 h -298.06 v 224.9 h 298.06 v -224.9"
         style="fill:#13375b;fill-opacity:1;fill-rule:nonzero;stroke:none"
         id="path282" /><path
         d="m 10410,7598.7 c 0,26.6 19.8,48.2 44.1,48.2 h 757.5 c 24.4,0 44.2,-21.6 44.2,-48.2 V 6261.3 h 134.2 v 1337.4 c 0,107.5 -80,194.9 -178.4,194.9 h -757.5 c -98.3,0 -178.4,-87.4 -178.4,-194.9 V 6261.3 h 134.3 v 1337.4"
         style="fill:#355389;fill-opacity:1;fill-rule:nonzero;stroke:none"
         id="path284" /><path
         d="m 11805.5,2543.6 -1812.94,101.7 c -96.9,0 -175.46,82.4 -175.46,184.2 l -171.88,3225.1 c -5.39,225.5 250.44,261.2 347.34,261.2 h 1972.74 c 96.9,0 175.5,-82.5 175.5,-184.3 v -3302 c 0.7,-171.2 -167.6,-283 -335.3,-285.9"
         style="fill:#13375b;fill-opacity:1;fill-rule:nonzero;stroke:none"
         id="path286" /><path
         d="M 11751.9,2543.9 H 9861.07 c -119.52,0 -216.41,96.9 -216.41,216.4 V 5998 c 0,119.5 96.9,216.4 216.42,216.4 h 1890.82 c 119.6,0 216.4,-96.9 216.4,-216.4 V 2760.3 c 0,-119.5 -96.8,-216.4 -216.4,-216.4"
         style="fill:#466eb6;fill-opacity:1;fill-rule:nonzero;stroke:none"
         id="path288" /><path
         d="m 11537.2,2543.9 h -1441.3 v 1884.4 c 0,366.1 296.7,662.8 662.8,662.8 h 115.8 c 366,0 662.7,-296.7 662.7,-662.8 V 2543.9"
         style="fill:#355389;fill-opacity:1;fill-rule:nonzero;stroke:none"
         id="path290" /><path
         d="m 10865.2,6454.2 c 182.6,0 337.3,-80.9 343.6,-178.1 h 146.4 c -5.4,160 -222.6,288.7 -490,288.7 -267.3,0 -484.5,-128.7 -490,-288.7 h 146.5 c 6.3,97.2 161,178.1 343.5,178.1"
         style="fill:#13375b;fill-opacity:1;fill-rule:nonzero;stroke:none"
         id="path292" /><path
         d="m 11145.2,7636 h -615.7 c -44.2,0 -80.1,35.8 -80.1,80.1 v 26.9 c 0,44.2 35.9,80.1 80.1,80.1 h 615.7 c 44.2,0 80.1,-35.9 80.1,-80.1 v -26.9 c 0,-44.3 -35.9,-80.1 -80.1,-80.1"
         style="fill:#13375b;fill-opacity:1;fill-rule:nonzero;stroke:none"
         id="path294" /><path
         d="m 10006.5,10803.8 c 0,0 470.7,-823.7 494.2,-1043.4 23.5,-219.6 94.4,-1529.5 94.4,-1529.5 0,0 -94.4,-565 -47.3,-612.1 47,-47.1 180.4,-31.4 219.6,-39.2 29.1,-5.8 122.8,5.6 169.3,11.9 17.5,2.4 34.5,7.2 50.5,14.3 l 64.7,30 c 0,0 -135.1,533 -131.3,571.8 3.7,38.8 113.5,1497.9 50.8,1788.2 -62.8,290.2 -486.4,1263 -486.4,1263 l -478.5,-455"
         style="fill:#f8a492;fill-opacity:1;fill-rule:nonzero;stroke:none"
         id="path296" /><path
         d="m 10806.3,10738.4 -632.5,-329.5 c 0,0 -205.63,480 -339.92,763.6 -135.94,287.1 53.01,959.9 197.72,920.9 323.6,-87.1 774.7,-1355 774.7,-1355"
         style="fill:#96d9c9;fill-opacity:1;fill-rule:nonzero;stroke:none"
         id="path298" /><path
         d="m 9110.9,8697 c 6.35,-106.6 12.09,-213.4 17.24,-320.1 9.54,-156.4 -141.42,-295.9 -334.5,-296.2 -250.97,-0.7 -500.58,16.9 -746.89,52.1 -189.6,27 -309.25,183.9 -272.12,336 24.06,104.2 47.52,208.4 70.38,312.8 35.49,152.8 185.29,250 339.11,228.7 204.31,-28.7 411.58,-42.6 620.19,-41.4 156.95,0.6 295.43,-115.4 306.59,-271.9"
         style="fill:#184655;fill-opacity:1;fill-rule:nonzero;stroke:none"
         id="path300" /><path
         d="m 9862.31,8847.8 c 0,0 -531.95,-148.9 -796.35,-192.5 l 18.89,-270.2 814.35,55.9 -36.89,406.8"
         style="fill:#184655;fill-opacity:1;fill-rule:nonzero;stroke:none"
         id="path302" /><path
         d="m 9016.47,8697 c 6.34,-106.6 12.09,-213.4 17.24,-320.1 9.54,-156.4 -141.42,-295.9 -334.5,-296.2 -250.97,-0.7 -500.58,16.9 -746.89,52.1 -189.6,27 -309.25,183.9 -272.12,336 24.06,104.2 47.51,208.4 70.39,312.8 35.48,152.8 185.28,250 339.1,228.7 204.31,-28.7 411.59,-42.6 620.19,-41.4 156.95,0.6 295.43,-115.4 306.59,-271.9"
         style="fill:#3c8f7c;fill-opacity:1;fill-rule:nonzero;stroke:none"
         id="path304" /><path
         d="m 8434.11,8612.7 c -308.43,0 -566.58,85.8 -582,91.1 l 18.19,53.6 c 5.28,-1.8 532.22,-176.7 968.44,-26 l 18.51,-53.5 c -139.73,-48.3 -286.4,-65.2 -423.14,-65.2"
         style="fill:#184655;fill-opacity:1;fill-rule:nonzero;stroke:none"
         id="path306" /><path
         d="m 8684.19,8625.1 -40.68,-6.7 c -12.05,-1.9 -23.41,6.2 -25.4,18.3 l -3.87,23.4 c -1.99,12 6.16,23.4 18.2,25.4 l 40.69,6.7 c 12.04,2 23.41,-6.2 25.4,-18.2 l 3.87,-23.4 c 1.98,-12.1 -6.16,-23.5 -18.21,-25.5"
         style="fill:#355389;fill-opacity:1;fill-rule:nonzero;stroke:none"
         id="path308" /><path
         d="m 8663.56,8635.1 36.55,-73.1 -39.7,-5.5 z m 9.74,22.7 -27.94,-5.5 -4.72,-117.6 88.13,12.2 -55.47,110.9"
         style="fill:#13375b;fill-opacity:1;fill-rule:nonzero;stroke:none"
         id="path310" /><path
         d="m 11997.8,6849.2 h -743 v 295.6 h 743 v -295.6"
         style="fill:#9bc1f9;fill-opacity:1;fill-rule:nonzero;stroke:none"
         id="path312" /><path
         d="m 12594,11906.4 c -40.4,-887.8 -290.1,-966.5 -295,-978.8 -5.2,-1 -204.6,-153.8 -425.3,48.3 l 73.3,74.2 c 31.6,-32.1 79.7,-61 125.6,-73.9 102.5,-26.6 168.9,24.3 177,26.7 5.4,4.4 57.8,35.9 84,79 128.1,170.7 189.2,614.3 206.5,826.3 l 53.9,-1.8"
         style="fill:#355389;fill-opacity:1;fill-rule:nonzero;stroke:none"
         id="path314" /><path
         d="m 15186.7,12555.3 c 0,0 -108.3,-423 -120.6,-766.9 -12.4,-343.8 -250.2,-630.6 -281.1,-1491.1 -30.9,-860.5 -154.3,-1651.5 -154.3,-1651.5 0,0 -958,-66.4 -1146.6,136.2 -188.6,202.7 -711.4,2008.1 -524.9,2903.6 186.5,895.5 -29,1176.3 397.1,1469.7 426,293.3 980.1,94.6 1214.7,14.9 234.5,-79.6 622.5,-425.2 615.7,-614.9"
         style="fill:#184655;fill-opacity:1;fill-rule:nonzero;stroke:none"
         id="path316" /><path
         d="m 13575.8,11837.8 c 0,0 -84.2,-681.3 0.9,-1377.2 85,-695.9 -50.4,-2068.8 -50.4,-2068.8 0,0 -713.6,-496.6 -923.3,-102.3 -39.4,74 -133.6,953.5 -142.1,1321.2 -10.8,468.2 68.9,2336 68.9,2336 0,0 255,306.6 1046,-108.9"
         style="fill:#f7cc7f;fill-opacity:1;fill-rule:nonzero;stroke:none"
         id="path318" /><path
         d="m 13369.2,12684.6 c -243.3,-64.8 -283.8,-999.7 -283.8,-999.7 l -771.3,88.2 c 0,0 140.6,974.8 547.9,1382.1 407.4,407.3 1436.8,158.3 1828.1,-95.3 391.4,-253.6 221.6,-576.6 221.6,-576.6 0,0 -1299.2,266.2 -1542.5,201.3"
         style="fill:#13375b;fill-opacity:1;fill-rule:nonzero;stroke:none"
         id="path320" /><path
         d="m 13723.3,10897.8 c 563,0 1042.1,556.3 1070,585 l 20.6,152.5 c -6.5,-6.8 -567.5,-598.5 -1086.5,-598.5 l -4.1,-139"
         style="fill:#13375b;fill-opacity:1;fill-rule:nonzero;stroke:none"
         id="path322" /><path
         d="m 13572.1,10578.5 -7.6,115.7 c -250,27.1 -846.7,579.4 -1068.2,794.6 l -3.3,-144.2 c 33.6,-32.7 742.5,-729.6 1079.1,-766.1"
         style="fill:#13375b;fill-opacity:1;fill-rule:nonzero;stroke:none"
         id="path324" /><path
         d="m 13608.6,9691.7 -2.3,112.6 c -192.7,-84.5 -887.5,-29.8 -1153.1,0 l 1.4,-109.7 c 245,-27.2 926.9,-102.4 1154,-2.9"
         style="fill:#13375b;fill-opacity:1;fill-rule:nonzero;stroke:none"
         id="path326" /><path
         d="m 13574,8979.2 10,126.6 c -230.5,-99.9 -832.6,-354.1 -1066,-303.4 l 13.1,-105.5 c 268,-58.1 793.1,174.4 1042.9,282.3"
         style="fill:#13375b;fill-opacity:1;fill-rule:nonzero;stroke:none"
         id="path328" /><path
         d="m 13550.7,8570.9 8,104.1 c -100.8,0 -693.6,247.3 -1069.9,403.7 l 14.6,-126.3 c 101.7,-42.3 892.6,-381.5 1047.3,-381.5"
         style="fill:#13375b;fill-opacity:1;fill-rule:nonzero;stroke:none"
         id="path330" /><path
         d="m 13236.5,8639.6 h 238.8 c 86.1,0 155.9,69.8 155.9,155.9 v 1394.6 c 0,86.1 -69.8,155.9 -155.9,155.9 h -238.8 c -86.1,0 -156,-69.8 -156,-155.9 V 8795.5 c 0,-86.1 69.9,-155.9 156,-155.9"
         style="fill:#50bfa5;fill-opacity:1;fill-rule:nonzero;stroke:none"
         id="path332" /><path
         d="m 13631.2,9723.1 h -550.7 V 9838 h 550.7 v -114.9"
         style="fill:#13375b;fill-opacity:1;fill-rule:nonzero;stroke:none"
         id="path334" /><path
         d="m 13190.5,3835.6 c 0,0 -255.1,-233.4 -255.7,-233.8 -35.7,-26.4 -131.5,-84.1 -159.4,-112.6 -104.5,-107.1 565.3,-374.2 504.8,-222.5 -5.5,13.8 -15.7,134.6 16.7,174.1 49.9,61 139.7,147.8 139.7,147.8 l -246.1,247"
         style="fill:#f7a491;fill-opacity:1;fill-rule:nonzero;stroke:none"
         id="path336" /><path
         d="m 13280,3268.9 c 0,0 -143.8,76.4 -209.1,124.1 -65.3,47.8 -73.6,190.5 -132.3,211.4 -64.6,23 -336.1,-253.7 -336.1,-253.7 0,0 530.7,-574.9 808.4,-766.4 59.8,-41.3 132.3,-28.1 158,-28.6 98.1,-1.7 -134.6,413.7 -288.9,713.2"
         style="fill:#184655;fill-opacity:1;fill-rule:nonzero;stroke:none"
         id="path338" /><path
         d="m 16402.3,3383 c 0,0 79.2,-382.1 79.3,-382.9 4.9,-49.9 5.6,-176.2 17.2,-219.6 43.6,-163.2 689.2,332.4 507.1,361.3 -16.5,2.6 -98.4,35.4 -126.5,85.8 -49,87.6 -95.5,251.7 -95.5,251.7 l -381.6,-96.3"
         style="fill:#f7a491;fill-opacity:1;fill-rule:nonzero;stroke:none"
         id="path340" /><path
         d="m 17003.7,3142.9 c 0,0 -157.2,-95.5 -241.2,-131.3 -83.9,-35.8 -237.6,63.6 -291.8,18.7 -59.6,-49.4 37.5,-487 37.5,-487 0,0 1104.4,291.7 1339.3,443.2 93.1,60 -464.2,133.1 -843.8,156.4"
         style="fill:#184655;fill-opacity:1;fill-rule:nonzero;stroke:none"
         id="path342" /><path
         d="m 17175.8,8892.4 c -176.2,77.4 -183.6,45.4 -205.9,55.9 -26.4,12.4 -221,342.8 -221,342.8 0,0 -580.3,969.9 -609.7,1023.4 l -115.6,1168.7 -614.8,88.4 c 0,0 160.7,-1266.9 181.1,-1331.3 20.3,-64.4 965.1,-1281 1044.6,-1390.9 0,0 43.9,-166.8 75,-270.6 31.2,-103.7 108.7,-187 122.1,-214.7 2,-4.1 52.4,-93.7 145.2,-187 80,-80.3 43.2,32.9 43.2,32.9 0,0 -119.7,175.7 -103.5,183 12.5,5.6 71.9,-94.3 159.4,-184.2 22.5,-23.1 44.8,-45.8 65.5,-66.5 54.2,-54.3 105.2,-36.3 58.1,29.7 -16.7,23.3 -45.3,61.4 -69.8,85.5 -26.4,26.1 -41.7,58.7 -60.3,84.1 -37,50.3 -64.7,86.5 -61.7,87 3.9,0.5 4,15.8 28.7,-8 29.7,-28.5 78.5,-103.3 125.6,-141.9 26.8,-21.9 79.6,-71.1 79.6,-71.1 0,0 94.7,-59.3 100.4,-54.9 30.4,23.5 -21.9,82.2 -62.4,107.2 -16.9,29 -74,79.2 -74,79.2 0,0 -91.4,127.4 -72.5,140.9 8,5.8 73.8,-65.5 150,-125.2 70.8,-55.4 152,-99.8 165.9,-87.4 23.6,20.9 -48,90.8 -48,90.8 0,0 -52.9,46.3 -69.2,63 -19.1,19.6 -71.6,82.7 -71.6,82.7 0,0 -171.9,228.3 -153.1,239.6 18.9,11.4 78.6,22 94.4,11.6 15.9,-10.3 34.1,-44.5 49.9,-54.9 15.8,-10.4 46.1,-10.4 61.4,8 15.3,18.4 -40.4,97.8 -40.4,97.8 0,0 -45.7,64.1 -96.6,86.4"
         style="fill:#f8a492;fill-opacity:1;fill-rule:nonzero;stroke:none"
         id="path344" /><path
         d="m 15459.5,12552.4 c 475.8,-113 595.7,-1171.4 624.5,-1308.1 -157.7,-55.3 -344.8,-111 -506.7,-158 l -193.8,1487.4 c 0,0 26.9,-9.7 76,-21.3"
         style="fill:#3c8f7c;fill-opacity:1;fill-rule:nonzero;stroke:none"
         id="path346" /><path
         d="m 15807.9,8625.4 684.4,-2726.5 432.7,-2640.4 -538.8,-72.4 c 0,0 -758.9,2019.2 -780,2251.6 -21.1,232.4 -402.1,1318.8 -402.1,1318.8 l 603.8,1868.9"
         style="fill:#355389;fill-opacity:1;fill-rule:nonzero;stroke:none"
         id="path348" /><path
         d="m 14210.7,8941 c 0,0 51.2,-2614.2 9,-2857.2 -42.3,-242.9 -1188.8,-2315.6 -1188.8,-2315.6 l 386,-418.2 c 0,0 1640.5,1895.8 1712.8,2063 113.3,262.1 672.9,3217.7 672.9,3217.7 L 14210.7,8941"
         style="fill:#13375b;fill-opacity:1;fill-rule:nonzero;stroke:none"
         id="path350" /><path
         d="m 14839.4,12558.6 c 0,0 -290.7,26.6 -406.9,-248 -116.2,-274.7 -232.4,-1595 -179.6,-2228.8 52.9,-633.8 -110.2,-1379.4 -110.2,-1379.4 1013.2,-522.6 1673.6,-88.9 1673.6,-88.9 0,0 267.5,2425.3 169,2873.2 -206,936.1 -601.8,1087 -601.8,1087 l -544.1,-15.1"
         style="fill:#96d9c9;fill-opacity:1;fill-rule:nonzero;stroke:none"
         id="path352" /><path
         d="m 14034.4,8191.1 c -109.8,178.3 -134.4,153 -147.9,176.2 -15.9,27.5 1.8,452 1.8,452 0,0 44,1251.4 48.7,1318.9 l 562,1155.3 -485.8,453.6 c 0,0 -578.5,-1273.9 -597.3,-1346 -18.8,-72.2 115,-1772.9 122.1,-1923 0,0 -56.4,-181.5 -88,-296.6 -31.7,-115.2 -11.4,-239.4 -15.4,-273.3 -0.6,-5 -7.5,-118.6 20.6,-261.3 24.1,-123 56.3,4.3 56.3,4.3 0,0 -4.8,235.6 13.5,232.6 14.1,-2.3 9.2,-131 34.6,-267.4 6.5,-35 13.1,-69.6 19.3,-101.3 16.5,-83.2 71.2,-97.2 67.5,-7.5 -1.3,31.7 -4.7,84.3 -12.3,121.5 -8.2,40.2 -3.1,79.7 -5,114.6 -3.7,69.1 -7.3,119.5 -4.4,118 3.8,-1.8 12.5,12.3 20.6,-24.7 9.6,-44.5 9.8,-143.4 29,-207.7 10.8,-36.5 29.1,-114.1 29.1,-114.1 0,0 48.9,-112.3 56.3,-111.7 39.9,3.5 27.6,89.6 6.4,137.3 1.8,37.2 -19.6,118.3 -19.6,118.3 0,0 -7.3,173.5 16.7,174.7 10.3,0.5 27.2,-105.5 59.9,-207 30.2,-94.2 75.9,-184.5 95,-181.4 32.4,5.2 9.7,113.4 9.7,113.4 0,0 -19.9,74.9 -24.6,100.3 -5.6,29.7 -15.6,120.1 -15.6,120.1 0,0 -20.4,315.9 2.4,315 22.9,-0.9 81,-27 88.9,-46.2 8,-19.2 4.4,-62 12.4,-81.2 7.9,-19.2 34.3,-37.5 58.1,-29.6 23.7,7.8 20.2,115.1 20.2,115.1 0,0 -3.5,87.3 -35.2,138.8"
         style="fill:#f8a492;fill-opacity:1;fill-rule:nonzero;stroke:none"
         id="path354" /><path
         d="m 13773.9,11408.8 636.9,-492.4 c 0,0 281.2,267.3 422.5,562.9 143,299.2 -31.2,1087.8 -183.4,1047.2 -340.4,-90.8 -876,-1117.7 -876,-1117.7"
         style="fill:#3c8f7c;fill-opacity:1;fill-rule:nonzero;stroke:none"
         id="path356" /><path
         d="m 15151.1,14211.7 c 0,0 -217.8,173 -339,-87.9 0.9,2.1 -81.5,8.3 -93,5.5 -48.9,-11.8 -99.1,-56.7 -143.8,-79.8 -159.2,-82.3 -244.9,-261 -267.8,-429.8 -27.9,-204.9 45.5,-362.6 170.2,-522.7 36.8,-47.2 76.4,-93.6 127.1,-126 61.1,-39.2 114.1,-16.6 173,-36 49.7,-16.3 62.9,-70.4 124.4,-56.5 86.1,19.6 183.1,115.3 285.7,91.3 102.4,-23.9 350.1,47.7 350.7,47.9 318.2,92.2 161.2,695.4 120.3,908.3 -38.5,200.1 -311.2,340.4 -507.8,285.7"
         style="fill:#9bc1f9;fill-opacity:1;fill-rule:nonzero;stroke:none"
         id="path358" /><path
         d="m 15313.5,12857.3 61.3,-221.2 32.7,-123.5 c 0,0 117.1,-147.8 49,-180.7 -287.9,-138.9 -545.8,211.1 -545.8,211.1 l -55.4,684.3 458.2,-370"
         style="fill:#f7a491;fill-opacity:1;fill-rule:nonzero;stroke:none"
         id="path360" /><path
         d="m 14873.3,13005.6 c 118.8,-220.4 346.6,-335.7 502.1,-371.6 l -61.9,223.3 -458.2,370 18,-221.7"
         style="fill:#f47458;fill-opacity:1;fill-rule:nonzero;stroke:none"
         id="path362" /><path
         d="m 15009.1,13912.6 c 193.1,94.8 426.6,-9.1 485.2,-210.1 25.4,-87.3 52.7,-197.8 71.5,-320 45.3,-293.9 -71.1,-600.9 -207.2,-618.7 -136.1,-17.8 -538.1,123.9 -608.2,540.4 -43.3,257.1 56.1,508.8 258.7,608.4"
         style="fill:#f7a491;fill-opacity:1;fill-rule:nonzero;stroke:none"
         id="path364" /><path
         d="m 14855.1,13284.2 c 8.8,-65 -27.9,-123.4 -82,-130.5 -54,-7 -105,39.9 -113.8,104.9 -8.8,65 28,123.4 82,130.5 54.1,7 105,-39.9 113.8,-104.9"
         style="fill:#f7a491;fill-opacity:1;fill-rule:nonzero;stroke:none"
         id="path366" /><path
         d="m 15257.3,13130 c 0,0 -181,-41.7 -200.9,-104.1 -19.9,-62.3 -6.3,-156 73.8,-233.9 80.1,-77.8 268.3,-49.8 322,-15.2 53.7,34.7 106.3,196.3 64,292.3 -42.3,96.1 -258.9,60.9 -258.9,60.9"
         style="fill:#9bc1f9;fill-opacity:1;fill-rule:nonzero;stroke:none"
         id="path368" /><path
         d="m 15188.3,13001.8 c 0,0 -5.1,-70.9 17.8,-85.7 22.3,-14.3 51,-27.2 78.1,-32.1 43.9,-7.8 85.5,7.4 111.8,39 2.5,3.1 4.9,6.4 7,9.8 21.1,33.8 30.1,95.9 30.1,95.9 0,0 -72.7,23.9 -116.5,20.4 -43.7,-3.4 -128.3,-47.3 -128.3,-47.3"
         style="fill:#f7a491;fill-opacity:1;fill-rule:nonzero;stroke:none"
         id="path370" /><path
         d="m 15202.9,11231.3 c 13.3,545.5 -20.7,1295.1 -542.7,1507.9 -186.5,77.9 -414.3,-9.7 -587,-73.8 v 0 c 212,29.5 411.9,-51.9 515.1,-109.6 429.7,-216.4 426.3,-836.7 410.8,-1319.7 -39.2,-1214.6 -973.1,-1086 -973.1,-1086 l -21.7,-80.8 c 0,0 350.8,-114.8 798.3,105.3 356.9,175.5 400.3,1056.7 400.3,1056.7"
         style="fill:#184655;fill-opacity:1;fill-rule:nonzero;stroke:none"
         id="path372" /><path
         d="m 11018.5,15817.4 -83.7,-154.7 -263.6,107.2 -150.3,-211 -210.4,48 -24.3,-106.5 281.4,-64.2 142.4,200 274.3,-111.5 126,232.7 -91.8,60"
         style="fill:#50bfa5;fill-opacity:1;fill-rule:nonzero;stroke:none"
         id="path374" /><path
         d="m 29695.2,17377.2 -68.6,-179.2 151,-88.9 -92.4,-199.8 209.3,-42.2 -93.8,-227.4 180.5,-61.5 -51.6,-222.3 -95.2,-5.3 38.6,166.2 -190.5,64.9 90.2,218.5 -212.8,42.9 102,220.5 -147.5,86.8 63.6,166.1 -116.7,35.6 52.2,80.5 181.7,-55.4"
         style="fill:#9bc1f9;fill-opacity:1;fill-rule:nonzero;stroke:none"
         id="path376" /><path
         d="m 7394.48,14222.9 c 151.84,-277.6 49.94,-625.6 -227.61,-777.4 -277.55,-151.8 -625.65,-49.8 -777.5,227.7 -151.86,277.6 -49.95,625.6 227.6,777.4 277.55,151.8 625.66,49.8 777.51,-227.7"
         style="fill:#f7cc7f;fill-opacity:1;fill-rule:nonzero;stroke:none"
         id="path378" /><path
         d="m 6666.79,13721.5 c 81.18,-148.4 267.3,-202.9 415.7,-121.8 148.39,81.2 202.87,267.3 121.68,415.7 l -537.38,-293.9"
         style="fill:#efefef;fill-opacity:1;fill-rule:nonzero;stroke:none"
         id="path380" /><path
         d="m 21586.9,17068.8 -224.2,-56 -130,350.8 -338,-41.5 -140.2,246.7 -124.9,-71 187.6,-329.9 320.3,39.3 135.2,-364.9 337.4,84.3 -23.2,142.2"
         style="fill:#466eb6;fill-opacity:1;fill-rule:nonzero;stroke:none"
         id="path382" /><path
         d="m 16463.9,15538.8 218.6,68.8 c 0,0 214.9,292.3 201.4,369.2 -13.5,77 -105.3,221.1 -68.2,253.5 37.1,32.5 123.5,74.9 210,-6.7 62.8,-59.2 105.1,-330.6 136.1,-340.5 19.4,-6.1 146.1,29.8 238.3,57.6 60.6,18.2 126.5,0.7 171.1,-45.5 l 0.1,-0.2 c 30.1,-31.2 34.8,-79.4 11.2,-115.5 l -36.7,-56.2 54,-40.8 c 40.2,-30.4 49,-87.8 19.7,-128.5 l -29.9,-41.5 35.6,-22.9 c 45.8,-29.5 56.6,-92.6 23.1,-135.3 l -27.1,-34.7 8,-8.2 c 33.4,-34 35.9,-88 5.8,-124.3 l -27.7,-33.5 -582.2,-183.2 c -54.6,-17.1 -112.1,-22.7 -169.1,-16.5 l -215.6,-29.9 c -23.2,-3.2 -45.4,11.3 -52.1,34.1 l -155.2,521.4 c -7.5,25.2 6.2,51.6 30.8,59.3"
         style="fill:#fae0b2;fill-opacity:1;fill-rule:nonzero;stroke:none"
         id="path384" /><path
         d="m 27076.5,16837.9 -200.9,16.2 -27.4,-185.8 -198.7,7.2 -48.1,-174.4 -149.5,-18.8 9.5,-75.8 200,25.3 45.6,165.3 206.7,-7.6 27,182.8 182,-14.7 -46.2,80.3"
         style="fill:#f48c7f;fill-opacity:1;fill-rule:nonzero;stroke:none"
         id="path386" /><path
         d="m 9295.75,15751.7 -136.33,-152 47.94,-198.5 c 3.88,-16 -12.32,-29.5 -27.4,-22.9 l -186.71,82.7 -173.96,-106.9 c -14.06,-8.7 -31.92,2.6 -30.22,19 l 20.93,203.1 -155.46,132.4 c -12.56,10.7 -7.4,31.1 8.73,34.6 l 199.65,42.9 77.88,188.7 c 6.29,15.3 27.33,16.7 35.62,2.4 l 102.45,-176.6 203.59,-15.7 c 16.46,-1.3 24.3,-20.9 13.29,-33.2"
         style="fill:#fed333;fill-opacity:1;fill-rule:nonzero;stroke:none"
         id="path388" /><path
         d="m 12600.6,16584.6 -163.2,-50.1 -51.1,-162.8 c -4.2,-13.2 -21.6,-15.9 -29.5,-4.6 l -98.1,139.7 -170.7,-1.7 c -13.8,-0.1 -21.7,15.6 -13.4,26.7 l 102.5,136.4 -54.3,161.8 c -4.4,13.1 8.1,25.5 21.1,21 l 161.5,-55.3 137.1,101.7 c 11.1,8.2 26.7,0.1 26.5,-13.7 l -2.7,-170.6 139,-99 c 11.3,-8 8.5,-25.4 -4.7,-29.5"
         style="fill:#fed333;fill-opacity:1;fill-rule:nonzero;stroke:none"
         id="path390" /><path
         d="m 14731.2,15225.5 c 0,-38.9 -179.6,-70.5 -401,-70.5 -221.5,0 -401,31.6 -401,70.5 0,38.9 179.5,70.5 401,70.5 221.4,0 401,-31.6 401,-70.5"
         style="fill:#f48c7f;fill-opacity:1;fill-rule:nonzero;stroke:none"
         id="path392" /><path
         d="m 14330.2,16013.7 c -77.4,0 -140.2,62.7 -140.2,140.1 0,77.4 62.8,140.2 140.2,140.2 77.4,0 140.1,-62.8 140.1,-140.2 0,-77.4 -62.7,-140.1 -140.1,-140.1 z m 0,466 c -182.5,0 -330.4,-131.9 -330.4,-294.7 0,-162.8 330.4,-959.5 330.4,-959.5 0,0 330.3,796.7 330.3,959.5 0,162.8 -147.9,294.7 -330.3,294.7"
         style="fill:#f47458;fill-opacity:1;fill-rule:nonzero;stroke:none"
         id="path394" /><path
         d="m 34819.6,16439.4 -590.4,-194.3 223.7,456.9 z"
         style="fill:#50bfa5;fill-opacity:1;fill-rule:nonzero;stroke:none"
         id="path396" /><path
         d="m 36806.3,16172.3 248.7,-1195 1652.3,344 c 51.7,10.8 84.9,61.4 74.1,113.1 l -209.8,1007.7 c -10.8,51.7 -61.4,84.9 -113.1,74.2 l -1652.2,-344"
         style="fill:#d9e5ef;fill-opacity:1;fill-rule:nonzero;stroke:none"
         id="path398" /><path
         d="m 37317,15432.9 70,189.5 -83.6,-10.3 c -5,-0.6 -9.1,-4.2 -10.4,-9.1 l -51.3,-196.5 58.1,12.1 c 7.7,1.6 14.2,6.9 17.2,14.3"
         style="fill:#355389;fill-opacity:1;fill-rule:nonzero;stroke:none"
         id="path400" /><path
         d="m 37130.9,15538.5 35,56.1 -35.4,-5.4 c -2.2,-0.3 -4,-1.5 -4.7,-2.9 l -27.3,-57.6 24.8,5.2 c 3.3,0.7 6.1,2.4 7.6,4.6"
         style="fill:#355389;fill-opacity:1;fill-rule:nonzero;stroke:none"
         id="path402" /><path
         d="m 37228.2,15859.5 139.8,-145.9 -80.7,-23.9 c -4.9,-1.4 -10.1,0.2 -13.3,4.2 l -125.4,159.7 58.1,12.1 c 7.7,1.6 15.8,-0.7 21.5,-6.2"
         style="fill:#355389;fill-opacity:1;fill-rule:nonzero;stroke:none"
         id="path404" /><path
         d="m 37099.7,15688.4 54.4,-37.5 -34.6,-9.2 c -2,-0.6 -4.2,-0.3 -5.4,0.8 l -48,41.9 24.7,5.1 c 3.4,0.7 6.7,0.3 8.9,-1.1"
         style="fill:#355389;fill-opacity:1;fill-rule:nonzero;stroke:none"
         id="path406" /><path
         d="m 37371.7,15709.8 -235.8,-70.8 c -10.5,-3.1 -43.3,-19.4 -41.1,-30.2 2.3,-10.8 38.8,-12.6 49.8,-11.3 l 244.4,29.2 c 24.8,3 126.2,44.1 121.1,68.6 -5.1,24.4 -114.5,21.7 -138.4,14.5"
         style="fill:#355389;fill-opacity:1;fill-rule:nonzero;stroke:none"
         id="path408" /><path
         d="m 37141.4,15825.3 -152.3,-31.7 c -3.5,-0.7 -6.9,1.5 -7.6,4.9 v 0 c -0.7,3.5 1.5,6.9 4.9,7.6 l 152.4,31.7 c 3.4,0.7 6.8,-1.5 7.6,-4.9 v 0 c 0.7,-3.5 -1.6,-6.9 -5,-7.6"
         style="fill:#355389;fill-opacity:1;fill-rule:nonzero;stroke:none"
         id="path410" /><path
         d="m 37165.7,15782.2 -152.3,-31.7 c -3.4,-0.7 -6.9,1.5 -7.6,4.9 v 0 c -0.7,3.5 1.5,6.9 5,7.6 l 152.3,31.7 c 3.5,0.7 6.9,-1.5 7.6,-4.9 v 0 c 0.7,-3.5 -1.5,-6.9 -5,-7.6"
         style="fill:#355389;fill-opacity:1;fill-rule:nonzero;stroke:none"
         id="path412" /><path
         d="m 37224.3,15426.9 -152.3,-31.7 c -3.5,-0.7 -5.7,-4.1 -5,-7.5 v 0 c 0.7,-3.5 4.2,-5.7 7.6,-5 l 152.3,31.7 c 3.5,0.7 5.7,4.2 5,7.6 v 0 c -0.7,3.4 -4.1,5.7 -7.6,4.9"
         style="fill:#355389;fill-opacity:1;fill-rule:nonzero;stroke:none"
         id="path414" /><path
         d="m 37229.5,15476.2 -152.4,-31.7 c -3.4,-0.7 -5.7,-4.2 -5,-7.6 v 0 c 0.8,-3.4 4.2,-5.7 7.6,-5 l 152.4,31.8 c 3.4,0.7 5.6,4.1 4.9,7.5 v 0 c -0.7,3.5 -4.1,5.7 -7.5,5"
         style="fill:#355389;fill-opacity:1;fill-rule:nonzero;stroke:none"
         id="path416" /><path
         d="m 39355.4,16703 -667.8,-139.1 c -74.8,-15.5 -126.8,-70.1 -116,-121.8 l 209.8,-1007.7 c 10.8,-51.7 80.2,-81 155,-65.4 l 667.8,139 -248.8,1195"
         style="fill:#d9e5ef;fill-opacity:1;fill-rule:nonzero;stroke:none"
         id="path418" /><path
         d="m 36990.7,15286.5 64.3,-309.2 1652.3,344 c 51.7,10.8 84.9,61.4 74.1,113.1 l -44.9,215.5 -1745.8,-363.4"
         style="fill:#86b1f2;fill-opacity:1;fill-rule:nonzero;stroke:none"
         id="path420" /><path
         d="m 38620.1,16209.2 -48.5,232.9 c -10.8,51.7 -61.4,84.9 -113.1,74.2 l -1652.2,-344 67.9,-326.6 1745.9,363.5"
         style="fill:#86b1f2;fill-opacity:1;fill-rule:nonzero;stroke:none"
         id="path422" /><path
         d="m 38573.5,16051.8 -858.2,-178.7 -13.3,64 858.2,178.7 13.3,-64"
         style="fill:#466eb6;fill-opacity:1;fill-rule:nonzero;stroke:none"
         id="path424" /><path
         d="m 39265.9,16154.6 -351.7,-73.2 -13.4,64 351.8,73.2 13.3,-64"
         style="fill:#466eb6;fill-opacity:1;fill-rule:nonzero;stroke:none"
         id="path426" /><path
         d="m 39322.3,16509.5 -652.5,-135.9 -13.3,64 652.5,135.9 13.3,-64"
         style="fill:#466eb6;fill-opacity:1;fill-rule:nonzero;stroke:none"
         id="path428" /><path
         d="m 38596.5,15941.3 -858.2,-178.7 -13.3,64 858.2,178.7 13.3,-64"
         style="fill:#466eb6;fill-opacity:1;fill-rule:nonzero;stroke:none"
         id="path430" /><path
         d="m 38622.1,15818.8 -858.3,-178.7 -13.3,64 858.2,178.7 13.4,-64"
         style="fill:#466eb6;fill-opacity:1;fill-rule:nonzero;stroke:none"
         id="path432" /><path
         d="m 39604.2,15508 -436.2,-90.8 -8.3,40.1 436.1,90.8 8.4,-40.1"
         style="fill:#466eb6;fill-opacity:1;fill-rule:nonzero;stroke:none"
         id="path434" /><path
         d="m 39592.9,15562.1 -436.1,-90.8 -6.4,30.9 436.1,90.7 6.4,-30.8"
         style="fill:#466eb6;fill-opacity:1;fill-rule:nonzero;stroke:none"
         id="path436" /><path
         d="m 39583.6,15606.9 -436.1,-90.7 -6.5,30.8 436.2,90.8 6.4,-30.9"
         style="fill:#466eb6;fill-opacity:1;fill-rule:nonzero;stroke:none"
         id="path438" /><path
         d="m 39520.4,15910.3 -436.1,-90.8 -6.4,30.9 436.1,90.8 6.4,-30.9"
         style="fill:#466eb6;fill-opacity:1;fill-rule:nonzero;stroke:none"
         id="path440" /><path
         d="m 39512.3,15949.4 -436.1,-90.8 -4,19.2 436.1,90.8 4,-19.2"
         style="fill:#466eb6;fill-opacity:1;fill-rule:nonzero;stroke:none"
         id="path442" /><path
         d="m 39506.6,15976.8 -436.2,-90.8 -4,19.3 436.2,90.8 4,-19.3"
         style="fill:#466eb6;fill-opacity:1;fill-rule:nonzero;stroke:none"
         id="path444" /><path
         d="m 39574.3,15651.8 -436.2,-90.8 -11.7,56.4 436.1,90.8 11.8,-56.4"
         style="fill:#466eb6;fill-opacity:1;fill-rule:nonzero;stroke:none"
         id="path446" /><path
         d="m 39560.8,15716.4 -436.2,-90.8 -11.7,56.5 436.2,90.8 11.7,-56.5"
         style="fill:#466eb6;fill-opacity:1;fill-rule:nonzero;stroke:none"
         id="path448" /><path
         d="m 39547.4,15781.1 -436.2,-90.8 -11.7,56.4 436.1,90.8 11.8,-56.4"
         style="fill:#466eb6;fill-opacity:1;fill-rule:nonzero;stroke:none"
         id="path450" /><path
         d="m 39533.9,15845.7 -436.2,-90.8 -11.7,56.4 436.1,90.8 11.8,-56.4"
         style="fill:#466eb6;fill-opacity:1;fill-rule:nonzero;stroke:none"
         id="path452" /><path
         d="m 38961.2,16199.3 -68.6,-14.3 -35.9,172.5 68.6,14.3 35.9,-172.5"
         style="fill:#466eb6;fill-opacity:1;fill-rule:nonzero;stroke:none"
         id="path454" /><path
         d="m 39045.6,16216.8 -68.6,-14.2 -35.9,172.5 68.6,14.3 35.9,-172.6"
         style="fill:#466eb6;fill-opacity:1;fill-rule:nonzero;stroke:none"
         id="path456" /><path
         d="m 39159.9,16240.6 -68.6,-14.2 -35.9,172.5 68.6,14.3 35.9,-172.6"
         style="fill:#466eb6;fill-opacity:1;fill-rule:nonzero;stroke:none"
         id="path458" /><path
         d="m 39244.3,16258.2 -68.5,-14.3 -36,172.6 68.6,14.3 35.9,-172.6"
         style="fill:#466eb6;fill-opacity:1;fill-rule:nonzero;stroke:none"
         id="path460" /><path
         d="m 24613.8,16977.1 -999.1,-919.7 -405.8,671.5 z"
         style="fill:#466eb6;fill-opacity:1;fill-rule:nonzero;stroke:none"
         id="path462" /><path
         d="m 23197.9,17040.4 11,-311.5 1404.9,248.2 z"
         style="fill:#9bc1f9;fill-opacity:1;fill-rule:nonzero;stroke:none"
         id="path464" /><path
         d="m 23186.2,16615.4 1427.6,361.7 -1426.4,-834.4 z"
         style="fill:#9bc1f9;fill-opacity:1;fill-rule:nonzero;stroke:none"
         id="path466" /><path
         d="m 23146.9,16066.4 c 0,0.2 0,0.3 0,0.4 0,-0.1 0,-0.3 0,-0.4 z m -1042,-543.5 c 2,19.7 19.6,34.1 39.3,32.1 2.2,-0.2 228,-21 537.5,95.4 304.9,114.7 455.4,383.4 465.3,416.7 4.2,19 22.9,31.3 42,27.5 19.5,-3.9 32.1,-22.8 28.2,-42.2 -10.2,-50.9 -182.5,-345.8 -510.2,-469.1 -326.5,-122.8 -560.3,-100.6 -570.1,-99.6 -19.7,2 -34,19.6 -32,39.2"
         style="fill:#f7cc7f;fill-opacity:1;fill-rule:nonzero;stroke:none"
         id="path468" /><path
         d="m 20648.7,15449.8 c 422.6,0.3 841.2,72.7 1244.3,215.2 332,117.3 625,338.8 957.6,427.8 19.1,5.1 30.4,24.8 25.3,43.9 -5.1,19.1 -24.7,30.5 -43.9,25.4 -344.2,-92.2 -635.3,-313.7 -962.9,-429.5 -395.4,-139.7 -806,-210.8 -1220.5,-211.2 -152.3,-0.1 -328,23.8 -522.2,71.1 -19.3,4.7 -38.6,-7.1 -43.3,-26.4 -4.7,-19.2 7.1,-38.6 26.3,-43.3 172.5,-41.9 361,-73.2 539.3,-73"
         style="fill:#f7cc7f;fill-opacity:1;fill-rule:nonzero;stroke:none"
         id="path470" /><path
         d="m 43923.2,8445.5 c 0,0 -69.5,33.1 -132.8,150.3 -40.6,75.2 -161.2,171.6 -111,187.2 50.2,15.5 127.1,-111.6 141.6,-75.1 14.4,36.3 -129.3,311.5 -83.8,325.6 45.5,14.2 164.6,-253.5 177.5,-220.9 12.9,32.5 -121.6,266.4 -57.3,286.4 64.4,20 133.8,-287.9 168.4,-277.2 34.5,10.7 -15.8,245.6 36,261.7 51.8,16 44.5,-290.5 63.1,-281.7 10,4.8 56,153.3 84.1,142.1 31.8,-12.5 -54,-317.3 -15.9,-384.5 38.1,-67.1 343.2,-902.2 238.9,-1006.5 -113.7,-113.7 -836.9,-374.4 -988.3,-329.5 -151.3,44.8 -238,194.4 -201.6,286.3 36.4,92 751.4,298.6 762.8,327.5 11.4,28.8 -81.7,608.3 -81.7,608.3"
         style="fill:#f7a491;fill-opacity:1;fill-rule:nonzero;stroke:none"
         id="path472" /><path
         d="m 43864.1,8690.7 c 21.9,1 43.4,-4 64.1,-11.6 3,-2.1 71.6,-22.2 101.1,-97.9 -32.6,38.7 -68.8,81.6 -165.2,109.5"
         style="fill:#f48c7f;fill-opacity:1;fill-rule:nonzero;stroke:none"
         id="path474" /><path
         d="m 40550.3,3455.5 c 0,0 35.8,-390.6 12.3,-518 -3.2,-17 -10.1,-38.7 -18.2,-62.5 -24.2,-71.3 42.2,-289.4 42.2,-289.4 l 890,-3.3 c 48.5,-0.2 16.1,30.6 -23.3,58.8 -64.6,46.1 -116.6,76.5 -322.2,172.6 -13.4,6.3 -62.3,36.5 -79.9,46.9 -44.7,26.5 -89.8,68.5 -128.7,110.7 -64.8,70.2 -74.6,414.4 -74.6,414.4 l -297.6,69.8"
         style="fill:#f7a491;fill-opacity:1;fill-rule:nonzero;stroke:none"
         id="path476" /><path
         d="m 41051.1,2860.7 c -234.7,-63.2 -409.1,-24.4 -506.9,13.6 -24.3,-71.3 -67.5,-316.6 -40.3,-316.6 223.2,0 411.1,-2.6 1045.7,-5.4 22.9,-0.1 23.7,56.5 8.8,73.8 -41.3,48 -489.7,224.1 -507.3,234.6"
         style="fill:#355389;fill-opacity:1;fill-rule:nonzero;stroke:none"
         id="path478" /><path
         d="m 39434,8092.1 c 0,0 12.7,-557.5 172.5,-914.6 155.6,-347.7 900.4,-1205.4 1098.4,-1705.9 -61.2,-282.4 -229.5,-679.3 -217.3,-992.2 13.8,-354.7 -6.8,-1293 -6.8,-1293 l 399.7,-12.7 524.3,2421.6 -790.1,2612.8 -358.6,634.4 -822.1,-750.4"
         style="fill:#3c8f7c;fill-opacity:1;fill-rule:nonzero;stroke:none"
         id="path480" /><path
         d="m 37726.4,4010.8 c 0,0 -245.6,-337 -353.8,-422.2 -57.9,-45.6 -215.2,-106.9 -231.8,-182.4 -16.6,-75.4 712.5,-742.8 712.5,-742.8 38.6,-34.2 34.2,13.1 22.5,63.3 -19.1,82.2 -39.3,142.9 -136,364 -6.3,14.4 -24.2,72.9 -30.9,93.6 -17.1,52.5 -23.7,117.7 -25.1,178.6 -2.5,101.6 231.2,383.4 231.2,383.4 l -188.6,264.5"
         style="fill:#f7a491;fill-opacity:1;fill-rule:nonzero;stroke:none"
         id="path482" /><path
         d="m 37708.8,3184.4 c -231.7,114.2 -343.8,267.7 -395.2,366.6 -69.4,-39.9 -256.1,-125.1 -239.6,-148.9 128.9,-187.1 262.7,-419.8 780.5,-860.6 18.5,-15.8 94.5,75.2 94.8,99.5 0.7,67.3 -233.7,522.6 -240.5,543.4"
         style="fill:#355389;fill-opacity:1;fill-rule:nonzero;stroke:none"
         id="path484" /><path
         d="m 40666.7,12079.5 c -69,449.6 -475.7,772.8 -901.1,554.7 -95.7,-49.1 -225.2,-148.6 -291.3,-233.4 -181.7,-233.2 -225.7,-522.3 -418.3,-746.6 -166.1,-193.3 -609.4,-156.8 -816.4,-305.6 -207,-148.7 -352.1,-415.3 -352.1,-734.2 0,-356.7 80.5,-735.4 356.9,-960.9 276.4,-225.5 669.2,-281.7 1012.9,-186.1 343.6,95.5 638.5,329.7 850.7,616.4 212.2,286.7 362.3,601 468,941.6 118.1,380.3 135.2,763.6 90.7,1054.1"
         style="fill:#184655;fill-opacity:1;fill-rule:nonzero;stroke:none"
         id="path486" /><path
         d="m 40646.1,9969 c 0,0 431.7,-977.2 513.8,-1197.8 82.2,-220.6 513,-958 530.7,-986.1 17.7,-28.1 409.2,-78 387.3,-128.5 -22,-50.4 -188.7,12.8 -188.7,-14.9 0,-62.3 243.6,-519.2 204,-530.3 -73.9,-20.6 -151.1,282.3 -184,266.5 -32.9,-15.9 155.2,-280.1 109.6,-325.6 -45.5,-45.5 -153.7,267 -183.7,267.3 -30.1,0.2 160.7,-308.4 95.8,-303.1 -35.2,2.9 -172.7,287.1 -202.2,257.5 -12.5,-12.4 134.1,-241.3 94,-234.2 -40.2,7.1 -156,187.9 -202.3,289.7 -46.3,101.8 -25.5,200.2 -148,339.6 -122.6,139.5 -614.5,579.6 -760.3,931.9 -145.8,352.2 -470.2,1129.6 -470.2,1129.6 l 404.2,238.4"
         style="fill:#f48c7f;fill-opacity:1;fill-rule:nonzero;stroke:none"
         id="path488" /><path
         d="m 40282.1,10962.4 c 0,0 358.9,-171.3 535.7,-1238.3 l -608.2,-169.6 -253.1,687.7 325.6,720.2"
         style="fill:#f47458;fill-opacity:1;fill-rule:nonzero;stroke:none"
         id="path490" /><path
         d="m 39462.2,8449.2 c 0,0 -309,-464.2 -382.6,-848.4 -71.7,-374.2 47.5,-1503.9 -77.1,-2027.6 -211.9,-196.3 -577.1,-425.3 -746.4,-688.7 -191.9,-298.6 -746.4,-1055.9 -746.4,-1055.9 l 320.3,-239.4 1817.1,1684.4 735.6,2247.2 252.4,657.1 -1172.9,271.3"
         style="fill:#50bfa5;fill-opacity:1;fill-rule:nonzero;stroke:none"
         id="path492" /><path
         d="m 39712.4,11090.5 c 0,0 -409.2,26 -571.1,-150.1 -161.8,-176.1 359.1,-1569 388.6,-1793.1 29.4,-224.1 -293,-993.1 -293,-993.1 0,0 1177.6,-204.5 1452.3,-23.1 0,0 -44,1796.1 -73.5,1956.2 -29.4,160.1 -274.7,811.1 -333.6,875.1 -58.8,64 -569.7,128.1 -569.7,128.1"
         style="fill:#f7cc7f;fill-opacity:1;fill-rule:nonzero;stroke:none"
         id="path494" /><path
         d="m 39848.6,11636.1 c 0,0 -2.1,-12 -5.9,-32.5 -18.3,-98.2 -88.5,-423.8 -136,-513.4 -57.3,-108.2 196.4,-453.3 440.6,-411.1 72.7,12.5 -61.5,317 -55,349.3 12.3,61.8 29,146 46.2,232.4 9.6,48.7 19.4,98.1 28.6,144.5 26.1,132 47.4,239.9 47.4,239.9 l -365.9,-9.1"
         style="fill:#f7a491;fill-opacity:1;fill-rule:nonzero;stroke:none"
         id="path496" /><path
         d="m 39842.7,11603.6 c 3.8,20.5 5.9,32.5 5.9,32.5 l 365.9,9.1 c 0,0 -21.3,-107.9 -47.4,-239.9 -9.1,-46.1 -18.9,-95.2 -28.5,-143.7 -56.5,8.3 -115.5,35.7 -174.7,87.4 -64.5,56.4 -106.8,124.1 -132.3,196.4 4.5,23.1 8.2,43 11.1,58.2"
         style="fill:#f47458;fill-opacity:1;fill-rule:nonzero;stroke:none"
         id="path498" /><path
         d="m 40094.9,12466.2 c 0,0 -172.5,19.9 -280.6,-119.7 -108.1,-139.5 -224.6,-571 43.9,-805.7 268.6,-234.6 533.9,31 573.3,312.6 39.3,281.6 54.6,623 -336.6,612.8"
         style="fill:#f7a491;fill-opacity:1;fill-rule:nonzero;stroke:none"
         id="path500" /><path
         d="m 40510.9,11857.5 c -32,-62.2 -85.8,-96.6 -120.1,-76.9 -34.4,19.7 -36.2,86.1 -4.1,148.3 32,62.2 85.8,96.7 120.1,76.9 34.4,-19.7 36.2,-86.1 4.1,-148.3"
         style="fill:#f7a491;fill-opacity:1;fill-rule:nonzero;stroke:none"
         id="path502" /><path
         d="m 40114.2,12512.3 c 0,0 -230.4,-410.3 -395.3,-429.3 -164.8,-19 -186.5,-237 -186.5,-237 0,0 59,502.4 222.2,599.3 163.1,96.9 359.6,67 359.6,67"
         style="fill:#184655;fill-opacity:1;fill-rule:nonzero;stroke:none"
         id="path504" /><path
         d="m 39762.1,11979.9 c 13.4,-72.9 -13.5,-139.7 -60.2,-149.3 -46.6,-9.6 -95.3,41.8 -108.7,114.6 -13.4,72.9 13.5,139.7 60.2,149.3 46.6,9.6 95.3,-41.7 108.7,-114.6"
         style="fill:#f7a491;fill-opacity:1;fill-rule:nonzero;stroke:none"
         id="path506" /><path
         d="m 34655.5,3240.3 217.7,-86.2 3181.6,4278.6 v 0 c -120,47.5 -180.4,-33.7 -245.2,-120.9 L 34655.5,3240.3"
         style="fill:#355389;fill-opacity:1;fill-rule:nonzero;stroke:none"
         id="path508" /><path
         d="m 34992.6,2994.2 217.7,-86.3 3182.8,4390.8 c 45.2,60.7 -76,99.4 -76,99.4 L 34992.6,2994.2"
         style="fill:#86b1f2;fill-opacity:1;fill-rule:nonzero;stroke:none"
         id="path510" /><path
         d="m 35281.2,5272.8 -323.9,128.8 397.8,530 c 330.1,440 1086.4,602.3 1689.2,362.7 l 544.6,-216.5 -2378.6,-3169.9 -1312.2,521.6 -406,286.5 1789.1,1556.8"
         style="fill:#f47458;fill-opacity:1;fill-rule:nonzero;stroke:none"
         id="path512" /><path
         d="m 37588.9,6077.8 -2378.6,-3169.9 -1312.2,521.6 30.9,41.3 v 0 c 913.5,-62.2 3022.2,2103.5 3542.3,2653.7 l 117.6,-46.7"
         style="fill:#b75742;fill-opacity:1;fill-rule:nonzero;stroke:none"
         id="path514" /><path
         d="m 35916.2,5068.9 c 196.2,217.8 499.4,536.4 717.9,729 -236.2,-333.1 -680.3,-812.2 -686.3,-819.2 -260.5,104.9 -600.5,235.3 -990.5,422.9 328.2,-99.4 645.3,-213.7 958.9,-332.7"
         style="fill:#b75742;fill-opacity:1;fill-rule:nonzero;stroke:none"
         id="path516" /><path
         d="m 35463.7,2855.7 c 0,-164.8 -133.6,-298.3 -298.3,-298.3 -164.8,0 -298.4,133.5 -298.4,298.3 0,164.8 133.6,298.4 298.4,298.4 164.7,0 298.3,-133.6 298.3,-298.4"
         style="fill:#13375b;fill-opacity:1;fill-rule:nonzero;stroke:none"
         id="path518" /><path
         d="m 35288.2,2855.7 c 0,-67.8 -55,-122.8 -122.8,-122.8 -67.9,0 -122.9,55 -122.9,122.8 0,67.9 55,122.9 122.9,122.9 67.8,0 122.8,-55 122.8,-122.9"
         style="fill:#9bc1f9;fill-opacity:1;fill-rule:nonzero;stroke:none"
         id="path520" /><path
         d="m 38938.6,10010.6 c 0,0 -284.9,-1029.7 -334.1,-1259.9 -49.1,-230.1 -368.1,-1022.4 -381.5,-1052.7 -13.4,-30.4 -295,-318.2 -257.3,-376.3 21,-32.4 83.3,-70.4 113,-65.8 29.7,4.7 47.1,-19.5 86.6,-32.9 39.6,-13.4 113.4,-4 144.4,103.4 31,107.5 45.1,132.8 146.1,288.5 100.9,155.8 523.5,662.9 616.6,1032.6 93,369.7 300.8,1186 300.8,1186 l -434.6,177.1"
         style="fill:#f79c8d;fill-opacity:1;fill-rule:nonzero;stroke:none"
         id="path522" /><path
         d="m 38181.9,7219.1 c 41.1,-5.5 100.8,13.6 127.8,107.3 7.5,26 14.1,47.2 21,66.6 -8.2,3.3 -13.6,5.1 -13.6,5.1 l -135.2,-179"
         style="fill:#86b1f2;fill-opacity:1;fill-rule:nonzero;stroke:none"
         id="path524" /><path
         d="m 38828.7,9694.3 c 0,0 25.9,846.9 140.7,1084.8 114.8,237.9 400.9,374 508.9,165.6 111.4,-215 -82.3,-1260.2 -82.3,-1260.2 l -567.3,9.8"
         style="fill:#fae0b2;fill-opacity:1;fill-rule:nonzero;stroke:none"
         id="path526" /><path
         d="m 43728.2,7778.7 -466.4,-34.1 143.1,-553.4 478.3,86.1 -155,501.4"
         style="fill:#50bfa5;fill-opacity:1;fill-rule:nonzero;stroke:none"
         id="path528" /><path
         d="m 42130.1,7485.2 c 0,0 -104.1,-1284.3 -104.1,-1395.9 0,-111.5 443.1,-143.1 443.1,-143.1 l 135.5,1318 -474.5,221"
         style="fill:#466eb6;fill-opacity:1;fill-rule:nonzero;stroke:none"
         id="path530" /><path
         d="m 42791.1,7797.9 c 0,0 -287.6,153.9 -524.6,12.8 -237.1,-141.1 -301.6,-970 -301.6,-970 l 759.3,-91 66.9,1048.2"
         style="fill:#86b1f2;fill-opacity:1;fill-rule:nonzero;stroke:none"
         id="path532" /><path
         d="m 41790.3,3183.1 c 0,0 -49.1,-174.5 -88.1,-213.5 -38.9,-38.9 -168.1,-190.1 -136.3,-265 31.7,-75 818.7,-182.3 848.6,-152.5 29.8,29.9 -136,156.3 -230,233.8 -94,77.5 -161.3,172.7 -121.9,288.3 39.4,115.7 39.4,104.2 39.4,115.7 0,11.4 -311.7,-6.8 -311.7,-6.8"
         style="fill:#f7a491;fill-opacity:1;fill-rule:nonzero;stroke:none"
         id="path534" /><path
         d="m 42414.5,2552.1 c 35.6,26.7 -75,146.1 -235.2,238.2 -67.1,0.1 -156.5,4.6 -232.3,23.5 -118.6,29.7 -209.6,132.4 -236.6,165.8 -2.4,-3.4 -193.2,-187.2 -156,-275 31.8,-75 788.9,-205.8 860.1,-152.5"
         style="fill:#355389;fill-opacity:1;fill-rule:nonzero;stroke:none"
         id="path536" /><path
         d="m 43096.1,3098.4 c 0,0 14.6,-179.2 -15,-225.7 -29.5,-46.5 -132.8,-230.9 -75.2,-288.5 51.9,-51.9 772.8,-18.5 795.4,17.1 22.7,35.7 -100.7,142.1 -209.4,197.2 -108.6,55.1 -195.1,133.4 -181.9,254.8 13.2,121.5 15.7,110.3 13.2,121.5 -2.5,11.1 -327.1,-76.4 -327.1,-76.4"
         style="fill:#f7a491;fill-opacity:1;fill-rule:nonzero;stroke:none"
         id="path538" /><path
         d="m 43890.9,2572.6 c 37.6,23.9 -128.6,174.2 -305,229.1 -65.5,-14.6 -153.8,-29.7 -231.9,-27.7 -122.2,3 -233.4,83.5 -267,110.2 -1.6,-3.9 -165.9,-241.8 -92.3,-302.5 57.5,-47.4 839.1,-45.3 896.2,-9.1"
         style="fill:#355389;fill-opacity:1;fill-rule:nonzero;stroke:none"
         id="path540" /><path
         d="m 43148.8,5635.8 -465.5,-1348.7 -533.9,-1248.5 -447.2,112.3 c 0,0 161.4,865.5 313,1137.3 114.7,205.7 194.8,1386.3 194.8,1386.3 l 938.8,-38.7"
         style="fill:#f47458;fill-opacity:1;fill-rule:nonzero;stroke:none"
         id="path542" /><path
         d="m 42925.2,5408.8 161.3,-2370.2 h 381.1 c 0,0 166.5,2483.2 105.5,2719.5 -61,236.3 -695.9,183 -695.9,183 l 48,-532.3"
         style="fill:#b75742;fill-opacity:1;fill-rule:nonzero;stroke:none"
         id="path544" /><path
         d="m 43291,7735.9 c 0,0 -491.1,147.2 -566.8,137.7 -82.7,-10.4 -284,-117 -284,-117 0,0 12.4,-852.7 -23.2,-1093.8 -35.6,-241.1 -284.5,-1013.5 -284.5,-1013.5 0,0 350.6,-203.2 940,-137.2 589.5,66.1 548.8,208.3 548.8,208.3 0,0 -55.9,853.8 -111.7,1229.8 -55.9,376 -218.6,785.7 -218.6,785.7"
         style="fill:#96d9c9;fill-opacity:1;fill-rule:nonzero;stroke:none"
         id="path546" /><path
         d="m 42519,7796 c 0,0 110.5,16.7 205.2,-341.9 107.5,-406.4 -8.2,-827.3 -185.9,-933.9 -177.7,-106.7 -250.9,-86.1 -250.9,-86.1 l 27.9,-250.6 c 0,0 525,117.5 596.5,566.2 117.2,735.5 -228.5,1114.4 -228.5,1114.4 0,0 -65,-10.5 -85.2,-18.7 -21.6,-8.8 -79.1,-49.4 -79.1,-49.4"
         style="fill:#466eb6;fill-opacity:1;fill-rule:nonzero;stroke:none"
         id="path548" /><path
         d="m 42247.6,6946.8 c 0,0 0,-433.6 0,-525.1 0,-91.5 105.1,-710.7 233.8,-922.8 128.7,-212.1 303.2,-448.6 339.3,-462.2 36.1,-13.5 114.6,-63.2 155.3,-22.6 40.6,40.7 72.8,22 123.6,44.1 50.8,22 -6.7,94.8 -77.9,166 -71.1,71.1 -86.4,88 -74.5,99.9 11.8,11.8 69.4,-54.2 99.9,-44 30.5,10.1 -18.6,116.8 -98.2,154.1 -79.6,37.3 -206.7,110.1 -218.5,149.1 -11.9,38.9 -11.9,28.8 -11.9,38.9 0,10.2 -89.7,625 -89.7,745.3 0,120.3 -35.6,511.5 -35.6,511.5 l -345.6,67.8"
         style="fill:#f7a491;fill-opacity:1;fill-rule:nonzero;stroke:none"
         id="path550" /><path
         d="m 42487.8,7777.5 c -46.2,-5.8 -171.6,-51.5 -215.6,-200.6 -44,-149 -160.1,-572.5 -139.7,-779.2 0,0 494.6,-64.3 494.6,-44 0,20.3 108.2,550.5 54.2,782.6 -47.1,202.4 -113.2,251.2 -193.5,241.2"
         style="fill:#50bfa5;fill-opacity:1;fill-rule:nonzero;stroke:none"
         id="path552" /><path
         d="M 43214.1,7758.5 43558,6522.7 v 0.1 c -15.2,161.3 -31.8,315.5 -48.4,427.4 -55.9,376 -221.5,796.3 -221.5,796.3 0,0 -26.3,6.5 -74,12"
         style="fill:#466eb6;fill-opacity:1;fill-rule:nonzero;stroke:none"
         id="path554" /><path
         d="m 43017.3,9021.6 c 0,0 186.5,67.6 307,-121.4 120.6,-189 55.4,-171 114.1,-265.5 58.6,-94.5 211.7,-74.9 211.7,-221.5 0,-146.6 -68.4,-169.5 -68.4,-169.5 0,0 61.9,-114 -6.5,-231.3 -68.4,-117.2 -239,-218.2 -381.8,-202 0,0 -214.4,-117.5 -429.4,-62 -215,55.5 -140.1,55.5 -228.1,55.5 -87.9,0 -325.8,120.6 -286.7,296.5 0,0 -144.9,172.1 -4.3,312.8 140.6,140.6 167.2,283.4 248.7,472.3 81.4,189 426,181.7 523.7,136.1"
         style="fill:#184655;fill-opacity:1;fill-rule:nonzero;stroke:none"
         id="path556" /><path
         d="m 43141.9,8015.7 c 0,0 -7.8,-259.5 16.5,-283.8 24.4,-24.4 58.4,-64.8 22.6,-126.7 -35.8,-61.9 -191.4,-22.4 -263.9,13 -69.6,34 -114.5,97.3 -114.5,97.3 l 36.3,411 303,-110.8"
         style="fill:#f7a491;fill-opacity:1;fill-rule:nonzero;stroke:none"
         id="path558" /><path
         d="m 43038.5,7908.2 c -50,17.5 -137.3,51.2 -204.7,160.7 l 5.1,57.6 303,-110.8 c 0,0 -1.9,-63.3 -0.9,-130.3 -42.5,1.7 -78.7,14.4 -102.5,22.8"
         style="fill:#b75742;fill-opacity:1;fill-rule:nonzero;stroke:none"
         id="path560" /><path
         d="m 42785.5,8419.9 c 0,0 -7.3,152.5 -101,122.9 -93.7,-29.6 -22.3,-259.8 55.4,-252.3 77.6,7.6 45.6,129.4 45.6,129.4"
         style="fill:#f7a491;fill-opacity:1;fill-rule:nonzero;stroke:none"
         id="path562" /><path
         d="m 43080,8918.1 c 0,0 146.6,3.3 221.5,-110.7 75,-114.1 156.4,-439.9 32.6,-664.6 -123.8,-224.8 -281.8,-169.5 -347,-146.6 -65.1,22.8 -193.8,73.3 -259,283.4 -65.1,210.1 -17.9,682.5 351.9,638.5"
         style="fill:#f7a491;fill-opacity:1;fill-rule:nonzero;stroke:none"
         id="path564" /><path
         d="m 21293.8,7905.7 c -89.3,250.9 -589.9,1474 -715.5,1506.7 l -208.8,-541.2 c 10.9,-4.7 30.1,-20.9 497.1,-856.8 11.5,-21.1 23.8,-42.6 36,-64.5 32.9,-58.8 67.9,-121.8 104.9,-188.6 l -39.8,-226.2 c 0,0 -0.5,-362.7 39.8,-376.4 18.4,-6 29.9,23.3 37.9,59.6 l 0.1,1.1 c 1.1,5.4 2.2,10.7 3.3,16.1 0,0.4 0,0.7 0,0.7 7.5,39.4 11.2,81.1 15.5,91 4.8,11.2 15.4,33.7 30.5,52.5 76.1,-231.4 44.5,-211.8 34.6,-286.1 -2.8,-18.7 1.3,-38.9 -1.4,-56.5 -4.7,-30.1 -24.4,-52.9 -27.5,-76.3 -4.2,-34.1 9.7,-63 15.8,-69.6 7.3,-8.5 19.9,5.5 34.9,33.4 87.6,168.5 68.9,314.4 83.3,359.8 9.8,30.5 17.3,-26.9 1.7,-114.6 -3.7,-21.9 2.2,-51.3 -6.7,-80 -5.7,-19.2 -19.5,-36 -25.6,-54.7 -5.5,-17.4 -6.5,-35.5 -10.4,-50 -5,-19.3 -21.6,-45.3 -24.5,-60.6 -10.6,-57.3 -2.5,-86.1 2.5,-93 11,-14.2 130,240.9 130,240.9 0,0 38.7,178.8 41.5,219.2 0,0 12.5,23.4 16.4,-24.3 0.5,-8 -6.7,-43.4 -8,-72.7 -2.1,-40.4 1.5,-76.2 1.5,-76.2 0,0 -14.8,-14.9 -31,-44.2 -6.6,-12.2 -10.2,-32.6 -17.7,-46.2 -7.9,-13.9 -21,-25.3 -28.1,-38.6 -18,-34.6 -23.9,-67.2 -6,-79.3 14.9,-10.1 150.4,180 150.4,180 14,183.9 121.3,369.8 -126.7,815.6"
         style="fill:#f48c7f;fill-opacity:1;fill-rule:nonzero;stroke:none"
         id="path566" /><path
         d="m 21262.2,3054 c -37.8,201.6 1.3,630.2 -2.2,1026 -177.4,0.9 -282,-319.8 -459.3,-316.2 96.7,-501.2 70.3,-747.6 70.3,-747.6 l -7.6,-100.3 7,-295.9 1001.8,38.3 c 0,0 -215.3,83.9 -519,255.4 -22.5,12.6 -74.8,53.9 -91,140.3"
         style="fill:#f7a491;fill-opacity:1;fill-rule:nonzero;stroke:none"
         id="path568" /><path
         d="m 20846.3,2555.3 1056.6,35.7 c 38.1,5.2 46,36.5 31.8,55 -29.1,38 -151,61.3 -289.4,117.6 -236.6,-35.6 -741.5,104.1 -781.5,157 -16.7,-110.3 -39,-361.6 -17.5,-365.3"
         style="fill:#f47458;fill-opacity:1;fill-rule:nonzero;stroke:none"
         id="path570" /><path
         d="m 18198.3,3122.4 c 83.2,187.5 283.4,504.5 504.9,832.5 -145.6,101.3 -338.5,-89.7 -482.5,13.8 -204.6,-467.7 -366.1,-655.6 -366.1,-655.6 l -63.1,-78.3 -162,-247.7 724.1,-364.4 c 0,0 3.9,6.2 -55.8,129.9 -22.9,47.6 -61.7,115.6 -104.1,202.6 -11.3,23.2 -31,86.9 4.6,167.2"
         style="fill:#f7a491;fill-opacity:1;fill-rule:nonzero;stroke:none"
         id="path572" /><path
         d="m 17573,2947.4 637.2,-407.6 c 0,0 311.9,-23.2 310.7,0 -2.4,47.8 -141,87.9 -223.1,212.8 -215.2,104.8 -500.3,419.6 -503.3,485.8 -76.3,-81.4 -237.1,-275.8 -221.5,-291"
         style="fill:#f47458;fill-opacity:1;fill-rule:nonzero;stroke:none"
         id="path574" /><path
         d="m 21051.7,8487.7 c -79.5,278.5 225.1,1360.5 225.1,1639 0,278.5 -367.7,1226.4 -654.6,1409.4 -287,183 -890.3,28.3 -890.3,28.3 l -218.9,-959.5 48.7,-1017.8 -568.7,-2310.4 -207.7,-1070.5 -949,-2394.7 c 0,0 1109.5,-746.3 2179.8,-573.1 1070.3,173.3 1439.5,129 1439.5,129 l 235.8,2566.7 -639.7,2553.6"
         style="fill:#b75742;fill-opacity:1;fill-rule:nonzero;stroke:none"
         id="path576" /><path
         d="m 19594.4,7274.8 h -127.2 V 7702 c 0,12.6 -10.2,22.8 -22.8,22.8 h -694.6 c -12.6,0 -22.8,-10.2 -22.8,-22.8 v -427.2 h -127.2 V 7702 c 0,82.7 67.3,150 150,150 h 694.6 c 82.7,0 150,-67.3 150,-150 v -427.2"
         style="fill:#184655;fill-opacity:1;fill-rule:nonzero;stroke:none"
         id="path578" /><path
         d="m 17665.6,6244.6 127.3,-856 h 2651.3 l 135.8,856 h -2914.4"
         style="fill:#f7cc7f;fill-opacity:1;fill-rule:nonzero;stroke:none"
         id="path580" /><path
         d="m 20625.7,6234.9 h -3002.9 l 151.7,1020 c 11.5,77.2 77.8,134.4 155.9,134.4 h 2377.5 c 77.5,0 143.6,-56.4 155.7,-132.9 l 162.1,-1021.5"
         style="fill:#f7cc7f;fill-opacity:1;fill-rule:nonzero;stroke:none"
         id="path582" /><path
         d="m 19150.9,6425 v 0 c -46.3,0 -83.9,37.6 -83.9,83.9 v 606.4 c 0,46.3 37.6,83.8 83.9,83.8 v 0 c 46.4,0 83.9,-37.5 83.9,-83.8 v -606.4 c 0,-46.3 -37.5,-83.9 -83.9,-83.9"
         style="fill:#184655;fill-opacity:1;fill-rule:nonzero;stroke:none"
         id="path584" /><path
         d="m 18746.7,6425 v 0 c -46.3,0 -83.9,37.6 -83.9,83.9 v 606.4 c 0,46.3 37.6,83.8 83.9,83.8 v 0 c 46.4,0 83.9,-37.5 83.9,-83.8 v -606.4 c 0,-46.3 -37.5,-83.9 -83.9,-83.9"
         style="fill:#184655;fill-opacity:1;fill-rule:nonzero;stroke:none"
         id="path586" /><path
         d="m 18354,6425 v 0 c -46.4,0 -83.9,37.6 -83.9,83.9 v 606.4 c 0,46.3 37.5,83.8 83.9,83.8 v 0 c 46.3,0 83.8,-37.5 83.8,-83.8 v -606.4 c 0,-46.3 -37.5,-83.9 -83.8,-83.9"
         style="fill:#184655;fill-opacity:1;fill-rule:nonzero;stroke:none"
         id="path588" /><path
         d="m 19894.5,6425 v 0 c -46.3,0 -83.9,37.6 -83.9,83.9 v 606.4 c 0,46.3 37.6,83.8 83.9,83.8 v 0 c 46.4,0 83.9,-37.5 83.9,-83.8 v -606.4 c 0,-46.3 -37.5,-83.9 -83.9,-83.9"
         style="fill:#184655;fill-opacity:1;fill-rule:nonzero;stroke:none"
         id="path590" /><path
         d="m 19501.8,6425 v 0 c -46.4,0 -83.9,37.6 -83.9,83.9 v 606.4 c 0,46.3 37.5,83.8 83.9,83.8 v 0 c 46.3,0 83.9,-37.5 83.9,-83.8 v -606.4 c 0,-46.3 -37.6,-83.9 -83.9,-83.9"
         style="fill:#184655;fill-opacity:1;fill-rule:nonzero;stroke:none"
         id="path592" /><path
         d="m 20683.6,6092.1 h -3115 v 217.4 h 3115 v -217.4"
         style="fill:#f47458;fill-opacity:1;fill-rule:nonzero;stroke:none"
         id="path594" /><path
         d="m 19298.7,8198.6 c -25.3,16.6 1.7,429.7 1.7,429.7 0,0 -34.6,1163.8 -30.1,1227.9 l 425.5,770.7 -588.9,79.8 c 0,0 -386.2,-704.5 -404.1,-773.1 -17.8,-68.6 257.8,-1486.9 264.5,-1629.6 0,0 -96.6,-215.7 -126.8,-325.2 -30.1,-109.4 22.8,-219.9 19,-252.1 -0.6,-4.7 119.5,-74.3 151.4,-65.2 95,27.3 148.2,35 170.6,30 132.2,-30 88.5,163.3 110.2,162.4 21.8,-0.8 115,3.2 115,3.2 6.1,0 27.6,252.7 -108,341.5"
         style="fill:#f8a492;fill-opacity:1;fill-rule:nonzero;stroke:none"
         id="path596" /><path
         d="m 19731.9,11564.4 c 0,0 -207.5,-47.5 -312.8,-152.8 -105.3,-105.3 -494,-870.9 -494,-870.9 l 560.2,-373.6 171.1,306 c 166.5,297.6 205.9,649.8 109.3,976.8 l -33.8,114.5"
         style="fill:#f47458;fill-opacity:1;fill-rule:nonzero;stroke:none"
         id="path598" /><path
         d="m 21137.5,12097.8 c 0,0 381.6,751.4 14.3,986 -282.2,180.2 -407,48.8 -407,48.8 0,0 -434.2,317.1 -595.7,-190.7 0,0 -334.3,-7.5 -404.8,-294.3 -70.6,-286.7 89.7,-415.7 89.7,-415.7 0,0 -175.5,-148.1 -131,-371.5 44.6,-223.5 381.7,-330.5 578.5,-203.9 196.8,126.6 173.6,25.1 329.6,25.1 155.9,0 526.4,416.2 526.4,416.2"
         style="fill:#9bc1f9;fill-opacity:1;fill-rule:nonzero;stroke:none"
         id="path600" /><path
         d="m 20792.1,11825.6 c 0,0 -245.1,-462.7 -165.2,-692 44.5,-127.9 -476.7,406.8 -476.7,406.8 l 271.7,519.1 370.2,-233.9"
         style="fill:#f7a491;fill-opacity:1;fill-rule:nonzero;stroke:none"
         id="path602" /><path
         d="m 20376.2,11972.2 c 44.1,-123.3 118.7,-236.9 234.2,-316.9 28.8,-20 57,-35.9 84.5,-48.1 47.3,124.3 97.2,218.4 97.2,218.4 l -370.2,233.9 -45.7,-87.3"
         style="fill:#f47458;fill-opacity:1;fill-rule:nonzero;stroke:none"
         id="path604" /><path
         d="m 20674.3,12954.9 c 0,0 -182.9,-28.9 -303.6,-186.2 -120.8,-157.4 -168.7,-732.8 185.9,-978.5 354.7,-245.8 602.6,154.1 624.8,464.1 22.2,310.1 -23.6,728.1 -507.1,700.6"
         style="fill:#f7a491;fill-opacity:1;fill-rule:nonzero;stroke:none"
         id="path606" /><path
         d="m 20387.5,12296.8 c 15.8,-83.6 -18.9,-159.2 -77.5,-168.9 -58.5,-9.6 -118.8,50.4 -134.6,134 -15.8,83.6 18.9,159.2 77.5,168.9 58.6,9.6 118.9,-50.3 134.6,-134"
         style="fill:#f7a491;fill-opacity:1;fill-rule:nonzero;stroke:none"
         id="path608" /><path
         d="m 20785.2,13027.5 c 58.9,-54.3 -23.1,-240 -183.3,-414.9 -160.1,-174.8 -337.7,-272.6 -396.6,-218.4 -58.9,54.3 23.1,240 183.3,414.9 160.1,174.9 337.7,272.6 396.6,218.4"
         style="fill:#9bc1f9;fill-opacity:1;fill-rule:nonzero;stroke:none"
         id="path610" /></g></g></svg>
